<mxfile host="Electron" modified="2023-05-10T14:27:20.899Z" agent="Mozilla/5.0 (Windows NT 10.0; Win64; x64) AppleWebKit/537.36 (KHTML, like Gecko) draw.io/21.1.2 Chrome/106.0.5249.199 Electron/21.4.3 Safari/537.36" etag="NjvHKzCeCSo_ug4rya4m" version="21.1.2" type="device">
  <diagram id="R2lEEEUBdFMjLlhIrx00" name="Page-1">
    <mxGraphModel dx="5102" dy="3428" grid="1" gridSize="10" guides="1" tooltips="1" connect="1" arrows="1" fold="1" page="1" pageScale="1" pageWidth="850" pageHeight="1100" math="0" shadow="0" extFonts="Permanent Marker^https://fonts.googleapis.com/css?family=Permanent+Marker">
      <root>
        <mxCell id="0" />
        <mxCell id="1" parent="0" />
        <mxCell id="ILLf86DSIE8QrTmpPEF9-93" style="edgeStyle=orthogonalEdgeStyle;rounded=0;orthogonalLoop=1;jettySize=auto;html=1;exitX=0.5;exitY=0;exitDx=0;exitDy=0;fontColor=#FEFAE0;entryX=1;entryY=0.5;entryDx=0;entryDy=0;" parent="1" source="5i9ivpqAXcweLOBhKeht-245" target="ILLf86DSIE8QrTmpPEF9-85" edge="1">
          <mxGeometry relative="1" as="geometry">
            <mxPoint x="1212.5" y="-1597.316650390625" as="targetPoint" />
            <Array as="points">
              <mxPoint x="1212.5" y="-1222.25" />
              <mxPoint x="1212.5" y="-1586.25" />
              <mxPoint x="1132.5" y="-1586.25" />
            </Array>
          </mxGeometry>
        </mxCell>
        <mxCell id="ILLf86DSIE8QrTmpPEF9-94" style="edgeStyle=orthogonalEdgeStyle;rounded=0;orthogonalLoop=1;jettySize=auto;html=1;exitX=0.5;exitY=0;exitDx=0;exitDy=0;entryX=1;entryY=0.5;entryDx=0;entryDy=0;fontColor=#FEFAE0;" parent="1" source="5i9ivpqAXcweLOBhKeht-245" target="ILLf86DSIE8QrTmpPEF9-83" edge="1">
          <mxGeometry relative="1" as="geometry">
            <Array as="points">
              <mxPoint x="1212.5" y="-1222.25" />
              <mxPoint x="1212.5" y="-1306.25" />
            </Array>
          </mxGeometry>
        </mxCell>
        <mxCell id="ILLf86DSIE8QrTmpPEF9-95" style="edgeStyle=orthogonalEdgeStyle;rounded=0;orthogonalLoop=1;jettySize=auto;html=1;exitX=0.75;exitY=0;exitDx=0;exitDy=0;entryX=1.007;entryY=0.4;entryDx=0;entryDy=0;entryPerimeter=0;fontColor=#FEFAE0;" parent="1" source="5i9ivpqAXcweLOBhKeht-245" target="ILLf86DSIE8QrTmpPEF9-84" edge="1">
          <mxGeometry relative="1" as="geometry">
            <Array as="points">
              <mxPoint x="1212.5" y="-1222.25" />
              <mxPoint x="1212.5" y="-1420.25" />
            </Array>
          </mxGeometry>
        </mxCell>
        <mxCell id="ILLf86DSIE8QrTmpPEF9-96" style="edgeStyle=orthogonalEdgeStyle;rounded=0;orthogonalLoop=1;jettySize=auto;html=1;exitX=0.5;exitY=0;exitDx=0;exitDy=0;entryX=1;entryY=0.5;entryDx=0;entryDy=0;fontColor=#FEFAE0;" parent="1" source="5i9ivpqAXcweLOBhKeht-245" target="ILLf86DSIE8QrTmpPEF9-79" edge="1">
          <mxGeometry relative="1" as="geometry">
            <Array as="points">
              <mxPoint x="1212.5" y="-1222.25" />
              <mxPoint x="1212.5" y="-1636.25" />
            </Array>
          </mxGeometry>
        </mxCell>
        <mxCell id="ILLf86DSIE8QrTmpPEF9-164" style="edgeStyle=orthogonalEdgeStyle;rounded=0;orthogonalLoop=1;jettySize=auto;html=1;exitX=1;exitY=0.5;exitDx=0;exitDy=0;entryX=0;entryY=0.5;entryDx=0;entryDy=0;fontColor=#FEFAE0;shape=link;" parent="1" source="5i9ivpqAXcweLOBhKeht-245" target="ILLf86DSIE8QrTmpPEF9-87" edge="1">
          <mxGeometry relative="1" as="geometry">
            <Array as="points">
              <mxPoint x="1340" y="-1170" />
              <mxPoint x="1557" y="-1170" />
              <mxPoint x="1557" y="-1171" />
            </Array>
          </mxGeometry>
        </mxCell>
        <mxCell id="KDzrLPc6gg60PK9FeB10-26" style="edgeStyle=orthogonalEdgeStyle;rounded=0;orthogonalLoop=1;jettySize=auto;html=1;exitX=0.5;exitY=0;exitDx=0;exitDy=0;entryX=0.992;entryY=0.442;entryDx=0;entryDy=0;entryPerimeter=0;" parent="1" source="5i9ivpqAXcweLOBhKeht-245" target="ILLf86DSIE8QrTmpPEF9-82" edge="1">
          <mxGeometry relative="1" as="geometry">
            <mxPoint x="1130" y="-1360" as="targetPoint" />
            <Array as="points">
              <mxPoint x="1210" y="-1223" />
              <mxPoint x="1210" y="-1370" />
              <mxPoint x="1130" y="-1370" />
              <mxPoint x="1130" y="-1363" />
            </Array>
          </mxGeometry>
        </mxCell>
        <mxCell id="5i9ivpqAXcweLOBhKeht-245" value="&lt;b&gt;&lt;font style=&quot;font-size: 20px&quot;&gt;Sessions&lt;/font&gt;&lt;/b&gt;" style="rounded=1;arcSize=10;whiteSpace=wrap;html=1;align=center;fillColor=#e1d5e7;strokeColor=#9673a6;" parent="1" vertex="1">
          <mxGeometry x="1055" y="-1222.5" width="285" height="82.5" as="geometry" />
        </mxCell>
        <mxCell id="5i9ivpqAXcweLOBhKeht-152" style="edgeStyle=orthogonalEdgeStyle;rounded=0;orthogonalLoop=1;jettySize=auto;html=1;entryX=0.5;entryY=0;entryDx=0;entryDy=0;" parent="1" source="SFRXXkDRhJom5mfh4kAp-13" target="SFRXXkDRhJom5mfh4kAp-59" edge="1">
          <mxGeometry relative="1" as="geometry">
            <Array as="points">
              <mxPoint x="2000" y="139" />
              <mxPoint x="1620" y="139" />
            </Array>
          </mxGeometry>
        </mxCell>
        <mxCell id="5i9ivpqAXcweLOBhKeht-153" style="edgeStyle=orthogonalEdgeStyle;rounded=0;orthogonalLoop=1;jettySize=auto;html=1;" parent="1" source="SFRXXkDRhJom5mfh4kAp-13" target="SFRXXkDRhJom5mfh4kAp-66" edge="1">
          <mxGeometry relative="1" as="geometry">
            <Array as="points">
              <mxPoint x="2000" y="139" />
              <mxPoint x="1730" y="139" />
            </Array>
          </mxGeometry>
        </mxCell>
        <mxCell id="5i9ivpqAXcweLOBhKeht-154" style="edgeStyle=orthogonalEdgeStyle;rounded=0;orthogonalLoop=1;jettySize=auto;html=1;" parent="1" source="SFRXXkDRhJom5mfh4kAp-13" target="SFRXXkDRhJom5mfh4kAp-61" edge="1">
          <mxGeometry relative="1" as="geometry">
            <Array as="points">
              <mxPoint x="2000" y="139" />
              <mxPoint x="1845" y="139" />
            </Array>
          </mxGeometry>
        </mxCell>
        <mxCell id="5i9ivpqAXcweLOBhKeht-155" style="edgeStyle=orthogonalEdgeStyle;rounded=0;orthogonalLoop=1;jettySize=auto;html=1;entryX=0.5;entryY=0;entryDx=0;entryDy=0;" parent="1" source="SFRXXkDRhJom5mfh4kAp-13" target="14bf4rCieV7-VyyaQFDR-9" edge="1">
          <mxGeometry relative="1" as="geometry">
            <Array as="points">
              <mxPoint x="2000" y="139" />
              <mxPoint x="1950" y="139" />
            </Array>
            <mxPoint x="1950" y="189" as="targetPoint" />
          </mxGeometry>
        </mxCell>
        <mxCell id="5i9ivpqAXcweLOBhKeht-156" style="edgeStyle=orthogonalEdgeStyle;rounded=0;orthogonalLoop=1;jettySize=auto;html=1;entryX=0.55;entryY=0.031;entryDx=0;entryDy=0;entryPerimeter=0;" parent="1" source="SFRXXkDRhJom5mfh4kAp-13" target="SFRXXkDRhJom5mfh4kAp-72" edge="1">
          <mxGeometry relative="1" as="geometry">
            <Array as="points">
              <mxPoint x="2000" y="139" />
              <mxPoint x="2075" y="139" />
            </Array>
          </mxGeometry>
        </mxCell>
        <mxCell id="5i9ivpqAXcweLOBhKeht-163" style="edgeStyle=orthogonalEdgeStyle;rounded=0;orthogonalLoop=1;jettySize=auto;html=1;" parent="1" source="SFRXXkDRhJom5mfh4kAp-13" target="IJt0pZMBiccfIHnYekjX-189" edge="1">
          <mxGeometry relative="1" as="geometry">
            <Array as="points">
              <mxPoint x="2000" y="139" />
              <mxPoint x="2190" y="139" />
            </Array>
          </mxGeometry>
        </mxCell>
        <mxCell id="5i9ivpqAXcweLOBhKeht-164" style="edgeStyle=orthogonalEdgeStyle;rounded=0;orthogonalLoop=1;jettySize=auto;html=1;entryX=0;entryY=0.5;entryDx=0;entryDy=0;" parent="1" source="SFRXXkDRhJom5mfh4kAp-13" target="5i9ivpqAXcweLOBhKeht-145" edge="1">
          <mxGeometry relative="1" as="geometry" />
        </mxCell>
        <mxCell id="5i9ivpqAXcweLOBhKeht-165" style="edgeStyle=orthogonalEdgeStyle;rounded=0;orthogonalLoop=1;jettySize=auto;html=1;entryX=0;entryY=0.5;entryDx=0;entryDy=0;" parent="1" source="SFRXXkDRhJom5mfh4kAp-13" target="5i9ivpqAXcweLOBhKeht-161" edge="1">
          <mxGeometry relative="1" as="geometry" />
        </mxCell>
        <mxCell id="5i9ivpqAXcweLOBhKeht-166" style="edgeStyle=orthogonalEdgeStyle;rounded=0;orthogonalLoop=1;jettySize=auto;html=1;entryX=0;entryY=0.5;entryDx=0;entryDy=0;" parent="1" source="SFRXXkDRhJom5mfh4kAp-13" target="5i9ivpqAXcweLOBhKeht-162" edge="1">
          <mxGeometry relative="1" as="geometry" />
        </mxCell>
        <mxCell id="5i9ivpqAXcweLOBhKeht-167" style="edgeStyle=orthogonalEdgeStyle;rounded=0;orthogonalLoop=1;jettySize=auto;html=1;entryX=0;entryY=0.5;entryDx=0;entryDy=0;" parent="1" source="SFRXXkDRhJom5mfh4kAp-13" target="5i9ivpqAXcweLOBhKeht-160" edge="1">
          <mxGeometry relative="1" as="geometry" />
        </mxCell>
        <mxCell id="5i9ivpqAXcweLOBhKeht-168" style="edgeStyle=orthogonalEdgeStyle;rounded=0;orthogonalLoop=1;jettySize=auto;html=1;entryX=0;entryY=0.5;entryDx=0;entryDy=0;" parent="1" source="SFRXXkDRhJom5mfh4kAp-13" target="5i9ivpqAXcweLOBhKeht-159" edge="1">
          <mxGeometry relative="1" as="geometry" />
        </mxCell>
        <mxCell id="5i9ivpqAXcweLOBhKeht-169" style="edgeStyle=orthogonalEdgeStyle;rounded=0;orthogonalLoop=1;jettySize=auto;html=1;entryX=0;entryY=0.5;entryDx=0;entryDy=0;" parent="1" source="SFRXXkDRhJom5mfh4kAp-13" target="5i9ivpqAXcweLOBhKeht-158" edge="1">
          <mxGeometry relative="1" as="geometry" />
        </mxCell>
        <mxCell id="5i9ivpqAXcweLOBhKeht-183" style="edgeStyle=orthogonalEdgeStyle;rounded=0;orthogonalLoop=1;jettySize=auto;html=1;entryX=0;entryY=0.5;entryDx=0;entryDy=0;" parent="1" source="SFRXXkDRhJom5mfh4kAp-13" target="5i9ivpqAXcweLOBhKeht-182" edge="1">
          <mxGeometry relative="1" as="geometry" />
        </mxCell>
        <mxCell id="SFRXXkDRhJom5mfh4kAp-13" value="&lt;font style=&quot;font-size: 20px&quot;&gt;&lt;b&gt;Mentor&lt;/b&gt;&lt;/font&gt;" style="rounded=1;arcSize=10;whiteSpace=wrap;html=1;align=center;fillColor=#e1d5e7;strokeColor=#9673a6;" parent="1" vertex="1">
          <mxGeometry x="1900" y="-23.5" width="190" height="70" as="geometry" />
        </mxCell>
        <mxCell id="SFRXXkDRhJom5mfh4kAp-59" value="Mentor_ID" style="ellipse;whiteSpace=wrap;html=1;align=center;fontStyle=4;fillColor=#f8cecc;strokeColor=#b85450;" parent="1" vertex="1">
          <mxGeometry x="1570" y="189" width="100" height="40" as="geometry" />
        </mxCell>
        <mxCell id="SFRXXkDRhJom5mfh4kAp-61" value="Email" style="ellipse;whiteSpace=wrap;html=1;align=center;fillColor=#fff2cc;strokeColor=#d6b656;" parent="1" vertex="1">
          <mxGeometry x="1795" y="189" width="100" height="40" as="geometry" />
        </mxCell>
        <mxCell id="5i9ivpqAXcweLOBhKeht-142" style="edgeStyle=orthogonalEdgeStyle;rounded=0;orthogonalLoop=1;jettySize=auto;html=1;" parent="1" source="SFRXXkDRhJom5mfh4kAp-66" target="5i9ivpqAXcweLOBhKeht-141" edge="1">
          <mxGeometry relative="1" as="geometry">
            <Array as="points">
              <mxPoint x="1730" y="239" />
              <mxPoint x="1620" y="239" />
            </Array>
          </mxGeometry>
        </mxCell>
        <mxCell id="5i9ivpqAXcweLOBhKeht-143" style="edgeStyle=orthogonalEdgeStyle;rounded=0;orthogonalLoop=1;jettySize=auto;html=1;" parent="1" source="SFRXXkDRhJom5mfh4kAp-66" target="5i9ivpqAXcweLOBhKeht-139" edge="1">
          <mxGeometry relative="1" as="geometry" />
        </mxCell>
        <mxCell id="5i9ivpqAXcweLOBhKeht-144" style="edgeStyle=orthogonalEdgeStyle;rounded=0;orthogonalLoop=1;jettySize=auto;html=1;entryX=0.4;entryY=0.125;entryDx=0;entryDy=0;entryPerimeter=0;" parent="1" source="SFRXXkDRhJom5mfh4kAp-66" target="5i9ivpqAXcweLOBhKeht-140" edge="1">
          <mxGeometry relative="1" as="geometry">
            <Array as="points">
              <mxPoint x="1730" y="239" />
              <mxPoint x="1830" y="239" />
            </Array>
          </mxGeometry>
        </mxCell>
        <mxCell id="SFRXXkDRhJom5mfh4kAp-66" value="Name" style="ellipse;whiteSpace=wrap;html=1;align=center;fillColor=#fff2cc;strokeColor=#d6b656;" parent="1" vertex="1">
          <mxGeometry x="1680" y="189" width="100" height="40" as="geometry" />
        </mxCell>
        <mxCell id="5i9ivpqAXcweLOBhKeht-149" style="edgeStyle=orthogonalEdgeStyle;rounded=0;orthogonalLoop=1;jettySize=auto;html=1;" parent="1" source="SFRXXkDRhJom5mfh4kAp-72" target="5i9ivpqAXcweLOBhKeht-146" edge="1">
          <mxGeometry relative="1" as="geometry">
            <Array as="points">
              <mxPoint x="2070" y="239" />
              <mxPoint x="1963" y="239" />
            </Array>
          </mxGeometry>
        </mxCell>
        <mxCell id="5i9ivpqAXcweLOBhKeht-150" style="edgeStyle=orthogonalEdgeStyle;rounded=0;orthogonalLoop=1;jettySize=auto;html=1;" parent="1" source="SFRXXkDRhJom5mfh4kAp-72" edge="1">
          <mxGeometry relative="1" as="geometry">
            <mxPoint x="2070" y="269" as="targetPoint" />
          </mxGeometry>
        </mxCell>
        <mxCell id="5i9ivpqAXcweLOBhKeht-151" style="edgeStyle=orthogonalEdgeStyle;rounded=0;orthogonalLoop=1;jettySize=auto;html=1;" parent="1" source="SFRXXkDRhJom5mfh4kAp-72" target="5i9ivpqAXcweLOBhKeht-148" edge="1">
          <mxGeometry relative="1" as="geometry">
            <Array as="points">
              <mxPoint x="2070" y="239" />
              <mxPoint x="2180" y="239" />
            </Array>
          </mxGeometry>
        </mxCell>
        <mxCell id="SFRXXkDRhJom5mfh4kAp-72" value="Address&amp;nbsp;" style="ellipse;whiteSpace=wrap;html=1;align=center;fillColor=#fff2cc;strokeColor=#d6b656;" parent="1" vertex="1">
          <mxGeometry x="2020" y="189" width="100" height="40" as="geometry" />
        </mxCell>
        <mxCell id="5i9ivpqAXcweLOBhKeht-66" style="edgeStyle=orthogonalEdgeStyle;rounded=0;orthogonalLoop=1;jettySize=auto;html=1;" parent="1" source="IJt0pZMBiccfIHnYekjX-4" target="5i9ivpqAXcweLOBhKeht-51" edge="1">
          <mxGeometry relative="1" as="geometry">
            <Array as="points">
              <mxPoint x="-290" y="-80" />
              <mxPoint x="-290" y="80" />
            </Array>
          </mxGeometry>
        </mxCell>
        <mxCell id="5i9ivpqAXcweLOBhKeht-73" style="edgeStyle=orthogonalEdgeStyle;rounded=0;orthogonalLoop=1;jettySize=auto;html=1;entryX=1;entryY=0.5;entryDx=0;entryDy=0;" parent="1" source="IJt0pZMBiccfIHnYekjX-4" target="KDzrLPc6gg60PK9FeB10-28" edge="1">
          <mxGeometry relative="1" as="geometry">
            <mxPoint x="-450" y="-80.25" as="targetPoint" />
            <Array as="points">
              <mxPoint x="-370" y="-80" />
              <mxPoint x="-370" y="-80" />
            </Array>
          </mxGeometry>
        </mxCell>
        <mxCell id="5i9ivpqAXcweLOBhKeht-74" style="edgeStyle=orthogonalEdgeStyle;rounded=0;orthogonalLoop=1;jettySize=auto;html=1;entryX=1;entryY=0.5;entryDx=0;entryDy=0;" parent="1" source="IJt0pZMBiccfIHnYekjX-4" target="IJt0pZMBiccfIHnYekjX-50" edge="1">
          <mxGeometry relative="1" as="geometry">
            <Array as="points">
              <mxPoint x="-290" y="-80" />
              <mxPoint x="-290" y="-25" />
            </Array>
          </mxGeometry>
        </mxCell>
        <mxCell id="5i9ivpqAXcweLOBhKeht-135" style="edgeStyle=orthogonalEdgeStyle;rounded=0;orthogonalLoop=1;jettySize=auto;html=1;" parent="1" source="IJt0pZMBiccfIHnYekjX-4" target="KDzrLPc6gg60PK9FeB10-27" edge="1">
          <mxGeometry relative="1" as="geometry">
            <Array as="points">
              <mxPoint x="-160" y="-145" />
              <mxPoint x="-230" y="-145" />
            </Array>
            <mxPoint x="-230" y="-180" as="targetPoint" />
          </mxGeometry>
        </mxCell>
        <mxCell id="5i9ivpqAXcweLOBhKeht-136" style="edgeStyle=orthogonalEdgeStyle;rounded=0;orthogonalLoop=1;jettySize=auto;html=1;" parent="1" source="IJt0pZMBiccfIHnYekjX-4" target="IJt0pZMBiccfIHnYekjX-41" edge="1">
          <mxGeometry relative="1" as="geometry" />
        </mxCell>
        <mxCell id="5i9ivpqAXcweLOBhKeht-137" style="edgeStyle=orthogonalEdgeStyle;rounded=0;orthogonalLoop=1;jettySize=auto;html=1;" parent="1" source="IJt0pZMBiccfIHnYekjX-4" target="IJt0pZMBiccfIHnYekjX-26" edge="1">
          <mxGeometry relative="1" as="geometry">
            <Array as="points">
              <mxPoint x="-160" y="-145" />
              <mxPoint x="-340" y="-145" />
            </Array>
          </mxGeometry>
        </mxCell>
        <mxCell id="5i9ivpqAXcweLOBhKeht-138" style="edgeStyle=orthogonalEdgeStyle;rounded=0;orthogonalLoop=1;jettySize=auto;html=1;" parent="1" source="IJt0pZMBiccfIHnYekjX-4" target="IJt0pZMBiccfIHnYekjX-24" edge="1">
          <mxGeometry relative="1" as="geometry">
            <Array as="points">
              <mxPoint x="-160" y="-145" />
              <mxPoint x="-460" y="-145" />
            </Array>
          </mxGeometry>
        </mxCell>
        <mxCell id="ILLf86DSIE8QrTmpPEF9-91" style="edgeStyle=orthogonalEdgeStyle;rounded=0;orthogonalLoop=1;jettySize=auto;html=1;exitX=0.042;exitY=0.996;exitDx=0;exitDy=0;fontColor=#FEFAE0;shape=link;exitPerimeter=0;" parent="1" source="IJt0pZMBiccfIHnYekjX-4" target="ILLf86DSIE8QrTmpPEF9-99" edge="1">
          <mxGeometry relative="1" as="geometry">
            <mxPoint x="-290" y="-1201" as="targetPoint" />
            <Array as="points">
              <mxPoint x="-270" y="-50" />
              <mxPoint x="-270" y="130" />
              <mxPoint x="-1140" y="130" />
              <mxPoint x="-1140" y="-1201" />
            </Array>
          </mxGeometry>
        </mxCell>
        <mxCell id="ILLf86DSIE8QrTmpPEF9-128" style="edgeStyle=orthogonalEdgeStyle;rounded=0;orthogonalLoop=1;jettySize=auto;html=1;exitX=0.5;exitY=1;exitDx=0;exitDy=0;fontColor=#FEFAE0;" parent="1" source="IJt0pZMBiccfIHnYekjX-4" target="ILLf86DSIE8QrTmpPEF9-129" edge="1">
          <mxGeometry relative="1" as="geometry">
            <mxPoint x="-160" y="280" as="targetPoint" />
          </mxGeometry>
        </mxCell>
        <mxCell id="IJt0pZMBiccfIHnYekjX-4" value="&lt;span style=&quot;font-size: 20px&quot;&gt;&lt;b&gt;Course&lt;/b&gt;&lt;/span&gt;" style="rounded=1;arcSize=10;whiteSpace=wrap;html=1;align=center;fillColor=#e1d5e7;strokeColor=#9673a6;" parent="1" vertex="1">
          <mxGeometry x="-270" y="-110.5" width="220" height="60.5" as="geometry" />
        </mxCell>
        <mxCell id="IJt0pZMBiccfIHnYekjX-7" style="edgeStyle=orthogonalEdgeStyle;rounded=0;orthogonalLoop=1;jettySize=auto;html=1;exitX=0.5;exitY=1;exitDx=0;exitDy=0;" parent="1" edge="1">
          <mxGeometry relative="1" as="geometry">
            <mxPoint x="-250" as="sourcePoint" />
            <mxPoint x="-250" as="targetPoint" />
          </mxGeometry>
        </mxCell>
        <mxCell id="5i9ivpqAXcweLOBhKeht-195" style="edgeStyle=orthogonalEdgeStyle;rounded=0;orthogonalLoop=1;jettySize=auto;html=1;" parent="1" source="IJt0pZMBiccfIHnYekjX-23" target="5i9ivpqAXcweLOBhKeht-193" edge="1">
          <mxGeometry relative="1" as="geometry">
            <Array as="points">
              <mxPoint x="950" y="180" />
              <mxPoint x="950" y="180" />
            </Array>
          </mxGeometry>
        </mxCell>
        <mxCell id="5i9ivpqAXcweLOBhKeht-196" style="edgeStyle=orthogonalEdgeStyle;rounded=0;orthogonalLoop=1;jettySize=auto;html=1;" parent="1" target="5i9ivpqAXcweLOBhKeht-192" edge="1">
          <mxGeometry relative="1" as="geometry">
            <mxPoint x="950" y="180" as="sourcePoint" />
          </mxGeometry>
        </mxCell>
        <mxCell id="5i9ivpqAXcweLOBhKeht-197" style="edgeStyle=orthogonalEdgeStyle;rounded=0;orthogonalLoop=1;jettySize=auto;html=1;" parent="1" source="IJt0pZMBiccfIHnYekjX-23" target="5i9ivpqAXcweLOBhKeht-190" edge="1">
          <mxGeometry relative="1" as="geometry">
            <Array as="points">
              <mxPoint x="950" y="180" />
              <mxPoint x="1045" y="180" />
            </Array>
          </mxGeometry>
        </mxCell>
        <mxCell id="IJt0pZMBiccfIHnYekjX-23" value="Name" style="ellipse;whiteSpace=wrap;html=1;align=center;fillColor=#fff2cc;strokeColor=#d6b656;" parent="1" vertex="1">
          <mxGeometry x="910" y="129" width="100" height="40" as="geometry" />
        </mxCell>
        <mxCell id="IJt0pZMBiccfIHnYekjX-24" value="Course_ID" style="ellipse;whiteSpace=wrap;html=1;align=center;fontStyle=4;fillColor=#f8cecc;strokeColor=#b85450;" parent="1" vertex="1">
          <mxGeometry x="-515" y="-220" width="100" height="40" as="geometry" />
        </mxCell>
        <mxCell id="IJt0pZMBiccfIHnYekjX-26" value="Course_Name" style="ellipse;whiteSpace=wrap;html=1;align=center;fillColor=#fff2cc;strokeColor=#d6b656;" parent="1" vertex="1">
          <mxGeometry x="-401" y="-220" width="100" height="40" as="geometry" />
        </mxCell>
        <mxCell id="IJt0pZMBiccfIHnYekjX-31" value="" style="shape=image;verticalLabelPosition=bottom;labelBackgroundColor=#ffffff;verticalAlign=top;aspect=fixed;imageAspect=0;image=data:image/png,iVBORw0KGgoAAAANSUhEUgAAALYAAAHDCAYAAACJaODCAAAgAElEQVR4Ae19CbgcVbX1EiQh3EBMiDjwHJkVRcSJX1AZhIcTQwYSJhEUJ5QZfSKKKCI4gCEJOKEPFJQnoKCSABEkoKKoQURQcUIERDCE5F5Q0P6/1Tl7c26lurq6umr3ULu+76R2nWGvc9Ze53Tl3OpqbLbZZn8E0PDkHAyDBoKewaPhhzMwLAyEyenCHpaA+jhWM+DCdiUMJQMu7KEMqw/Khe0aGEoGXNhDGVYflAvbNTCUDLiwhzKsPigXtmtgKBlwYQ9lWH1QtRL27bff3thmm230sYHdd9+9cf/99zdVIGVf/epXO1bF9ddf3/TJM4+TTz5ZMS644IImZhG/cUfoW3wk8eJ6bq9moDbCFjGIODh8CpBCp6i7EXYsJk4UTpi3v/3tjbGxsbiosF1W3wp3YAAb1kLYFBiFliW2pHjkOhCkq6XkH3fccc1JQZ9LlixprtA881raUOA//vGPx63Y0hepw8klByed5MuEk4ki+awvk5RnHsk6MnkFi31if+kj/pQS3GE8B76G+1kREaMEPC2QcR0RhAgnbWWPJ0ksNBGZlMd+iUtfUha3Y705c+Y0RdrOR9xO6soEictkHDJJkn1J42FY8lzYIZJpQZc8kpQljlhMIjQRr/jgpJKyrAnGshAUnQCxD3Y3xottlomYif/AAw80fcgqLfgyCYZFxGnjcGEHVmLxiABEzBSb2HE9ITQWl7RNE3Za26QPtqMPntN8sH6MF/eNZWnCFj/SNxe2sD7g5zjYtNOOWHSxcFg3Fk9cT/zE9UU8Iqa4vpSlCYt5srIm+xv7IGaMF9ssi9vKii19ycKXsQzLuRYrdiwGilQOiiltJY6FJGJIqyd+YnFJfRFT7Iv1YwHHZfHkEX+tfEg5z4InkyUui0VOO1lX+j+M59oIm8ETIck9rIg1LhPhUyhSb999923aFI34kHpsG4tJxNNKlCI28S2ClHbMZ7922223NVZwltGv7MIQl0fclnUkX7CkL1JPMJuNh/SfwO9w74oMaex8WBkMuLAzyPGiwWXAhT24sfOeZzDgws4gx4sGlwEX9uDGznuewYALO4McLxpcBlzYgxs773kGAy7sDHK8aHAZcGEPbuy85xkMuLAzyPGiwWVAhT116tTl4UL/lOzX/ubVQdVA0PPqP6k3//V/qmaAC4cf1TOgPKtRPWatEZxnm/Arz2rY4NYWxXm2Cb3yrIYNbm1RnGeb0CvPatjg1hbFebYJvfKshg1ubVGcZ5vQK89q2ODWFsV5tgm98qyGDW5tUZxnm9Arz2rY4NYWxXm2Cb3yrIYNbm1RnGeb0CvPatjg1hbFebYJvfKshg1ubVGcZ5vQK89q2ODWFsV5tgm98qyGDW5tUZxnm9Arz2rY4NYWxXm2Cb3yrIYNbm1RnGeb0CvPatjg1hbFebYJvfKshg1ubVGcZ5vQK89q2ODWFsV5tgm98qxGFu7Zx5639Rc+cNEtC4+5oOFpNQfkg7xk8RaV5eI5qu9mMQaUZzWy/DCI133zpsafb73HU+CAfJCXLN6islw8R/XdLMaA8qxGlh+u0i7qNSc1ecniLSrLWy9q4mYBBpRnNbKcuLDXFDUnugs7SzU9KVM9q5HVDRe2CztLH31UpnpWI6tzLmwXdpY++qhM9axGVudc2JULe0MAi1LewLQMwBZZsQllkwCcCIB+aJ8TEm0erwSwf7CH+aR6ViNrtC5sM2FTnEUOtuPEoLCTBycGJ4gLO8mMC7vnwhZxHhWt7DIJKFguUEwU8DbRir1xVJ/lp4ZractQZ02KpBT6/VoXajWyeuzC7hth8xaDtxcUc3ybEoszeSsik0JW7Liu3ALFQs+SQr+XqZ7VyOqxC9tM2IxHnETIIk4RIO+ZWY9nHrFY2wk7bhvbwdVAn1TPamQNx4VtJmwRbjIcImxZdZOC7ETYskrTV9wuiTmI16pnNbJG4cIeKmEz1BT0hSG1mkxZkujXMtWzGlk9dWEPnbBlxWf8aQ/LoXpWI2tkLmwzYTMeyUThtbsViYW6c7QrwvttueemX7lnl9uRVluEWXLo5zLVsxpZvXVhmwibYrNKmwFYErb/YswsGQxCmepZjaxeu7ArF/bBAKzSJeFTgY/cHh7hbpelgQEpUz2rkdVxF3blws6i38vyM6B6ViOrrQvbhZ2ljz4qUz2rkdU5/wbNmsL2b9BkKaZnZapnNbK64t95XPO7nv6dxyzF9KxM9axGz7pSD2Dn2SbOyrMaNri1RXGebUKvPKthg1tbFOfZJvTKsxo2uLVFcZ5tQq88q2GDW1sU59km9MqzGja4tUVxnm1CrzyrYYNbWxTn2Sb0yrMaNri1RXGebUKvPKthg1tbFOfZJvTKsxo2uLVFcZ5tQq88q2GDW1sU59km9MqzGja4tUVxnm1CrzyrYYNbWxTn2Sb0yrMaNri1RXGebUKvPKthg1tbFOfZJvTKsxo2uLVFcZ5tQq88q2GDW1sU59km9MqzGja4tUVxnm1CrzyrYYNbWxTn2Sb0yjMNT87BMGmgOYVU4TYTqrYozrNN6JVnNWxwa4viPNuEXnlWwwa3tijOs03olWc1bHBri+I824ReeVbDBre2KM6zTeiVZzVscGuL4jzbhF55VsMGt7YozrNN6JVnNWxwa4viPNuEXnlWwwa3tijOs03olWc1bHBri+I824ReeVbDBre2KM6zTeiVZzVscGuL4jzbhF55VsMGt7YozrNN6JVnNWxwa4viPNuEXnlWwwa3tijOs03olWc1bHBri+I824ReeVbDBre2KM6zTeiVZzVscGuL4jzbhF55VsMGt7YozrNN6JVnNWxwU1GeA2BXAG9day2cPHXqpAumT5983bRpI7/eYINJd4+MTHhwwoQnPrz22ms99oQn4D/8jibPvGY+y1mP9dmO7emH/oJf+u/10Q8895oDC3zlWQ0LVABbATho8uSJ50ybNrJs3XXXWbX++uuOvfCF/7V81qztVp5wwusbCxfu37jkknc1li59X+PWW09u3HXX6Y3lyz/bGB1dsEZiPstZj/XZju3ph/7ol/6JQzziEj/0w2jITRhrni3H1k9YyrMaFfVuOoD9pk4d+cb6669739Sp663aY4+tV5x66j6NxYuPbNxzz6fXEGuagLvNIw7xiEt89mN1f0a+wf4BYD+rPKrmucq+D5Jv5VmNEnu/LoADN9xw8vd52/DqV2/+4Jlnzmn86lcfMRFx3klwyy0fabBf7B/7Gfp7IAD2v+yjCp7L7uMw+FOe1ShhVFtNmrTOZ/mxv8MOmy4/99yDGw89dFZfibmV6NlP9pf9Zv85jpJvV8rkuYRQDa0L5VmNLoa65ZOeNOmr66yz9qNHHLHro7fd9tGBEHMrkbP/HAfHw3EB2LILbqRpGTyLLz+3ZkB5VqN13cySD/Nj/H3v2+M///hH+n/wWgmo3/M5Ho6L4wPAcXZzFOF5QwCLAv4rU8CZt3+Un7yOijAJAP/jzESbddmnNL9xuzSb7U8EwP7126E8q9FhD1/K7bXXvW7rFb/73SkDvUK3m2AcH8fJ8QJ4aYc8SfUiPIv42JZCio8tACyLhJ28juum2eK7iLDZF064oRP27LXXXuvRs86aO9SCTgqe4+W4AcxOU0qbvCLCFgFxlY2FFK/k9HtqtLLLJBDh0gfzuK+ftmJLubTjMJKTRHzxzE8I1mXixGLdZH+KTJY29OUuZr+ahxqS0ea838SJT/wnt86Sga/DNcfN8YctwjZUjSvulGcRC4UXC0ucJsWXvJY2bM+j1a2IlItg2a6VLxEs28hES/qlHxF8gDY9Kc9q5ID/f5ypS5YcU0tRy8Tl+MOKRT7yHp3wTJ8iTJ5jkQteUnzJ67g92yQFmCyPMdr5ioWdrCvX9N+LQ3lWo10vpk0bufXssw+otahF3OSBfLTjLCrPzXNoE4uHWclrEZD85zF5nRRuVcIWHI4vTtKviAITU3lWow3sgS95ybOXS2D9vKBBPviHqDa8SXFenllfRBoLRWwRjNRpdS2Ck5WzKmEn+yHj7dVZeVYjqyfTp09eet55h/hqHT2vct55hzbISxZvUVkunkN9ipX1RZTMllsF2a5LCip5nVfY4i/GFCx+SvDgOe5P/OmRnDD0Mzj32Pxr3J13nubCjoRNPshLCH67U15hi1DkP2exXwpKRCP16JfinBbOcr1zQoxSX4QswhfRsp2s/sQUoTNf6shEk7Ysoy0TgdeSF/fb0iZ+81BDMtLOe++97TV++7Hm04XkJY2vlLxcPKe086zOGFCe1chq7yv2mqKuaMVmGBiTQU/c7+/FoXpWI6sXfo+9prD5f46K7rGzQuFl2QyontXIrg/fFYnur3lbVuGuSJtQeHEGA6pnNTIqN4t8H/vxVdtgH7tdOLw8nQHVsxrp9cbl+l8eRxc0//Ia7oGr/MvjOOL9IjcDqmc1cjb1Z0VsnhXJGQ6vlmBA9axGokLWpT/dl8VOelkRntM9eW4WA8qzGlm1U8r8eewUUjKyivKc4dKLUhhQntVIqZQny79Bk4el1fvS+Wp6rW4YUD2r0YU3/85je/LK4Lk9itdQntUogRP/lnprEsvkuTWKlyjPapTISep7Rfgej3563oTvOfH3ipQY9f5wpXpWo6J++ZugVhNbNc8VhW/g3CrPahgNwd/dZ0R0TWFUz2r0kAh/22oPyR8yaNWzGgMwwLUATAzv1uOZ14NyDBLPg8JpWj+VZzXSanleaQw4z6VRmelIeVYjs7oXdsuA89wtg/naK89q5GvntQoy4DwXJK7DZsqzGh068OqdMeA8d8ZX0drKsxpFPXm7XAw4z7lo6rqS8qxG1y7dQRYDznMWO+WVKc80tgbwvPAGf754ZTMAmwB4LoBnA3gmgP8CsDGApwF4CoAnh99t4fssngRgAwDrAxgJ74njdtwEAE8csG258ige70kJH5/tVyUzoDzTuAUA30N3G4DbAfwWwB0A/gDgjwD+DOAvAP4K4G4A9wK4D8D9AB4AwFd9rQCwEgBfIDMG4BEA/wLAr+H/O3yViufHQj7LWW80tGN7+qE/+qV/4hCPuMRnP9gf9ov9Yz/ZX/ab/ec4bg4vlfk5gJsA/ATAjQB+BOAGAHxz0w8AXAuAv5FzNYCrACwGcAWA7wL4DoDLAHwLwCUAvgng/wDwh5guBPA1APylg/MAfAXAuQC+BOALAD4H4GwACwHMBzAPwJlh/J8G8EkApwH4BICPA/hYeMXvR8LL5flymhMAfADA+wEcD+BYAMcAOArAEQDeA+BwAO8C8A4Ah4Wf/jsUwFsAvDn8MtoB4a2wc8Krj2cBmAFgbwB7AngTgDcAeB2A/wawO4DXAtgFwE4AXgPgVQB2AMCvwW0P4OXhHeHbAXgxgBcBeGFYHJ+fWBw3TSyOz0gsjhtVsDiOE3bJk6alO/5BZW0A64Q/tPDtROsBmBxWfK78U8ObhfiJwE+GpwJ4evjE4CfHswDwL5X8ROEny+bhpzT4icNPnhcA2AbAtgBIPl/U/jIArwjBYZB2BPDqEDwGkb8xuVsILoP8egBvDMGnCPYBMDOIgyKZG96UxPf2UUQHAzgkiIsio9jeCeDdQYQUIwk/OoiUYn0fgP8JIqaYPwTgpCByiv2U8N5rTgJOhk8B+EyYJJwsZwFYECYRJ9PnAXwxTDJOtv8FcH6YhJyMXwdwUZiknKyXAvg2gMvDZP5eeDXwlWGyLwHAlwFxEeBicD2AHwL4cVgsfgrgZwB+ERaTXwL4FQC+HF8Wx98B+H1YjP4E4E4Ad4XF6h4AfwPw92hx5I9cPRQtjg8D4CubZXHkr0swyeLIMtaRxZFteyLsloqvQYESXoOxVjnEJyQWRz5JGi+OyrMaVfbGfT++kjgXlTKgelajUjh37jzbaEB5VsMGt7YozrNN6JVnNWxwa4viPNuEXnlWwwa3tijOs03olWc1bHBri+I824ReeVbDBre2KM6zTeiVZzVscGuL4jzbhF55VsMGdzzKklmzNl40c88dr5ix1wFXzNj7/Vftt+/nlhy03/eWHLTfTVcfMPf3V+03+76r5s58aPHsGY8snrX3Y4tn7vWfRTP3avDcvJ494xGWsx7rsx3b0w/90S/9E2c8svlVT3k2H23vAJVnNaruy+JZe223aMbeb7t6v32/uOTAucuunDNz5VVzZz183dvfuvym/zluxa2fOu1fv//82Y2/fO38xr3furjxwOIrGit+cE1j1Y9uaDx8008aj/z8pjUS81nOeqzPdmxPP/RHv/RPHOIRl/jsB/tT9Zgj/2Y8R5h1NJVnNcpm4coZb3rJFTP2Pm7JgXOvu3LfmWPXvuXAFT878QMr7/jcwsa937qkseqH168h1DTxlpVHPOISn/1gf9gv9o/9ZH/L5iDyVxnPEYabVT0rcsXMvV5z1dzZC67ef997vn/wAQ/dfMrJY3d9/WuNVT+yFXHeycB+sX/sJ/vLfrP/HEfJKnFhl0xoC3fKsxotKrbNXrTPPk9bNHPP9y05YO6frj3kzSt+M++MxgNXLjJdjfMKuV099pv95zg4Ho6L42tLQvsKXfPcHsJrlPJ035UzZmx25f6zz+F/4pad9MGV913+rYEUcyuxczwcF8fHcXK8XUjHhd0FeR00VZ7VyNt48YG7jVy57z6ncXfi1k+d9ujKG5YOlaCTQuf4OE6Ol+Pm+PNyFdXrmOeorZv5GVCe1cjTdtHMvfe8av85dy876cSVDy39wVALOilwjpfjvnr/OXeThzx8RXU64jlq52ZnDCjParRrv2jW3h+66oB9R/960YW1EnRS4Bw/eSAf7TiLynPzHLVxs3MGlGc1snxcud/sL1z/nncuH/bbjqSIW12TB/JBXrJ4i8py8RzVF5Nfrl4W/lNEH5JeKRUSZ37d7pyQaNftUJ7VaMXA4tn7fPyHR7x7easg1zmfvJCfVtxF+W15jurGpgh7/5Apwl0Uvhsa13U77z724pl7v2HJgXNXjv7ohq5uP64590uNF26+eeOXl148zs+H3vmOxldO+Wgzj2dep00Utn/rjH0ay390Q7OOtEmrm5ZH3Nm779a4+5olqf7T2uTJIy/khzy1UVVZwiYMV2v641lsfiGYeScnVmxOCK74/JIxy5loc1WnHU8QmURSTyaT5J8efPHLwvzSLzHloB37knzrM/vePNSQjPi85KC5v+KfqPMEuVUdivHoNx/UTElB5hV27DtuE+dn2VUJm5jkhzzFvKXYmTyn1JcsEZWIjPki5qSwWSYrOoVLm+2IzbOU8ZptxTdFKWXM58E8TgjWkXriU8pFyBsGUcdCX+3F/l/lWY1kHxbP2PPl177loBVZgslTRlFR2DdeeMG4VZMil1XkhMPepjaFyxV61+1f0VzluVIv+tzZ41bs0485uvHa7bdvtpFVnhOIddmW/eLqzFX6uvO+onXZhvlSV/ClTZ7xpNUhT+QryWF03ZLnqE6aKaISYYsARVSxyNleykWEbCcCZXm8sqYJUvDYX2knedIH+olxYzttDJZ5yrMaSfQrZuz53mUf+8hYWiA7yaOAZaUW0Ur7ePVlHREphRbfuvA6vhWRMoqUYmW5iFVEKsLmxEqu2MRphSV96+RMnshXksPouiXPUZ00U0TF9pJEcKyfFFVRYYvIxXc8IaQPsbClPvPiyZI2Bss85VmNJPr39tnnld3+NVFuQygsCoWiE0HxmraIPilsWV2lXSzs2Ie0yyvseDLQd7Id8zpN5Ok7M/fk25JaHS15btUg5KeJKm5SlrCTftoJm32goPkyHqZ+uA1hn5RnNWK2aJexYlPQXF2j1aa5wlJcFE+WsEXIrJdcsWUysKyosOM+0Y59dipsgxU7Xi3jUCUFWXTFjieQrMayesdladiML/vRD4fqWY1kr8q4x6Zw49U1Keaiwo59CkZy5eWk4n06z0yyKxLfonQq4Fb1De+xk2EqS9j0y1VXFiG+Ek0E20rYMgHkfj/Zt15cq57VSOtFN7siyY98EQVXRlmNiwpbblNiDBG2iJ44ci8eC1sml9RjGevJvbn0M++54l2RtLD0S54Iu19uQ8iL6lmNNLa62cemUESAsUhiIVF8chvA+rQpuPjWg23ja5bHuyLxLYT4ph/W4SrNPJkA0h+ZBIGIwrchFe9j8wWYTU767EypyOoer9bsK/vcy4N9aB5qSEby7H95bP2fSYO/PCbD4dfZDKie1ciqX+RZkU2e8Qz6Hpj0/E02yb0bYvisSFZYvGxNBlTPaqxZZ3yOP923euX2p/vG66LPrlTPauTpoD+PfeJKPo/ep89jp/1nTnY04nvhPKEe1DqqZzXyjsS/QdO336BJCltELfvReUM8yPVUz2p0Ohr/zmNHjBXmuQOUWNhip4maf+xhf5haPVMik6LVH4Y66JZpVeVZjaLw/i31XMx1zXMOFBEzHy+lYImZ/Itg/Acdqc+tu6SQ4z+p54DumyrKsxpldM3fK9KSxVJ5boEiQiWWJFmRpQlFHN9v85p1+LOGPDPRj9j8E/0gHcqzGmX33t8ENY7RyniOUGJhc2WWWw65nZDnSET0chahsx5ttuUtjLSLIPreVJ7VqLrL/u6+qhlurrQUJldhHiL0+D47uWKHqs2T3I6wTtwmrtPvtupZjV702N+2WirrImQRNp3LPbXkyTXPyfrxis5bkUG7DeF4Vc9qlEpxBc4umjVr7e/tscfEaw5+zbo887oCmKpcWvCcFCrHEouVYuYhtyjsU1LAUjaItyEcm/Ksxuox+78VMTAoPFPQg3ob4sKuSLxZbi2ETYyiSe6v2V5Wa/GVNa5+K2Ofm4cakuHnShhwniuhdQ2nyrMaa1TxjDIZcJ7LZLO1L+VZjdZ1vaQEBpznEkjM4UJ5ViNHI69SnAHnuTh3nbRUntXopLXX7ZgB57ljygo1UJ7VKOTGG+VlwHnOy1R39ZRnNbrz563bMOA8tyGopGLlWY2SHLubdAac53Reys5VntUoG8H9jWPAeR5HR2UXyrMalUG5YzLgPNvoQHmmcXZIfCDmcyF9HgATf4riiyF9CQDTuSF9GQATXwT+vyGdB4DpfABfDelrAJguCIkvMeQrtJi+EdJFAJj+D8A3Q7oYANMlAC4N6VsAmL4d0mUALg/pOwCYvhvS9/gKwpD4OCfT4vDScr64/KqQrgawJKTvA2C6JqRrAfwgpOsAMC0N6XoAN4T0QwBMPwLw45BuBMD0kyDsnwK4KaSfAWD6OYBfhMRnNJhuBvDLkG4BwMT3bzPdCuDXId0GgOl2AL8J6bcAmH4H4I6Qfg+A6Q8h/RHAn0L6MwCmO0P6C4C7QvorAKa7AdwT0r0AmP4G4L6Q/g6A6f6QHgDwj5CWA2B6EMCKkB4CwLQSwKqQRgEwjYX0MIBHQvonAKZ/AXg0pMcAMP0bwH9CopbHCfsdAN4eEt92z/Q2AG8N6VAATIeE9BYAB4f0ZgBMB4V0IIADQuIzB0z7AZgbEt8UxLRvSLMBzAppJgCmGQD2CWlvAEx7hcRf63pTSG8EwMRfE2B6PYDXhbQHAKb/BrB7SLsBYHptSLsC2CWknQEw7RQSf5n31SG9CgDTjiHtEB4H5dNyfMMq0/YAXhES35PN9LKQXhoI509a8/fbmV4MYNuQXgSAaZuQXgjgBSFtDYDp+SE9D8BWIW0JgInPeTBtDoC/Rcm0aUibAHhuSM8BwPTskJ4F4JkhPQMA03+FtDGAp4fEH3BleiqAp4S0EQCmJ4c0PTwGyycM+W0cpqkAnhTSFABMG4S0PoDJIfHnBZnWC4lPJK4b0kQATBNCWgfAE0Pi051MawF4QkjjhG3zIVFvFCW83jRUPnrlWY3KIesN4DzbxF95VsMGt7YozrNN6JVnNWxwa4viPNuEXnlWwwa3tijOs03olWc1bHBri+I824ReeVbDBre2KM6zTeiVZzVscGuL4jzbhF55VsMGt7YozrNN6JVnNWxwa4viPNuEXnlWwwa3tijOs03olWc1bHBri+I824ReeVbDBre2KM6zTeiVZzVscLtG4ZNcg3gMGs+DyDH7rDyr0aOR8PFOPj56UKNx3shDD5215fOe9/SL1l9/0l/XW2/CijlzXvat0dEFJ4yOLvjwdts965YnP3ny39dZZ+1/nnTSm84YG1s4a+XKBTtNmzby3QkT1uHz3+8Mj572aCiZsL3mObNzQ1SoPKthNDg+m4zR0XnbvvSlz75m8uR1x1784mcuP+qoXVeOji5oMF1xxRGNn/70hMZtt53cuPfeTzfzmL9q1YLGypXzG3/722cad9zxcc3/8pff0jjggFcwjX772+/+2ejogrNGR+e/daONNpB3RfM56l4f1jz3ery9wlee1aiwJ/tvsMGkGyZMeOLD733vLr9etWrBCgr11ltPVnGKqMs8n3/+oY03vOGFj2666UYPHnfc7l/ip0EYYy/e+2zBc4UhHBjXyrMaJXf9tY88Mm+T0dH5Hzj++N3/es45BzSWLftwpULOmhTRyv/z5zznyX/YYIN1+XUwfrPG6qiKZ6v+DwqO8qxGST0/bMqUSX/eccfN7s4SWi/L7rzz9Mbs2S9pbLrpRssvueSd/JqbxVE2zxZ9HkQM5VmNbkdx2WWHv2vHHTdbfuqpe/dsZS42YRbeeOaZ+74/fIezWxpatS+N51YAnt9kQHlWoyAxr/j0p2ccsGrV/GuKiWr1fxh73fayyw5v8D+xU6asx2+Ac6em7KNbnsvuz7D6U57VKDDSz6233oSH582bO2ArdOvJdNZZcxtf+9phfFVE2Uc3PJfdl2H2pzyr0clo99xz2/e+5jVbPLhs2YeGRtTxp8aqVQt+9uCDn+VrEvgKgTKOQjyXAVwzH8qzGnkJGBtbsM/Y2MJ/xkIYRvvoo3d7bMqUSXyBDN+V0u3RMc8BUH4JjO3jJL8T02m/5LdmirZPw6OvfvlBJhLqkCcAABimSURBVOVZjbQeJ/K23HXXrS4eRhG3GhP/8DN58rp8wxFfQtPN0QnPMY4IW36nkWXyW41lijPG7NQeaGFPf8pTNrj1U5+aNZS3Hq2EzfzTT5/ZGBubz7dRdXOUKWz2g0LnX1YpfB4UFzGY5Lcb5Tce+Uo5Jq6qfDMWz6wvE0R+/zG5mks5fcZYxCM+8+nr9IFdsadNG7niqKNe+68sAQx52ejKlefw9WJFD4qgyJG2YtNPvEqKAHmO64uw49uEWLxSl76SPuN64kcmjOCxnZTFGMFdT07KsxpZ3Vi1av6SIRdu20+iE054PV/8yHccFjly8ZziWMQX34qwWizs5OrNa4qQ78/jWQTJdrFgeS11iRPXjf0LnqzaSbxkXdbv1aE8q9GqJ6OjCw+ru6g5/uuuO74xffpk/meSL5Ts9GjLcwuH7YTNF1lSkPQfJ4qQL5aMxUqIpLC5+nK15cs+eaZIeVC8sT/asioPhbCP+uxn59zrwl699z1r1nZ8Fe7RIfidnCiMIkcrYcfiiu0YQ24TslZs8c9XOotw6SNrFSZe3rpxfyxs5VmNNNSRkYn3XH310W0/ptOEf//9ZzYOPXSHxoknvmFce+59z5q1XeMvfzm9mWin7YdL+6uvPqZZLm3SsFrlEfvccw8eh9+qbp58PlJ7//2f4iuNOz0yec5wJsKjmORIW3Xpv9U9dpaw6ZO+2b5VveQEGfh77M2nT1//oTwBT6tDQVLYTBSx1MkrbKnPc9wmzm9nly3s1Xjz+XL8To9uhc32cZJbBukHr6VcBJoUJOsmJwXzYqGKvziffuX+WsoFjyv3wO2KvOCMM/a9s514WpVTVBR3LC4KfNddn9cMwM47b9X8ggAD8oIXbNy48cYPNCfBzJnbNcu/+90jmtfxiv2JT8xolrG+rPIygbjCsy9coQVTgi2rNutKHiectGk1hhb5/MUBvsS8k4O4flTPgPKsRhrm6OiCVS2CqytwWjkFLCs1BXjkkbuqiOLVl/XkVkRuPShK+pRrETbFLGUUqgizlbDpQwROm7i77LJV8yy+xV/aGFrlHXnkrvzJiA+m8ZWRl8lzi3Z8cz/bDVJqMRSzbOVZjSR0o9F4Qqvgtsun2EQ0FBGFLStsO2HL6iriE2GLKIkdT4i8wo4nA30k27Ubk5RzXACOT/LV5rolz23aeXFnDCjPaqS0P/69792l0B9lQvDpW5MItp2wKTiKKCns+D+PRYUd94c2b4voS0Sb53z44TtxxY7/M5dC3RpZWTyvUdkzCjOgPKuR4uqYF7/4mR3fisQf+SKUWMyxHQs0FnKasOMVO8ZIrrycVPJpwbNMKJ4lX/pV5Lz99pvw167OTOErKyuL56x2XtYZA8qzGintt95ww8n67fG8Ikh+5LMdBczVkSIsKmzeY8cije+x5T+TgiMCjoUdTwb2iWXiI+/YWO+II3bmz+Dxl7g6ObJ4buVHtvrYljsXyYN58e5I8jqun9whkZ2QNL9xuzSbvviJxf7126E8q5HWw2OP3Y3v9Mj9US2rrggwbitC+u1vT2mKnEL/3e9OaYqLwpRdkaxbEdkVSd5C0LfcWrAOr4nNfjBf+kPfcjuS9BH3Nds+iz/H1+mRyXMLZyI+tk3e+iS37ZLXLVxqtvguImz2Jbn9p457bCjParTq0NjYgt9mBzq/8AfdD7loxVOb/LY8p7QXAXFfOhZSvJLT76mhnDYT24lwaTPv5MSf15Pl0o7dSE4Sqcuz7F+zvvz1Mdkf1uvVwX41DzUkI3nmsyJLlqz+D92gC7Ob/vNZkac9bQp/4ZbbcJ0ebXlOOBSxxCKNBZMUX/JaxMj2PFrdiki5CJbtWvkSfLaRiZb0Sz8i+ABtelKe1ciAf/t22z3rH92IYhjabrbZRvyZ5JMyeMoqysNz3F6EyXMscqmTFF/yOm7PNkkBJstjjHa+YmEn68o1/ffiUJ7VyOrFyMiEn/MPE8Mg0CJjOPXUGf+cNm2Ev8Ne9MjFc+Q8Fg+zk9ciIPnPY/I6KdyqhC04HF+cpF/RkExM5VmNNrBT9txzm7OLiGIY2oRv0PD3v4seeXmmfxFpLBSxRTBSp9W1CE5WzqqEnexHUX7Kaqc8q5HH86pVCw4aBqHmHQO/FsYx5+GmTZ1OeKZYWV9ESddyqyAPOCUFlbzOK2zxF2MKFj8lePAc9yf+9EhOGPoZmHvsML7Vp7e97VWfOPbY3R/LK45BrbfTTlv8e8qUSXcC2HwcAcUu8gpbhCL/OYvRKCgRjdSjX4pTvi0j1zsnxCj1RcgifBEt28nqT0wROvOljkw0acsy2jIReC15cb8tbeI3DzUkI8d56vrrT7x55523Wn777R/Lvcc9SALfY48X/GPatPX4h5jma49zcNKuShGe2/n08jUZUJ7VWLNO25wPLV8+74xBEmyevo6NLfx0iS/KERI74Zl1Bz09KgM3PivPahTtwMMPz3/Vtdce+5PLL3/PwK7efK3Ei170zOW33HLSbkV5aNOua57b+Pfi1Qwoz2p0ycybJ0+e+LdXvWqz5Zde+q6BEvgOO2y6fPLkifcBOKRLDrKal8VzFoaXrf6ka/JQNuGHnn/+oW8dHV34bX7s33nnaX0n8rvu+mTjk5/ki3+afXwjgD0MFFE2zwZdHkgI5VmNsocxb96sl6211hP+ve22z1y5cOH+jTvuOKWnIueDUDvttMWDG2889S9Tp653adnjbeOvMp7b4NatWHlWoyIGRvhnaP6y16pVC44YHV1wGX+Dhr8Pc/31x1cm9Ntu+2jjYx/bq/GOd7yaL88k5hEXX/wu7nBwG+tZFY01y23VPGdh16lMeVbDcPRbTp8++ZqNN37Sb0ZGJo6Fl8Y3f9qDvwB25plzGjfd9MHGffd9pil8/lKY7GasWDFPbdZZvPjIxgc/+PrGRz+6J/Pvpq8LLzzsopGRCcunTJl0EwD+UkE/HL3guR/Gbd0H5VkN6x4EvKcK7iGHvPbpXNmnT5/8C76+l08Vjo0tPPrmmz98ynOf++Q/rrfehFVPfeoGdzOPZR//+D4fmDZt5OaRkYk/nzRpnTPED4CJkd0vZq957hcequ6H8qxG1Ygl+F+7BB+9cjFIPPeKozJwlWc1yvDqPloy4Dy3pKbUAuVZjVLdu7MkA85zkpFqrpVnNarBca+BAefZRgrKsxo2uLVFcZ5tQq88q2GDW1sU59km9MqzGja4tUVxnm1CrzyrYYNbWxTn2Sb0yrMaNri1RXGebUKvPKthg1tbFOfZJvTKsxo2uLVFcZ5tQq88q2GDW1sU59km9MqzGja4tUVxnm1CrzyrYYNbWxTn2Sb0yrMaNri1RXGebUKvPKthg1tbFOfZJvTKsxo2uLVFcZ5tQq88q2GDW1sU59km9MqzGja4tUVxnm1CrzzT8OQcDJMGmlNIFW4zoWqL4jzbhF55VsMGt7YozrNN6JVnNWxwa4viPNuEXnlWwwa3tijOs03olWc1bHBri+I824ReeVbDBre2KM6zTeiVZzVscGuL4jzbhF55VsMGt7YozrNN6JVnNWxwa4viPNuEXnlWwwa3HJSTTrp1wjHzly5lol2O10q9DCTPlTJSjXPlWY1qcMr3+s4zrn7usfOvv+3z37n9ESbazCsfqVSPA8dzqaO3c6Y8q2GHXRzpPZ+5dsej5133j69f86fGb+99rJloM49lxT1X3nKgeK6cjeoAlGc1qsMqx/N7zrh27uGfuabxnRvvUVGLuJnHMtYpB610LwPDc+kjt3WoPKthi98Z2rs/8/3jjp2/dNW1v3xgDVGLuFnGOqzbmXeT2gPBswkT1YIoz2pUi1fc+5Hzlp7zoS/9ZPlP71jVUtQibtZhXbYpjlhJy77nuZJR2ztVntWw70M2Inc7jl2w9KpPfn3Zg7fd/WhbUYu4WZdt2LaPdkz6lufsKAxcqfKsRj8NobnzsWD1zocIttNzc8dkQd/smPQlz/0U85L6ojyrUZLjrt1wd+OoxM5Hp6KW+n20Y9J3PHcdqP50oDyr0Q/9zNr5ELF2eu6THZO+4rkfYl1RH5RnNSoCyu02z85Hp6KW+n2wY9I3POcOyGBWVJ7V6OU4jpz3g9w7HyLWTs893jHpC557GWMjbOVZDSPgcTCP73zc3NHOR6eilvo93DHpKc/jSB/uC+VZDevx6jMfl9/+iAjP6tyDZ0x6xrN1XHuMpzyrYdmhtGc+rEQtONwx4e6L0TMmPeHZMqZ9gqU8q2HVsSp2PkSsnZ4Nd0zMebaKZ5/hKM9qWHSwyp2PTkUt9Y12TEx5tohln2Ioz2pU3VGLnQ8Ra6dngx0TM56rjmOf+1ee1aiqw9Y7H52KWupXvGNSOc9VxW/A/CrPalQxAN35+I79zocIttNzRc+YVMpzFbEbUJ/KsxplD6Qfdj46FbXUr+AZk8p4LjtuA+5PeVajzAH1086HiLXTc8k7JpXwXGbMhsSX8qxGWQPrx52PTkUt9UvcMSmd57LiNWR+lGc1yhhgP+98iFg7PZe0Y1Iqz2XEakh9KM9qdDPQQdn56FTUUr+EHZNSeO4mRjVpqzyrUXTguvPRg2c+RHhW5y6eMema56LxqVk75VmNIgSU+W0XK3F2i1NwxySN5w0BLEr5DSDmsSzrmASAX1hmop11sPzE4LOTdlk+s8q2ALAMwP4plarGV57VSOlEZtYw7HwUFXmBHZM0nkXYFJ0caXlSFp87EQj955kssf9u7Cxhd+M3T1vlWY08raTOMO18FBV3hzsmaTyniThNsFz52J5JVui0ehSw1BMhx225im6TstKLEKXtK0OcJf+o6JMlnoRS3qrd6WHlZrm0S/abWFIufqSuyK2TM300DzUko915GHc+ior78R2TH7R7j0kaz2nCTuZJ4HmOy9IEIqIXwYlAeBahJ9tJXblt4JkTgPlSJn7jsqSfGKOTdjI+6atMROYXOZRnNfJ4ef/nl+563MIb/vWru/6V+z0fRUUzKO3IBTkhNxkcpvEsQmVZnCTIdBcLRq4ptGkpK6+Uiy/xE/tICjIWK9tLn9hGBCp+RIQ8ix9iifDZnkeedtIm9sm2Mf5qb539y/40DzUko93ZV+zVL8PkxCt5xaaAGA+KjUcsHuZL4uq7cULYstLRR1IczGu1YsdlxIzbikClP0kRyrX0S8Sa1U7GJHXFB89J/JDV0Yl9aR5qSEaes99jP9ao4B5bRCW3AgxFUngSnlggydVb/LAtj9hH3I52nhW7lbCDe50M1BLrDq6wOSLfFeno7a5pC0hSgKSVwmBdEWW8osX1kwKNxZv0EZcl2yVFyLYysZJlrfrCfsdlWe2S+NJOVnDpO/OLHMqzGkW8DPITfEXv4Qt+VzKN51ioQr8EnvUluBJs5okApJ5ci5hYh8JcHNUV8bBs58QtDHGTbXkd5xOfh/iRfsXt6Fsmo+SntUv2W3weFu2gSLsA29GJ/WgeakhGp2f9y+MAPXNdVNSfv7zwLyh0zXOncRmQ+iJsmSzddlt5VqMbj48/K9LZm1GLCsy63epnRW7u5g2uaTwzr86JkouFneSiiCSVZzWKeEm26eRd1tbiLIrXwc5Hko74ulSeY8duj2NAeVZjXHEXF8O0Y9LhzkcWa6XznAVW4zLlWY0yyRiGHZMCz4NkUVgJz1mANS1TntUom4hB3jEp+ARfFoWV8ZwFWsMy5VmNKkho7ph0+csERe+Ni7br4pnrLAor5TkLuGZlyrMaVREwKDsmJex8ZFFYOc9Z4DUqU57VqHrw/bxjUtLORxaFZjxndaIGZcqzGhaD7scdkxJ3PrIoNOU5qyNDXqY8q2E14H7aMSl55yOLQnOeszozxGXKsxqWg+2H70pWsPORRWFPeM7q0JCWKc9qWA+0l8+YdPHMR1GaesZz0Q4PaDvlWY1eDMR6x6TinY8sCnvKc1bHhqxMeVajlwO02DEx2PnIorAveM7q4JCUKc9q9HpgVe6YGO18ZFHYNzxndXIIypRnNfphUFXsmBjufGRR2Fc8Z3V0wMuUZzX6ZUBlPmNS8NsuVVDRdzxXMcg+8Kk8q9EHndIulPGMSUW/TKB97NDoS547HMMgVFee1ei3XhfdMSnhzahVUNG3PFcx2B76VJ7V6GFnMqE72TF5fOdjKb/k2k9H3/PcT2R10RflWY0unFXeNM+OSR/sfGTxMBA8Zw1gQMqUZzX6veNZOyZ9svORReHA8Jw1iAEoU57VGIBOI23HxPiZj6I0DRTPRQfZB+2UZzX6oFO5uhA/Y1LRt11y9aPDSgPHc4fj65fqyrMa/dKzPP3gjskx85cuZaKdp02P6wwkzz3mrAi88qxGES/eJjcDznNuqrqqqDyr0ZU7b9yOAee5HUPllCvPapTj1720YMB5bkFMydnKsxolA7i78Qw4z+P5qOpKeVajKiT322TAebYRgvKshg1ubVGcZ5vQK89q2ODWFsV5tgm98qyGDW5tUZxnm9Arz2rY4NYWxXm2Cb3yTMOTczBMGmhOIVW4zYSqLYrzbBN65VkNG9zaojjPNqFXntWwwa0tivNsE3rlWQ0b3NqiOM82oVee1bDBrS2K82wTeuVZDRvc2qI4zzahV57VsMGtLYrzbBN65VkNG9zaojjPNqFXntWwwa0tivNsE3rlWQ0b3NqiOM82oVee1bDBrS2K82wTeuVZDRvc2qI4zzahV57VsMGtLYrzbBN65VkNG9zaojjPNqFXntWwwa0tivNsE3rlWQ0b3NqiOM82oVee1bDBrS2K82wTeuVZDRvc2qI4zzahV57VsMGtLYrzbBN65VkNG9zaojjPNqFXntWwwa0tivNsE3rlWQ0b3NqiOM82oVee1bDBrS2K82wTeuVZDRvc2qI4zzahV57VsMGtLYrzbBN65VkNG9zaopTF8xYAlqW8veuVBZmlv6NCW/G9fxtfeeu1cVNJsfKsRiUw7lQYKIvnpKgmAeCvEC8CsKGA5TyzPtudmLO+VEv2QfL74aw8q9EPvRriPpTFc5qouFrTv6zaFCqvmUTwMgEuBMD0SwBfj+pxcmwTPg1kxRYs8ZXMl+t+Chv72jzUkAw/V8JAWTyL2GJRxcKmTZFSyFKXQhdh8zaG+TySK7bUp2+pH08WaRvXC6765qQ8q9Fl1+inTqlTusriOSkqEaCszNKveNWOhS2iZ70sYYsfwWP/aylsIcLP6QyULex4ERHBEZmrLcso5li4MgHyClvaim/6FVvEHn9qpI/aPld5VsO+D7VCLIvnLFElxSviLLJix7c3DJQLu1ZyzT9YC2GzNxSx3JbEq3dS9KwbC5/X8aSJbannK3b+eNemppWwRZDEoxAXh/9MTgvn+FaE5HMisC4nw8sTuyJSxnLZQeFKLhh+K1Ib+bYeaFnCbo3gJWRAeVbDeamUgTJ4ntOHO08zK2Wtc+fKsxqd+/AWHTDgPHdAVhdVlWc1unDmTdsz4Dy356iMGsqzGmV4dR8tGXCeW1JTaoHyrEap7t1ZkgHnOclINdfKsxrV4LjXwIDzbCMF5VkNG9zaojjPNqFXntWwwa0tivNsE3rlWQ0b3NqiOM82oVee1bDBrS2K82wTeuVZDRvc2qI4zzahV57VsMGtLYrzbBN65VkNG9zaojjPNqFXntWwwa0tivNsE3rlmYYn52CYNNCcQqpwmwlVWxTn2Sb0yrMaNri1RXGebUKvPKthg1tbFOfZJvTKsxo2uLVFcZ5tQq88q2GDW1sU59km9MqzGja4tUVxnm1CrzyrYYNbWxTn2Sb0yrMaNri1RXGebUKvPKthg1tbFOfZJvTKsxoFcE+q2V8tOd6iRzc8F8WsYzvlWY06smA4ZufZhmzlWQ0b3NqiOM82oVee1bDBrS2K82wTeuVZDRvc2qI4zzahV57VsMGtLYrzbBN65VkNG9zaoljxLO+uJl6c8rzLOn5pfPIXDQYlcMqzGoPS8wHtpxXPIuw8Qk5S6cJOMuLXbRnoB2Enf65DfoKDgubhwg5E+Ck/Ay7s/Fx1U1N5VqOAN7Yd5tTNXxqTdHbDc9JX1rXcisRxkR9b8hU7izkvK8SAtbDT7rFd2IVC542yGHBhZ7FTXpnyrEZ5vt1TCgNWPMutSNqKzW6l/QfR//OYEjDPysdAvwhbhM/+8Dcfef/tws4XQ6+VwoCVsFOga5WlPKtRq+HbD9aC5y0r2qXa2p6uwojKsxqFXXnDPAw4z3lY6r6O8qxG9z7dQwYDznMGOSUWKc9qlOjcXa3JgPO8JidV5CjPalSB4j6VAedZqajUUJ7VqBTOnTvPNhpQntWwwa0tivNsE3rlWQ0b3NqiOM82oVee1bDBrS2K82wTeuVZDRvc2qI4zzahV57VsMGtLYrzbBN65VkNG9zaojjPNqFXntWwwa0tivNsE3rlWQ0b3NqiOM82oVeer6noiTACeHIOrDVAPeP/A8BJnqJl16xIAAAAAElFTkSuQmCC;" parent="1" vertex="1">
          <mxGeometry x="-2340" y="-2189.88" width="500.35" height="1239.88" as="geometry" />
        </mxCell>
        <mxCell id="IJt0pZMBiccfIHnYekjX-41" value="finish-Date" style="ellipse;whiteSpace=wrap;html=1;align=center;fillColor=#fff2cc;strokeColor=#d6b656;" parent="1" vertex="1">
          <mxGeometry x="-176" y="-220" width="100" height="40" as="geometry" />
        </mxCell>
        <mxCell id="IJt0pZMBiccfIHnYekjX-50" value="Course_Price" style="ellipse;whiteSpace=wrap;html=1;align=center;fillColor=#fff2cc;strokeColor=#d6b656;" parent="1" vertex="1">
          <mxGeometry x="-430" y="-45" width="110" height="40" as="geometry" />
        </mxCell>
        <mxCell id="5i9ivpqAXcweLOBhKeht-205" style="edgeStyle=orthogonalEdgeStyle;rounded=0;orthogonalLoop=1;jettySize=auto;html=1;entryX=0.5;entryY=0;entryDx=0;entryDy=0;" parent="1" source="IJt0pZMBiccfIHnYekjX-63" target="IJt0pZMBiccfIHnYekjX-65" edge="1">
          <mxGeometry relative="1" as="geometry">
            <Array as="points">
              <mxPoint x="1180" y="60" />
              <mxPoint x="850" y="60" />
            </Array>
          </mxGeometry>
        </mxCell>
        <mxCell id="5i9ivpqAXcweLOBhKeht-206" style="edgeStyle=orthogonalEdgeStyle;rounded=0;orthogonalLoop=1;jettySize=auto;html=1;entryX=0.363;entryY=0.067;entryDx=0;entryDy=0;entryPerimeter=0;" parent="1" source="IJt0pZMBiccfIHnYekjX-63" target="IJt0pZMBiccfIHnYekjX-23" edge="1">
          <mxGeometry relative="1" as="geometry">
            <Array as="points">
              <mxPoint x="1180" y="60" />
              <mxPoint x="946" y="60" />
            </Array>
          </mxGeometry>
        </mxCell>
        <mxCell id="5i9ivpqAXcweLOBhKeht-207" style="edgeStyle=orthogonalEdgeStyle;rounded=0;orthogonalLoop=1;jettySize=auto;html=1;entryX=0.5;entryY=0;entryDx=0;entryDy=0;" parent="1" source="IJt0pZMBiccfIHnYekjX-63" target="IJt0pZMBiccfIHnYekjX-282" edge="1">
          <mxGeometry relative="1" as="geometry">
            <Array as="points">
              <mxPoint x="1180" y="60" />
              <mxPoint x="1070" y="60" />
            </Array>
          </mxGeometry>
        </mxCell>
        <mxCell id="5i9ivpqAXcweLOBhKeht-208" style="edgeStyle=orthogonalEdgeStyle;rounded=0;orthogonalLoop=1;jettySize=auto;html=1;entryX=0.5;entryY=0;entryDx=0;entryDy=0;" parent="1" source="IJt0pZMBiccfIHnYekjX-63" target="14bf4rCieV7-VyyaQFDR-10" edge="1">
          <mxGeometry relative="1" as="geometry">
            <mxPoint x="1180" y="129" as="targetPoint" />
          </mxGeometry>
        </mxCell>
        <mxCell id="5i9ivpqAXcweLOBhKeht-209" style="edgeStyle=orthogonalEdgeStyle;rounded=0;orthogonalLoop=1;jettySize=auto;html=1;entryX=0.5;entryY=0;entryDx=0;entryDy=0;" parent="1" source="IJt0pZMBiccfIHnYekjX-63" target="5i9ivpqAXcweLOBhKeht-191" edge="1">
          <mxGeometry relative="1" as="geometry">
            <Array as="points">
              <mxPoint x="1180" y="60" />
              <mxPoint x="1290" y="60" />
            </Array>
          </mxGeometry>
        </mxCell>
        <mxCell id="5i9ivpqAXcweLOBhKeht-210" style="edgeStyle=orthogonalEdgeStyle;rounded=0;orthogonalLoop=1;jettySize=auto;html=1;" parent="1" source="IJt0pZMBiccfIHnYekjX-63" target="IJt0pZMBiccfIHnYekjX-284" edge="1">
          <mxGeometry relative="1" as="geometry">
            <Array as="points">
              <mxPoint x="1180" y="60" />
              <mxPoint x="1400" y="60" />
            </Array>
          </mxGeometry>
        </mxCell>
        <mxCell id="5i9ivpqAXcweLOBhKeht-231" style="edgeStyle=orthogonalEdgeStyle;rounded=0;orthogonalLoop=1;jettySize=auto;html=1;entryX=0;entryY=0.5;entryDx=0;entryDy=0;" parent="1" target="5i9ivpqAXcweLOBhKeht-229" edge="1">
          <mxGeometry relative="1" as="geometry">
            <Array as="points">
              <mxPoint x="1318" y="-54" />
              <mxPoint x="1318" y="-349" />
            </Array>
            <mxPoint x="1290" y="-54" as="sourcePoint" />
          </mxGeometry>
        </mxCell>
        <mxCell id="5i9ivpqAXcweLOBhKeht-232" style="edgeStyle=orthogonalEdgeStyle;rounded=0;orthogonalLoop=1;jettySize=auto;html=1;entryX=0;entryY=0.5;entryDx=0;entryDy=0;" parent="1" target="5i9ivpqAXcweLOBhKeht-230" edge="1">
          <mxGeometry relative="1" as="geometry">
            <Array as="points">
              <mxPoint x="1318" y="-54" />
              <mxPoint x="1318" y="-304" />
            </Array>
            <mxPoint x="1290" y="-54" as="sourcePoint" />
          </mxGeometry>
        </mxCell>
        <mxCell id="5i9ivpqAXcweLOBhKeht-233" style="edgeStyle=orthogonalEdgeStyle;rounded=0;orthogonalLoop=1;jettySize=auto;html=1;entryX=0;entryY=0.5;entryDx=0;entryDy=0;" parent="1" target="5i9ivpqAXcweLOBhKeht-227" edge="1">
          <mxGeometry relative="1" as="geometry">
            <Array as="points">
              <mxPoint x="1318" y="-54" />
              <mxPoint x="1318" y="-254" />
            </Array>
            <mxPoint x="1290" y="-54" as="sourcePoint" />
          </mxGeometry>
        </mxCell>
        <mxCell id="5i9ivpqAXcweLOBhKeht-234" style="edgeStyle=orthogonalEdgeStyle;rounded=0;orthogonalLoop=1;jettySize=auto;html=1;entryX=0;entryY=0.5;entryDx=0;entryDy=0;" parent="1" target="5i9ivpqAXcweLOBhKeht-223" edge="1">
          <mxGeometry relative="1" as="geometry">
            <Array as="points">
              <mxPoint x="1318" y="-54" />
              <mxPoint x="1318" y="-204" />
            </Array>
            <mxPoint x="1290" y="-54" as="sourcePoint" />
          </mxGeometry>
        </mxCell>
        <mxCell id="5i9ivpqAXcweLOBhKeht-235" style="edgeStyle=orthogonalEdgeStyle;rounded=0;orthogonalLoop=1;jettySize=auto;html=1;entryX=0;entryY=0.5;entryDx=0;entryDy=0;" parent="1" target="5i9ivpqAXcweLOBhKeht-226" edge="1">
          <mxGeometry relative="1" as="geometry">
            <Array as="points">
              <mxPoint x="1318" y="-54" />
              <mxPoint x="1318" y="-156" />
            </Array>
            <mxPoint x="1290" y="-54" as="sourcePoint" />
          </mxGeometry>
        </mxCell>
        <mxCell id="5i9ivpqAXcweLOBhKeht-236" style="edgeStyle=orthogonalEdgeStyle;rounded=0;orthogonalLoop=1;jettySize=auto;html=1;entryX=0;entryY=0.5;entryDx=0;entryDy=0;" parent="1" target="5i9ivpqAXcweLOBhKeht-225" edge="1">
          <mxGeometry relative="1" as="geometry">
            <Array as="points">
              <mxPoint x="1318" y="-54" />
              <mxPoint x="1318" y="-114" />
            </Array>
            <mxPoint x="1290" y="-54" as="sourcePoint" />
          </mxGeometry>
        </mxCell>
        <mxCell id="5i9ivpqAXcweLOBhKeht-237" style="edgeStyle=orthogonalEdgeStyle;rounded=0;orthogonalLoop=1;jettySize=auto;html=1;entryX=0;entryY=0.5;entryDx=0;entryDy=0;exitX=1;exitY=0;exitDx=0;exitDy=0;" parent="1" target="5i9ivpqAXcweLOBhKeht-228" edge="1">
          <mxGeometry relative="1" as="geometry">
            <Array as="points">
              <mxPoint x="1290" y="-54" />
              <mxPoint x="1318" y="-54" />
              <mxPoint x="1318" y="-66" />
            </Array>
            <mxPoint x="1290" y="-21.999999999999545" as="sourcePoint" />
          </mxGeometry>
        </mxCell>
        <mxCell id="ILLf86DSIE8QrTmpPEF9-150" style="edgeStyle=orthogonalEdgeStyle;rounded=0;orthogonalLoop=1;jettySize=auto;html=1;exitX=0;exitY=0.5;exitDx=0;exitDy=0;entryX=1;entryY=0.5;entryDx=0;entryDy=0;fontColor=#FEFAE0;" parent="1" source="IJt0pZMBiccfIHnYekjX-63" target="5i9ivpqAXcweLOBhKeht-187" edge="1">
          <mxGeometry relative="1" as="geometry" />
        </mxCell>
        <mxCell id="IJt0pZMBiccfIHnYekjX-63" value="&lt;font style=&quot;font-size: 20px&quot;&gt;&lt;b&gt;Instructor&lt;/b&gt;&lt;/font&gt;" style="rounded=1;arcSize=10;whiteSpace=wrap;html=1;align=center;fillColor=#e1d5e7;strokeColor=#9673a6;" parent="1" vertex="1">
          <mxGeometry x="1070" y="-26" width="220" height="65" as="geometry" />
        </mxCell>
        <mxCell id="IJt0pZMBiccfIHnYekjX-65" value="instructor_ID" style="ellipse;whiteSpace=wrap;html=1;align=center;fontStyle=4;fillColor=#f8cecc;strokeColor=#b85450;" parent="1" vertex="1">
          <mxGeometry x="800" y="129" width="100" height="40" as="geometry" />
        </mxCell>
        <mxCell id="5i9ivpqAXcweLOBhKeht-25" style="edgeStyle=orthogonalEdgeStyle;rounded=0;orthogonalLoop=1;jettySize=auto;html=1;entryX=0;entryY=0.5;entryDx=0;entryDy=0;" parent="1" source="IJt0pZMBiccfIHnYekjX-112" target="5i9ivpqAXcweLOBhKeht-2" edge="1">
          <mxGeometry relative="1" as="geometry">
            <Array as="points">
              <mxPoint x="955" y="-920" />
              <mxPoint x="955" y="-1020" />
            </Array>
          </mxGeometry>
        </mxCell>
        <mxCell id="5i9ivpqAXcweLOBhKeht-26" style="edgeStyle=orthogonalEdgeStyle;rounded=0;orthogonalLoop=1;jettySize=auto;html=1;entryX=0;entryY=0.5;entryDx=0;entryDy=0;" parent="1" source="IJt0pZMBiccfIHnYekjX-112" target="5i9ivpqAXcweLOBhKeht-7" edge="1">
          <mxGeometry relative="1" as="geometry">
            <Array as="points">
              <mxPoint x="955" y="-920" />
              <mxPoint x="955" y="-955" />
            </Array>
          </mxGeometry>
        </mxCell>
        <mxCell id="5i9ivpqAXcweLOBhKeht-381" style="edgeStyle=orthogonalEdgeStyle;rounded=0;orthogonalLoop=1;jettySize=auto;html=1;entryX=0;entryY=0.5;entryDx=0;entryDy=0;" parent="1" source="IJt0pZMBiccfIHnYekjX-112" target="5i9ivpqAXcweLOBhKeht-47" edge="1">
          <mxGeometry relative="1" as="geometry">
            <Array as="points">
              <mxPoint x="955" y="-920" />
              <mxPoint x="955" y="-900" />
            </Array>
          </mxGeometry>
        </mxCell>
        <mxCell id="5i9ivpqAXcweLOBhKeht-382" style="edgeStyle=orthogonalEdgeStyle;rounded=0;orthogonalLoop=1;jettySize=auto;html=1;entryX=0;entryY=0.5;entryDx=0;entryDy=0;" parent="1" source="IJt0pZMBiccfIHnYekjX-112" target="5i9ivpqAXcweLOBhKeht-4" edge="1">
          <mxGeometry relative="1" as="geometry">
            <Array as="points">
              <mxPoint x="955" y="-920" />
              <mxPoint x="955" y="-830" />
            </Array>
          </mxGeometry>
        </mxCell>
        <mxCell id="5i9ivpqAXcweLOBhKeht-383" style="edgeStyle=orthogonalEdgeStyle;rounded=0;orthogonalLoop=1;jettySize=auto;html=1;entryX=0;entryY=0.5;entryDx=0;entryDy=0;" parent="1" source="IJt0pZMBiccfIHnYekjX-112" target="5i9ivpqAXcweLOBhKeht-21" edge="1">
          <mxGeometry relative="1" as="geometry">
            <Array as="points">
              <mxPoint x="955" y="-920" />
              <mxPoint x="955" y="-760" />
            </Array>
          </mxGeometry>
        </mxCell>
        <mxCell id="ILLf86DSIE8QrTmpPEF9-144" style="edgeStyle=orthogonalEdgeStyle;rounded=0;orthogonalLoop=1;jettySize=auto;html=1;exitX=0;exitY=0.5;exitDx=0;exitDy=0;entryX=0.5;entryY=0;entryDx=0;entryDy=0;fontColor=#FEFAE0;shape=link;" parent="1" source="IJt0pZMBiccfIHnYekjX-112" target="ILLf86DSIE8QrTmpPEF9-5" edge="1">
          <mxGeometry relative="1" as="geometry" />
        </mxCell>
        <mxCell id="ILLf86DSIE8QrTmpPEF9-155" style="edgeStyle=orthogonalEdgeStyle;rounded=0;orthogonalLoop=1;jettySize=auto;html=1;exitX=0.5;exitY=1;exitDx=0;exitDy=0;fontColor=#FEFAE0;shape=link;" parent="1" source="IJt0pZMBiccfIHnYekjX-112" target="5i9ivpqAXcweLOBhKeht-378" edge="1">
          <mxGeometry relative="1" as="geometry" />
        </mxCell>
        <mxCell id="IJt0pZMBiccfIHnYekjX-112" value="&lt;font size=&quot;1&quot;&gt;&lt;b style=&quot;font-size: 20px&quot;&gt;Training _Centers&lt;/b&gt;&lt;/font&gt;" style="rounded=1;arcSize=10;whiteSpace=wrap;html=1;align=center;fillColor=#e1d5e7;strokeColor=#9673a6;" parent="1" vertex="1">
          <mxGeometry x="525" y="-975" width="360" height="110" as="geometry" />
        </mxCell>
        <mxCell id="IJt0pZMBiccfIHnYekjX-189" value="Gender" style="ellipse;whiteSpace=wrap;html=1;align=center;fillColor=#fff2cc;strokeColor=#d6b656;" parent="1" vertex="1">
          <mxGeometry x="2140" y="189" width="100" height="40" as="geometry" />
        </mxCell>
        <mxCell id="IJt0pZMBiccfIHnYekjX-266" style="edgeStyle=orthogonalEdgeStyle;rounded=0;orthogonalLoop=1;jettySize=auto;html=1;exitX=0.5;exitY=1;exitDx=0;exitDy=0;fontSize=11;fontColor=#000000;" parent="1" edge="1">
          <mxGeometry relative="1" as="geometry">
            <mxPoint x="590" y="729" as="sourcePoint" />
            <mxPoint x="590" y="729" as="targetPoint" />
          </mxGeometry>
        </mxCell>
        <mxCell id="IJt0pZMBiccfIHnYekjX-282" value="Email" style="ellipse;whiteSpace=wrap;html=1;align=center;fontSize=11;fillColor=#fff2cc;strokeColor=#d6b656;" parent="1" vertex="1">
          <mxGeometry x="1020" y="126" width="100" height="40" as="geometry" />
        </mxCell>
        <mxCell id="IJt0pZMBiccfIHnYekjX-284" value="Gender" style="ellipse;whiteSpace=wrap;html=1;align=center;fontSize=11;fillColor=#fff2cc;strokeColor=#d6b656;" parent="1" vertex="1">
          <mxGeometry x="1350" y="129" width="100" height="40" as="geometry" />
        </mxCell>
        <mxCell id="5i9ivpqAXcweLOBhKeht-2" value="Cen_Id" style="ellipse;whiteSpace=wrap;html=1;align=center;fontStyle=4;fillColor=#f8cecc;strokeColor=#b85450;" parent="1" vertex="1">
          <mxGeometry x="1015" y="-1040" width="100" height="40" as="geometry" />
        </mxCell>
        <mxCell id="5i9ivpqAXcweLOBhKeht-177" style="edgeStyle=orthogonalEdgeStyle;rounded=0;orthogonalLoop=1;jettySize=auto;html=1;entryX=0;entryY=0.5;entryDx=0;entryDy=0;" parent="1" source="5i9ivpqAXcweLOBhKeht-4" target="5i9ivpqAXcweLOBhKeht-12" edge="1">
          <mxGeometry relative="1" as="geometry" />
        </mxCell>
        <mxCell id="5i9ivpqAXcweLOBhKeht-178" style="edgeStyle=orthogonalEdgeStyle;rounded=0;orthogonalLoop=1;jettySize=auto;html=1;entryX=0;entryY=0.5;entryDx=0;entryDy=0;" parent="1" source="5i9ivpqAXcweLOBhKeht-4" target="5i9ivpqAXcweLOBhKeht-13" edge="1">
          <mxGeometry relative="1" as="geometry">
            <Array as="points">
              <mxPoint x="1170" y="-830" />
            </Array>
          </mxGeometry>
        </mxCell>
        <mxCell id="5i9ivpqAXcweLOBhKeht-180" style="edgeStyle=orthogonalEdgeStyle;rounded=0;orthogonalLoop=1;jettySize=auto;html=1;entryX=0;entryY=0.5;entryDx=0;entryDy=0;" parent="1" source="5i9ivpqAXcweLOBhKeht-4" target="5i9ivpqAXcweLOBhKeht-11" edge="1">
          <mxGeometry relative="1" as="geometry">
            <Array as="points">
              <mxPoint x="1135" y="-830" />
              <mxPoint x="1135" y="-780" />
            </Array>
          </mxGeometry>
        </mxCell>
        <mxCell id="5i9ivpqAXcweLOBhKeht-181" style="edgeStyle=orthogonalEdgeStyle;rounded=0;orthogonalLoop=1;jettySize=auto;html=1;entryX=-0.005;entryY=0.531;entryDx=0;entryDy=0;entryPerimeter=0;" parent="1" source="5i9ivpqAXcweLOBhKeht-4" target="5i9ivpqAXcweLOBhKeht-45" edge="1">
          <mxGeometry relative="1" as="geometry">
            <Array as="points">
              <mxPoint x="1135" y="-830" />
              <mxPoint x="1135" y="-729" />
            </Array>
          </mxGeometry>
        </mxCell>
        <mxCell id="5i9ivpqAXcweLOBhKeht-4" value="Address" style="ellipse;whiteSpace=wrap;html=1;align=center;fillColor=#fff2cc;strokeColor=#d6b656;" parent="1" vertex="1">
          <mxGeometry x="1005" y="-850" width="100" height="40" as="geometry" />
        </mxCell>
        <mxCell id="5i9ivpqAXcweLOBhKeht-7" value="Name" style="ellipse;whiteSpace=wrap;html=1;align=center;fillColor=#fff2cc;strokeColor=#d6b656;" parent="1" vertex="1">
          <mxGeometry x="1015" y="-975" width="100" height="40" as="geometry" />
        </mxCell>
        <mxCell id="5i9ivpqAXcweLOBhKeht-11" value="State&amp;nbsp;" style="ellipse;whiteSpace=wrap;html=1;align=center;fillColor=#fff2cc;strokeColor=#d6b656;" parent="1" vertex="1">
          <mxGeometry x="1170" y="-800" width="100" height="40" as="geometry" />
        </mxCell>
        <mxCell id="5i9ivpqAXcweLOBhKeht-12" value="City" style="ellipse;whiteSpace=wrap;html=1;align=center;fillColor=#fff2cc;strokeColor=#d6b656;" parent="1" vertex="1">
          <mxGeometry x="1165" y="-900" width="100" height="40" as="geometry" />
        </mxCell>
        <mxCell id="5i9ivpqAXcweLOBhKeht-13" value="Street" style="ellipse;whiteSpace=wrap;html=1;align=center;fillColor=#fff2cc;strokeColor=#d6b656;" parent="1" vertex="1">
          <mxGeometry x="1170" y="-850" width="100" height="40" as="geometry" />
        </mxCell>
        <mxCell id="5i9ivpqAXcweLOBhKeht-15" value="Email" style="ellipse;whiteSpace=wrap;html=1;align=center;fillColor=#fff2cc;strokeColor=#d6b656;" parent="1" vertex="1">
          <mxGeometry x="925" y="-710" width="100" height="40" as="geometry" />
        </mxCell>
        <mxCell id="5i9ivpqAXcweLOBhKeht-384" style="edgeStyle=orthogonalEdgeStyle;rounded=0;orthogonalLoop=1;jettySize=auto;html=1;" parent="1" source="5i9ivpqAXcweLOBhKeht-21" target="5i9ivpqAXcweLOBhKeht-15" edge="1">
          <mxGeometry relative="1" as="geometry" />
        </mxCell>
        <mxCell id="5i9ivpqAXcweLOBhKeht-385" style="edgeStyle=orthogonalEdgeStyle;rounded=0;orthogonalLoop=1;jettySize=auto;html=1;entryX=0.5;entryY=0;entryDx=0;entryDy=0;" parent="1" source="5i9ivpqAXcweLOBhKeht-21" target="14bf4rCieV7-VyyaQFDR-7" edge="1">
          <mxGeometry relative="1" as="geometry">
            <mxPoint x="1085" y="-710" as="targetPoint" />
          </mxGeometry>
        </mxCell>
        <mxCell id="5i9ivpqAXcweLOBhKeht-21" value="Contact" style="ellipse;whiteSpace=wrap;html=1;align=center;fillColor=#fff2cc;strokeColor=#d6b656;" parent="1" vertex="1">
          <mxGeometry x="995" y="-780" width="100" height="40" as="geometry" />
        </mxCell>
        <mxCell id="5i9ivpqAXcweLOBhKeht-45" value="Zip_Code" style="ellipse;whiteSpace=wrap;html=1;align=center;fillColor=#fff2cc;strokeColor=#d6b656;" parent="1" vertex="1">
          <mxGeometry x="1170" y="-750" width="100" height="40" as="geometry" />
        </mxCell>
        <mxCell id="5i9ivpqAXcweLOBhKeht-47" value="Branches" style="ellipse;whiteSpace=wrap;html=1;align=center;fillColor=#fff2cc;strokeColor=#d6b656;" parent="1" vertex="1">
          <mxGeometry x="1005" y="-920" width="100" height="40" as="geometry" />
        </mxCell>
        <mxCell id="5i9ivpqAXcweLOBhKeht-51" value="Course_Desciption" style="ellipse;whiteSpace=wrap;html=1;align=center;fillColor=#fff2cc;strokeColor=#d6b656;" parent="1" vertex="1">
          <mxGeometry x="-425" y="60" width="110" height="40" as="geometry" />
        </mxCell>
        <mxCell id="5i9ivpqAXcweLOBhKeht-238" style="edgeStyle=orthogonalEdgeStyle;rounded=0;orthogonalLoop=1;jettySize=auto;html=1;entryX=1;entryY=0.5;entryDx=0;entryDy=0;" parent="1" source="5i9ivpqAXcweLOBhKeht-75" target="5i9ivpqAXcweLOBhKeht-77" edge="1">
          <mxGeometry relative="1" as="geometry">
            <Array as="points">
              <mxPoint x="-1192.5" y="282" />
              <mxPoint x="-1192.5" y="146" />
            </Array>
          </mxGeometry>
        </mxCell>
        <mxCell id="5i9ivpqAXcweLOBhKeht-239" style="edgeStyle=orthogonalEdgeStyle;rounded=0;orthogonalLoop=1;jettySize=auto;html=1;entryX=1;entryY=0.5;entryDx=0;entryDy=0;" parent="1" source="5i9ivpqAXcweLOBhKeht-75" target="5i9ivpqAXcweLOBhKeht-80" edge="1">
          <mxGeometry relative="1" as="geometry">
            <Array as="points">
              <mxPoint x="-1192.5" y="282" />
              <mxPoint x="-1192.5" y="205" />
            </Array>
          </mxGeometry>
        </mxCell>
        <mxCell id="5i9ivpqAXcweLOBhKeht-242" style="edgeStyle=orthogonalEdgeStyle;rounded=0;orthogonalLoop=1;jettySize=auto;html=1;entryX=1;entryY=0.5;entryDx=0;entryDy=0;" parent="1" source="5i9ivpqAXcweLOBhKeht-75" target="5i9ivpqAXcweLOBhKeht-82" edge="1">
          <mxGeometry relative="1" as="geometry">
            <Array as="points">
              <mxPoint x="-1192.5" y="282" />
              <mxPoint x="-1192.5" y="328" />
            </Array>
          </mxGeometry>
        </mxCell>
        <mxCell id="5i9ivpqAXcweLOBhKeht-244" style="edgeStyle=orthogonalEdgeStyle;rounded=0;orthogonalLoop=1;jettySize=auto;html=1;entryX=1;entryY=0.5;entryDx=0;entryDy=0;" parent="1" source="5i9ivpqAXcweLOBhKeht-75" target="5i9ivpqAXcweLOBhKeht-78" edge="1">
          <mxGeometry relative="1" as="geometry">
            <Array as="points">
              <mxPoint x="-1192.5" y="282" />
              <mxPoint x="-1192.5" y="391" />
            </Array>
          </mxGeometry>
        </mxCell>
        <mxCell id="5i9ivpqAXcweLOBhKeht-295" style="edgeStyle=orthogonalEdgeStyle;rounded=0;orthogonalLoop=1;jettySize=auto;html=1;" parent="1" source="5i9ivpqAXcweLOBhKeht-75" target="5i9ivpqAXcweLOBhKeht-79" edge="1">
          <mxGeometry relative="1" as="geometry">
            <Array as="points">
              <mxPoint x="-1192.5" y="282" />
              <mxPoint x="-1192.5" y="266" />
            </Array>
          </mxGeometry>
        </mxCell>
        <mxCell id="ILLf86DSIE8QrTmpPEF9-137" style="edgeStyle=orthogonalEdgeStyle;rounded=0;orthogonalLoop=1;jettySize=auto;html=1;fontColor=#FEFAE0;shape=link;" parent="1" target="ILLf86DSIE8QrTmpPEF9-136" edge="1">
          <mxGeometry relative="1" as="geometry">
            <Array as="points">
              <mxPoint x="-1040" y="319" />
            </Array>
            <mxPoint x="-1040" y="319" as="sourcePoint" />
          </mxGeometry>
        </mxCell>
        <mxCell id="5i9ivpqAXcweLOBhKeht-75" value="&lt;b&gt;&lt;font style=&quot;font-size: 20px&quot;&gt;Project&lt;/font&gt;&lt;/b&gt;" style="rounded=1;arcSize=10;whiteSpace=wrap;html=1;align=center;fillColor=#e1d5e7;strokeColor=#9673a6;" parent="1" vertex="1">
          <mxGeometry x="-1140" y="242.5" width="240" height="75" as="geometry" />
        </mxCell>
        <mxCell id="5i9ivpqAXcweLOBhKeht-77" value="Project_id" style="ellipse;whiteSpace=wrap;html=1;align=center;fontStyle=4;fillColor=#f8cecc;strokeColor=#b85450;" parent="1" vertex="1">
          <mxGeometry x="-1332.5" y="126" width="100" height="40" as="geometry" />
        </mxCell>
        <mxCell id="5i9ivpqAXcweLOBhKeht-78" value="Proj_Deadline" style="ellipse;whiteSpace=wrap;html=1;align=center;fillColor=#fff2cc;strokeColor=#d6b656;" parent="1" vertex="1">
          <mxGeometry x="-1332.5" y="371" width="100" height="40" as="geometry" />
        </mxCell>
        <mxCell id="5i9ivpqAXcweLOBhKeht-79" value="Proj_Description" style="ellipse;whiteSpace=wrap;html=1;align=center;fillColor=#fff2cc;strokeColor=#d6b656;" parent="1" vertex="1">
          <mxGeometry x="-1332.5" y="246" width="100" height="40" as="geometry" />
        </mxCell>
        <mxCell id="5i9ivpqAXcweLOBhKeht-80" value="Proj_Name" style="ellipse;whiteSpace=wrap;html=1;align=center;fillColor=#fff2cc;strokeColor=#d6b656;" parent="1" vertex="1">
          <mxGeometry x="-1332.5" y="185" width="100" height="40" as="geometry" />
        </mxCell>
        <mxCell id="5i9ivpqAXcweLOBhKeht-82" value="Proj_Start_Date" style="ellipse;whiteSpace=wrap;html=1;align=center;fillColor=#fff2cc;strokeColor=#d6b656;" parent="1" vertex="1">
          <mxGeometry x="-1332.5" y="307.5" width="100" height="40" as="geometry" />
        </mxCell>
        <mxCell id="5i9ivpqAXcweLOBhKeht-131" style="edgeStyle=orthogonalEdgeStyle;rounded=0;orthogonalLoop=1;jettySize=auto;html=1;entryX=0.5;entryY=0;entryDx=0;entryDy=0;" parent="1" source="5i9ivpqAXcweLOBhKeht-86" target="5i9ivpqAXcweLOBhKeht-130" edge="1">
          <mxGeometry relative="1" as="geometry">
            <Array as="points">
              <mxPoint x="421" y="770" />
              <mxPoint x="730" y="770" />
            </Array>
          </mxGeometry>
        </mxCell>
        <mxCell id="5i9ivpqAXcweLOBhKeht-211" style="edgeStyle=orthogonalEdgeStyle;rounded=0;orthogonalLoop=1;jettySize=auto;html=1;" parent="1" source="5i9ivpqAXcweLOBhKeht-86" edge="1">
          <mxGeometry relative="1" as="geometry">
            <mxPoint x="30" y="780" as="targetPoint" />
            <Array as="points">
              <mxPoint x="421" y="770" />
              <mxPoint x="30" y="770" />
            </Array>
          </mxGeometry>
        </mxCell>
        <mxCell id="5i9ivpqAXcweLOBhKeht-218" style="edgeStyle=orthogonalEdgeStyle;rounded=0;orthogonalLoop=1;jettySize=auto;html=1;" parent="1" source="5i9ivpqAXcweLOBhKeht-86" target="5i9ivpqAXcweLOBhKeht-109" edge="1">
          <mxGeometry relative="1" as="geometry">
            <Array as="points">
              <mxPoint x="421" y="770" />
              <mxPoint x="590" y="770" />
            </Array>
          </mxGeometry>
        </mxCell>
        <mxCell id="5i9ivpqAXcweLOBhKeht-219" style="edgeStyle=orthogonalEdgeStyle;rounded=0;orthogonalLoop=1;jettySize=auto;html=1;" parent="1" source="5i9ivpqAXcweLOBhKeht-86" target="5i9ivpqAXcweLOBhKeht-108" edge="1">
          <mxGeometry relative="1" as="geometry" />
        </mxCell>
        <mxCell id="5i9ivpqAXcweLOBhKeht-220" style="edgeStyle=orthogonalEdgeStyle;rounded=0;orthogonalLoop=1;jettySize=auto;html=1;" parent="1" source="5i9ivpqAXcweLOBhKeht-86" target="5i9ivpqAXcweLOBhKeht-89" edge="1">
          <mxGeometry relative="1" as="geometry" />
        </mxCell>
        <mxCell id="5i9ivpqAXcweLOBhKeht-221" style="edgeStyle=orthogonalEdgeStyle;rounded=0;orthogonalLoop=1;jettySize=auto;html=1;entryX=0.5;entryY=0;entryDx=0;entryDy=0;" parent="1" source="5i9ivpqAXcweLOBhKeht-86" target="5i9ivpqAXcweLOBhKeht-90" edge="1">
          <mxGeometry relative="1" as="geometry">
            <Array as="points">
              <mxPoint x="421" y="770" />
              <mxPoint x="250" y="770" />
            </Array>
          </mxGeometry>
        </mxCell>
        <mxCell id="5i9ivpqAXcweLOBhKeht-222" style="edgeStyle=orthogonalEdgeStyle;rounded=0;orthogonalLoop=1;jettySize=auto;html=1;" parent="1" source="5i9ivpqAXcweLOBhKeht-86" target="5i9ivpqAXcweLOBhKeht-94" edge="1">
          <mxGeometry relative="1" as="geometry">
            <Array as="points">
              <mxPoint x="421" y="770" />
              <mxPoint x="140" y="770" />
            </Array>
          </mxGeometry>
        </mxCell>
        <mxCell id="ILLf86DSIE8QrTmpPEF9-133" style="edgeStyle=orthogonalEdgeStyle;rounded=0;orthogonalLoop=1;jettySize=auto;html=1;exitX=1;exitY=0.5;exitDx=0;exitDy=0;fontColor=#FEFAE0;entryX=0;entryY=0.5;entryDx=0;entryDy=0;" parent="1" source="5i9ivpqAXcweLOBhKeht-86" target="14bf4rCieV7-VyyaQFDR-11" edge="1">
          <mxGeometry relative="1" as="geometry">
            <mxPoint x="630.0000432825673" y="659.4736842105262" as="targetPoint" />
          </mxGeometry>
        </mxCell>
        <mxCell id="ILLf86DSIE8QrTmpPEF9-134" style="edgeStyle=orthogonalEdgeStyle;rounded=0;orthogonalLoop=1;jettySize=auto;html=1;exitX=1;exitY=0.5;exitDx=0;exitDy=0;fontColor=#FEFAE0;entryX=0;entryY=0.5;entryDx=0;entryDy=0;" parent="1" source="5i9ivpqAXcweLOBhKeht-86" target="5i9ivpqAXcweLOBhKeht-107" edge="1">
          <mxGeometry relative="1" as="geometry">
            <mxPoint x="630" y="726" as="targetPoint" />
            <Array as="points">
              <mxPoint x="610" y="700" />
              <mxPoint x="610" y="730" />
            </Array>
          </mxGeometry>
        </mxCell>
        <mxCell id="ILLf86DSIE8QrTmpPEF9-135" style="edgeStyle=orthogonalEdgeStyle;rounded=0;orthogonalLoop=1;jettySize=auto;html=1;exitX=0;exitY=0.75;exitDx=0;exitDy=0;fontColor=#FEFAE0;" parent="1" source="5i9ivpqAXcweLOBhKeht-86" target="ILLf86DSIE8QrTmpPEF9-136" edge="1">
          <mxGeometry relative="1" as="geometry">
            <mxPoint x="-1040" y="840" as="targetPoint" />
            <Array as="points">
              <mxPoint x="282" y="725" />
              <mxPoint x="282" y="750" />
            </Array>
          </mxGeometry>
        </mxCell>
        <mxCell id="ILLf86DSIE8QrTmpPEF9-153" style="edgeStyle=orthogonalEdgeStyle;rounded=0;orthogonalLoop=1;jettySize=auto;html=1;exitX=0;exitY=0.5;exitDx=0;exitDy=0;entryX=1;entryY=0.5;entryDx=0;entryDy=0;fontColor=#FEFAE0;shape=link;" parent="1" source="5i9ivpqAXcweLOBhKeht-86" target="ILLf86DSIE8QrTmpPEF9-29" edge="1">
          <mxGeometry relative="1" as="geometry" />
        </mxCell>
        <mxCell id="5i9ivpqAXcweLOBhKeht-86" value="&lt;b&gt;&lt;font style=&quot;font-size: 20px&quot;&gt;Trainee&lt;/font&gt;&lt;/b&gt;" style="rounded=1;arcSize=10;whiteSpace=wrap;html=1;align=center;fillColor=#e1d5e7;strokeColor=#9673a6;" parent="1" vertex="1">
          <mxGeometry x="310" y="650" width="278" height="100" as="geometry" />
        </mxCell>
        <mxCell id="5i9ivpqAXcweLOBhKeht-87" value="Trianee_code" style="ellipse;whiteSpace=wrap;html=1;align=center;fontStyle=4;fillColor=#f8cecc;strokeColor=#b85450;" parent="1" vertex="1">
          <mxGeometry x="-30" y="784" width="100" height="40" as="geometry" />
        </mxCell>
        <mxCell id="5i9ivpqAXcweLOBhKeht-89" value="Date_of_Birth" style="ellipse;whiteSpace=wrap;html=1;align=center;fillColor=#fff2cc;strokeColor=#d6b656;" parent="1" vertex="1">
          <mxGeometry x="310" y="784" width="100" height="40" as="geometry" />
        </mxCell>
        <mxCell id="5i9ivpqAXcweLOBhKeht-90" value="Gender" style="ellipse;whiteSpace=wrap;html=1;align=center;fillColor=#fff2cc;strokeColor=#d6b656;" parent="1" vertex="1">
          <mxGeometry x="200" y="784" width="100" height="40" as="geometry" />
        </mxCell>
        <mxCell id="5i9ivpqAXcweLOBhKeht-91" value="Last_Name" style="ellipse;whiteSpace=wrap;html=1;align=center;fillColor=#fff2cc;strokeColor=#d6b656;" parent="1" vertex="1">
          <mxGeometry x="190" y="854" width="100" height="40" as="geometry" />
        </mxCell>
        <mxCell id="5i9ivpqAXcweLOBhKeht-92" value="Middle_name" style="ellipse;whiteSpace=wrap;html=1;align=center;fillColor=#fff2cc;strokeColor=#d6b656;" parent="1" vertex="1">
          <mxGeometry x="80" y="854" width="100" height="40" as="geometry" />
        </mxCell>
        <mxCell id="5i9ivpqAXcweLOBhKeht-93" value="First_Name" style="ellipse;whiteSpace=wrap;html=1;align=center;fillColor=#fff2cc;strokeColor=#d6b656;" parent="1" vertex="1">
          <mxGeometry x="-30" y="854" width="100" height="40" as="geometry" />
        </mxCell>
        <mxCell id="5i9ivpqAXcweLOBhKeht-214" style="edgeStyle=orthogonalEdgeStyle;rounded=0;orthogonalLoop=1;jettySize=auto;html=1;" parent="1" source="5i9ivpqAXcweLOBhKeht-94" target="5i9ivpqAXcweLOBhKeht-93" edge="1">
          <mxGeometry relative="1" as="geometry">
            <Array as="points">
              <mxPoint x="140" y="830" />
              <mxPoint x="20" y="830" />
            </Array>
          </mxGeometry>
        </mxCell>
        <mxCell id="5i9ivpqAXcweLOBhKeht-215" style="edgeStyle=orthogonalEdgeStyle;rounded=0;orthogonalLoop=1;jettySize=auto;html=1;" parent="1" source="5i9ivpqAXcweLOBhKeht-94" target="5i9ivpqAXcweLOBhKeht-92" edge="1">
          <mxGeometry relative="1" as="geometry">
            <Array as="points">
              <mxPoint x="130" y="840" />
              <mxPoint x="130" y="840" />
            </Array>
          </mxGeometry>
        </mxCell>
        <mxCell id="5i9ivpqAXcweLOBhKeht-216" style="edgeStyle=orthogonalEdgeStyle;rounded=0;orthogonalLoop=1;jettySize=auto;html=1;" parent="1" source="5i9ivpqAXcweLOBhKeht-94" target="5i9ivpqAXcweLOBhKeht-91" edge="1">
          <mxGeometry relative="1" as="geometry">
            <Array as="points">
              <mxPoint x="140" y="830" />
              <mxPoint x="240" y="830" />
            </Array>
          </mxGeometry>
        </mxCell>
        <mxCell id="5i9ivpqAXcweLOBhKeht-94" value="Name" style="ellipse;whiteSpace=wrap;html=1;align=center;fillColor=#fff2cc;strokeColor=#d6b656;" parent="1" vertex="1">
          <mxGeometry x="90" y="784" width="100" height="40" as="geometry" />
        </mxCell>
        <mxCell id="5i9ivpqAXcweLOBhKeht-107" value="Email" style="ellipse;whiteSpace=wrap;html=1;align=center;fillColor=#fff2cc;strokeColor=#d6b656;" parent="1" vertex="1">
          <mxGeometry x="630" y="710" width="100" height="40" as="geometry" />
        </mxCell>
        <mxCell id="5i9ivpqAXcweLOBhKeht-108" value="Age" style="ellipse;whiteSpace=wrap;html=1;align=center;dashed=1;fillColor=#fff2cc;strokeColor=#d6b656;" parent="1" vertex="1">
          <mxGeometry x="425" y="784" width="100" height="40" as="geometry" />
        </mxCell>
        <mxCell id="5i9ivpqAXcweLOBhKeht-124" style="edgeStyle=orthogonalEdgeStyle;rounded=0;orthogonalLoop=1;jettySize=auto;html=1;" parent="1" source="5i9ivpqAXcweLOBhKeht-109" target="5i9ivpqAXcweLOBhKeht-123" edge="1">
          <mxGeometry relative="1" as="geometry">
            <Array as="points">
              <mxPoint x="590" y="835" />
              <mxPoint x="475" y="835" />
            </Array>
          </mxGeometry>
        </mxCell>
        <mxCell id="5i9ivpqAXcweLOBhKeht-125" style="edgeStyle=orthogonalEdgeStyle;rounded=0;orthogonalLoop=1;jettySize=auto;html=1;entryX=0.6;entryY=0;entryDx=0;entryDy=0;entryPerimeter=0;" parent="1" source="5i9ivpqAXcweLOBhKeht-109" target="5i9ivpqAXcweLOBhKeht-122" edge="1">
          <mxGeometry relative="1" as="geometry" />
        </mxCell>
        <mxCell id="5i9ivpqAXcweLOBhKeht-127" style="edgeStyle=orthogonalEdgeStyle;rounded=0;orthogonalLoop=1;jettySize=auto;html=1;" parent="1" source="5i9ivpqAXcweLOBhKeht-109" target="5i9ivpqAXcweLOBhKeht-121" edge="1">
          <mxGeometry relative="1" as="geometry">
            <Array as="points">
              <mxPoint x="590" y="835" />
              <mxPoint x="690" y="835" />
            </Array>
          </mxGeometry>
        </mxCell>
        <mxCell id="5i9ivpqAXcweLOBhKeht-109" value="Address" style="ellipse;whiteSpace=wrap;html=1;align=center;fillColor=#fff2cc;strokeColor=#d6b656;" parent="1" vertex="1">
          <mxGeometry x="540" y="784" width="100" height="40" as="geometry" />
        </mxCell>
        <mxCell id="5i9ivpqAXcweLOBhKeht-121" value="Zip_code" style="ellipse;whiteSpace=wrap;html=1;align=center;fillColor=#fff2cc;strokeColor=#d6b656;" parent="1" vertex="1">
          <mxGeometry x="640" y="845" width="100" height="40" as="geometry" />
        </mxCell>
        <mxCell id="5i9ivpqAXcweLOBhKeht-122" value="Street" style="ellipse;whiteSpace=wrap;html=1;align=center;fillColor=#fff2cc;strokeColor=#d6b656;" parent="1" vertex="1">
          <mxGeometry x="530" y="845" width="100" height="40" as="geometry" />
        </mxCell>
        <mxCell id="5i9ivpqAXcweLOBhKeht-123" value="City&amp;nbsp;" style="ellipse;whiteSpace=wrap;html=1;align=center;fillColor=#fff2cc;strokeColor=#d6b656;" parent="1" vertex="1">
          <mxGeometry x="425" y="845" width="100" height="40" as="geometry" />
        </mxCell>
        <mxCell id="5i9ivpqAXcweLOBhKeht-128" value="Enrollment_Date" style="ellipse;whiteSpace=wrap;html=1;align=center;fillColor=#fff2cc;strokeColor=#d6b656;" parent="1" vertex="1">
          <mxGeometry x="670" y="360" width="100" height="40" as="geometry" />
        </mxCell>
        <mxCell id="5i9ivpqAXcweLOBhKeht-130" value="Graduation" style="ellipse;whiteSpace=wrap;html=1;align=center;fillColor=#fff2cc;strokeColor=#d6b656;" parent="1" vertex="1">
          <mxGeometry x="680" y="784" width="100" height="40" as="geometry" />
        </mxCell>
        <mxCell id="5i9ivpqAXcweLOBhKeht-337" style="edgeStyle=orthogonalEdgeStyle;rounded=0;orthogonalLoop=1;jettySize=auto;html=1;entryX=1.008;entryY=0.654;entryDx=0;entryDy=0;entryPerimeter=0;" parent="1" source="5i9ivpqAXcweLOBhKeht-132" target="5i9ivpqAXcweLOBhKeht-249" edge="1">
          <mxGeometry relative="1" as="geometry" />
        </mxCell>
        <mxCell id="5i9ivpqAXcweLOBhKeht-338" style="edgeStyle=orthogonalEdgeStyle;rounded=0;orthogonalLoop=1;jettySize=auto;html=1;entryX=1;entryY=0.5;entryDx=0;entryDy=0;" parent="1" source="5i9ivpqAXcweLOBhKeht-132" target="5i9ivpqAXcweLOBhKeht-251" edge="1">
          <mxGeometry relative="1" as="geometry" />
        </mxCell>
        <mxCell id="5i9ivpqAXcweLOBhKeht-339" style="edgeStyle=orthogonalEdgeStyle;rounded=0;orthogonalLoop=1;jettySize=auto;html=1;entryX=1;entryY=0.5;entryDx=0;entryDy=0;" parent="1" source="5i9ivpqAXcweLOBhKeht-132" target="5i9ivpqAXcweLOBhKeht-252" edge="1">
          <mxGeometry relative="1" as="geometry" />
        </mxCell>
        <mxCell id="5i9ivpqAXcweLOBhKeht-340" style="edgeStyle=orthogonalEdgeStyle;rounded=0;orthogonalLoop=1;jettySize=auto;html=1;entryX=1;entryY=0.5;entryDx=0;entryDy=0;" parent="1" source="5i9ivpqAXcweLOBhKeht-132" target="5i9ivpqAXcweLOBhKeht-250" edge="1">
          <mxGeometry relative="1" as="geometry" />
        </mxCell>
        <mxCell id="ILLf86DSIE8QrTmpPEF9-142" style="edgeStyle=orthogonalEdgeStyle;rounded=0;orthogonalLoop=1;jettySize=auto;html=1;exitX=0.25;exitY=1;exitDx=0;exitDy=0;entryX=1;entryY=0.5;entryDx=0;entryDy=0;fontColor=#FEFAE0;shape=link;" parent="1" source="5i9ivpqAXcweLOBhKeht-132" target="5i9ivpqAXcweLOBhKeht-388" edge="1">
          <mxGeometry relative="1" as="geometry" />
        </mxCell>
        <mxCell id="ILLf86DSIE8QrTmpPEF9-156" style="edgeStyle=orthogonalEdgeStyle;rounded=0;orthogonalLoop=1;jettySize=auto;html=1;exitX=0.5;exitY=0;exitDx=0;exitDy=0;entryX=0.5;entryY=1;entryDx=0;entryDy=0;fontColor=#FEFAE0;shape=link;" parent="1" source="5i9ivpqAXcweLOBhKeht-132" target="5i9ivpqAXcweLOBhKeht-378" edge="1">
          <mxGeometry relative="1" as="geometry">
            <Array as="points">
              <mxPoint x="1120" y="-620" />
              <mxPoint x="710" y="-620" />
            </Array>
          </mxGeometry>
        </mxCell>
        <mxCell id="ILLf86DSIE8QrTmpPEF9-157" style="edgeStyle=orthogonalEdgeStyle;rounded=0;orthogonalLoop=1;jettySize=auto;html=1;exitX=0.75;exitY=1;exitDx=0;exitDy=0;entryX=0.5;entryY=0;entryDx=0;entryDy=0;fontColor=#FEFAE0;shape=link;" parent="1" source="5i9ivpqAXcweLOBhKeht-132" target="ILLf86DSIE8QrTmpPEF9-54" edge="1">
          <mxGeometry relative="1" as="geometry">
            <Array as="points">
              <mxPoint x="1185" y="-438" />
            </Array>
          </mxGeometry>
        </mxCell>
        <mxCell id="ILLf86DSIE8QrTmpPEF9-159" style="edgeStyle=orthogonalEdgeStyle;rounded=0;orthogonalLoop=1;jettySize=auto;html=1;exitX=1;exitY=0.5;exitDx=0;exitDy=0;fontColor=#FEFAE0;shape=link;" parent="1" source="5i9ivpqAXcweLOBhKeht-132" target="ILLf86DSIE8QrTmpPEF9-160" edge="1">
          <mxGeometry relative="1" as="geometry">
            <mxPoint x="1570" y="-880" as="targetPoint" />
          </mxGeometry>
        </mxCell>
        <mxCell id="5i9ivpqAXcweLOBhKeht-132" value="&lt;font style=&quot;font-size: 20px&quot;&gt;&lt;b&gt;Department&lt;/b&gt;&lt;/font&gt;" style="rounded=1;arcSize=10;whiteSpace=wrap;html=1;align=center;fillColor=#e1d5e7;strokeColor=#9673a6;" parent="1" vertex="1">
          <mxGeometry x="970" y="-530" width="300" height="92.5" as="geometry" />
        </mxCell>
        <mxCell id="5i9ivpqAXcweLOBhKeht-139" value="Middle_Name" style="ellipse;whiteSpace=wrap;html=1;align=center;fillColor=#fff2cc;strokeColor=#d6b656;" parent="1" vertex="1">
          <mxGeometry x="1680" y="274" width="100" height="40" as="geometry" />
        </mxCell>
        <mxCell id="5i9ivpqAXcweLOBhKeht-140" value="Last_Name" style="ellipse;whiteSpace=wrap;html=1;align=center;fillColor=#fff2cc;strokeColor=#d6b656;" parent="1" vertex="1">
          <mxGeometry x="1790" y="274" width="100" height="40" as="geometry" />
        </mxCell>
        <mxCell id="5i9ivpqAXcweLOBhKeht-141" value="First_Name" style="ellipse;whiteSpace=wrap;html=1;align=center;fillColor=#fff2cc;strokeColor=#d6b656;" parent="1" vertex="1">
          <mxGeometry x="1570" y="274" width="100" height="40" as="geometry" />
        </mxCell>
        <mxCell id="5i9ivpqAXcweLOBhKeht-145" value="Qualification" style="ellipse;shape=doubleEllipse;margin=3;whiteSpace=wrap;html=1;align=center;fillColor=#fff2cc;strokeColor=#d6b656;" parent="1" vertex="1">
          <mxGeometry x="2130" y="-151" width="100" height="40" as="geometry" />
        </mxCell>
        <mxCell id="5i9ivpqAXcweLOBhKeht-146" value="City" style="ellipse;whiteSpace=wrap;html=1;align=center;fillColor=#fff2cc;strokeColor=#d6b656;" parent="1" vertex="1">
          <mxGeometry x="1912.5" y="274" width="100" height="40" as="geometry" />
        </mxCell>
        <mxCell id="5i9ivpqAXcweLOBhKeht-147" value="Street" style="ellipse;whiteSpace=wrap;html=1;align=center;fillColor=#fff2cc;strokeColor=#d6b656;" parent="1" vertex="1">
          <mxGeometry x="2020" y="274" width="100" height="40" as="geometry" />
        </mxCell>
        <mxCell id="5i9ivpqAXcweLOBhKeht-148" value="Zip_code" style="ellipse;whiteSpace=wrap;html=1;align=center;fillColor=#fff2cc;strokeColor=#d6b656;" parent="1" vertex="1">
          <mxGeometry x="2130" y="274" width="100" height="40" as="geometry" />
        </mxCell>
        <mxCell id="5i9ivpqAXcweLOBhKeht-158" value="total_Salary" style="ellipse;whiteSpace=wrap;html=1;align=center;dashed=1;fillColor=#fff2cc;strokeColor=#d6b656;" parent="1" vertex="1">
          <mxGeometry x="2130" y="89" width="100" height="40" as="geometry" />
        </mxCell>
        <mxCell id="5i9ivpqAXcweLOBhKeht-159" value="Bouns" style="ellipse;whiteSpace=wrap;html=1;align=center;fillColor=#fff2cc;strokeColor=#d6b656;" parent="1" vertex="1">
          <mxGeometry x="2130" y="39" width="100" height="40" as="geometry" />
        </mxCell>
        <mxCell id="5i9ivpqAXcweLOBhKeht-160" value="Discount" style="ellipse;whiteSpace=wrap;html=1;align=center;fillColor=#fff2cc;strokeColor=#d6b656;" parent="1" vertex="1">
          <mxGeometry x="2130" y="-8.5" width="100" height="40" as="geometry" />
        </mxCell>
        <mxCell id="5i9ivpqAXcweLOBhKeht-161" value="Main_salary" style="ellipse;whiteSpace=wrap;html=1;align=center;fillColor=#fff2cc;strokeColor=#d6b656;" parent="1" vertex="1">
          <mxGeometry x="2130" y="-101" width="100" height="40" as="geometry" />
        </mxCell>
        <mxCell id="5i9ivpqAXcweLOBhKeht-162" value="Work_Hour" style="ellipse;whiteSpace=wrap;html=1;align=center;fillColor=#fff2cc;strokeColor=#d6b656;" parent="1" vertex="1">
          <mxGeometry x="2130" y="-51" width="100" height="40" as="geometry" />
        </mxCell>
        <mxCell id="5i9ivpqAXcweLOBhKeht-182" value="Hired_Date" style="ellipse;whiteSpace=wrap;html=1;align=center;fillColor=#fff2cc;strokeColor=#d6b656;" parent="1" vertex="1">
          <mxGeometry x="2130" y="-210" width="100" height="40" as="geometry" />
        </mxCell>
        <mxCell id="5i9ivpqAXcweLOBhKeht-184" value="Supervise" style="shape=rhombus;perimeter=rhombusPerimeter;whiteSpace=wrap;html=1;align=center;fillColor=#dae8fc;strokeColor=#6c8ebf;" parent="1" vertex="1">
          <mxGeometry x="1575" y="-21" width="120" height="60" as="geometry" />
        </mxCell>
        <mxCell id="5i9ivpqAXcweLOBhKeht-185" value="" style="endArrow=none;html=1;rounded=0;entryX=0;entryY=0.5;entryDx=0;entryDy=0;" parent="1" target="5i9ivpqAXcweLOBhKeht-184" edge="1">
          <mxGeometry relative="1" as="geometry">
            <mxPoint x="1290" y="8.70999999999998" as="sourcePoint" />
            <mxPoint x="1450" y="8.70999999999998" as="targetPoint" />
          </mxGeometry>
        </mxCell>
        <mxCell id="5i9ivpqAXcweLOBhKeht-186" value="" style="endArrow=none;html=1;rounded=0;entryX=0;entryY=0.5;entryDx=0;entryDy=0;shape=link;" parent="1" target="SFRXXkDRhJom5mfh4kAp-13" edge="1">
          <mxGeometry relative="1" as="geometry">
            <mxPoint x="1695" y="8.760000000000005" as="sourcePoint" />
            <mxPoint x="1855" y="8.760000000000005" as="targetPoint" />
          </mxGeometry>
        </mxCell>
        <mxCell id="ILLf86DSIE8QrTmpPEF9-151" style="edgeStyle=orthogonalEdgeStyle;rounded=0;orthogonalLoop=1;jettySize=auto;html=1;exitX=0;exitY=0.5;exitDx=0;exitDy=0;entryX=0.896;entryY=1.02;entryDx=0;entryDy=0;entryPerimeter=0;fontColor=#FEFAE0;shape=link;" parent="1" source="5i9ivpqAXcweLOBhKeht-187" target="IJt0pZMBiccfIHnYekjX-4" edge="1">
          <mxGeometry relative="1" as="geometry" />
        </mxCell>
        <mxCell id="5i9ivpqAXcweLOBhKeht-187" value="Give" style="shape=rhombus;perimeter=rhombusPerimeter;whiteSpace=wrap;html=1;align=center;fillColor=#dae8fc;strokeColor=#6c8ebf;" parent="1" vertex="1">
          <mxGeometry x="440" y="-48.5" width="120" height="60" as="geometry" />
        </mxCell>
        <mxCell id="5i9ivpqAXcweLOBhKeht-190" value="Last_Name" style="ellipse;whiteSpace=wrap;html=1;align=center;fillColor=#fff2cc;strokeColor=#d6b656;" parent="1" vertex="1">
          <mxGeometry x="1010" y="206" width="70" height="34" as="geometry" />
        </mxCell>
        <mxCell id="5i9ivpqAXcweLOBhKeht-202" style="edgeStyle=orthogonalEdgeStyle;rounded=0;orthogonalLoop=1;jettySize=auto;html=1;" parent="1" source="5i9ivpqAXcweLOBhKeht-191" target="5i9ivpqAXcweLOBhKeht-198" edge="1">
          <mxGeometry relative="1" as="geometry">
            <Array as="points">
              <mxPoint x="1290" y="180" />
              <mxPoint x="1170" y="180" />
            </Array>
          </mxGeometry>
        </mxCell>
        <mxCell id="5i9ivpqAXcweLOBhKeht-203" style="edgeStyle=orthogonalEdgeStyle;rounded=0;orthogonalLoop=1;jettySize=auto;html=1;" parent="1" source="5i9ivpqAXcweLOBhKeht-191" edge="1">
          <mxGeometry relative="1" as="geometry">
            <mxPoint x="1290" y="200" as="targetPoint" />
          </mxGeometry>
        </mxCell>
        <mxCell id="5i9ivpqAXcweLOBhKeht-204" style="edgeStyle=orthogonalEdgeStyle;rounded=0;orthogonalLoop=1;jettySize=auto;html=1;" parent="1" source="5i9ivpqAXcweLOBhKeht-191" target="5i9ivpqAXcweLOBhKeht-201" edge="1">
          <mxGeometry relative="1" as="geometry">
            <Array as="points">
              <mxPoint x="1290" y="180" />
              <mxPoint x="1390" y="180" />
            </Array>
          </mxGeometry>
        </mxCell>
        <mxCell id="5i9ivpqAXcweLOBhKeht-191" value="Address" style="ellipse;whiteSpace=wrap;html=1;align=center;fillColor=#fff2cc;strokeColor=#d6b656;" parent="1" vertex="1">
          <mxGeometry x="1240" y="129" width="100" height="40" as="geometry" />
        </mxCell>
        <mxCell id="5i9ivpqAXcweLOBhKeht-192" value="First_Name" style="ellipse;whiteSpace=wrap;html=1;align=center;fillColor=#fff2cc;strokeColor=#d6b656;" parent="1" vertex="1">
          <mxGeometry x="820" y="206" width="70" height="34" as="geometry" />
        </mxCell>
        <mxCell id="5i9ivpqAXcweLOBhKeht-193" value="Middle_Name" style="ellipse;whiteSpace=wrap;html=1;align=center;fillColor=#fff2cc;strokeColor=#d6b656;" parent="1" vertex="1">
          <mxGeometry x="910" y="205" width="80" height="35" as="geometry" />
        </mxCell>
        <mxCell id="5i9ivpqAXcweLOBhKeht-198" value="City" style="ellipse;whiteSpace=wrap;html=1;align=center;fillColor=#fff2cc;strokeColor=#d6b656;" parent="1" vertex="1">
          <mxGeometry x="1120" y="206" width="100" height="40" as="geometry" />
        </mxCell>
        <mxCell id="5i9ivpqAXcweLOBhKeht-200" value="Street" style="ellipse;whiteSpace=wrap;html=1;align=center;fillColor=#fff2cc;strokeColor=#d6b656;" parent="1" vertex="1">
          <mxGeometry x="1230" y="206" width="100" height="40" as="geometry" />
        </mxCell>
        <mxCell id="5i9ivpqAXcweLOBhKeht-201" value="Zip_Code" style="ellipse;whiteSpace=wrap;html=1;align=center;fillColor=#fff2cc;strokeColor=#d6b656;" parent="1" vertex="1">
          <mxGeometry x="1340" y="206" width="100" height="40" as="geometry" />
        </mxCell>
        <mxCell id="5i9ivpqAXcweLOBhKeht-223" value="Bouns" style="ellipse;whiteSpace=wrap;html=1;align=center;fillColor=#fff2cc;strokeColor=#d6b656;" parent="1" vertex="1">
          <mxGeometry x="1345" y="-224" width="100" height="40" as="geometry" />
        </mxCell>
        <mxCell id="5i9ivpqAXcweLOBhKeht-225" value="Discount" style="ellipse;whiteSpace=wrap;html=1;align=center;fillColor=#fff2cc;strokeColor=#d6b656;" parent="1" vertex="1">
          <mxGeometry x="1345" y="-134" width="100" height="40" as="geometry" />
        </mxCell>
        <mxCell id="5i9ivpqAXcweLOBhKeht-226" value="Work_hour" style="ellipse;whiteSpace=wrap;html=1;align=center;fillColor=#fff2cc;strokeColor=#d6b656;" parent="1" vertex="1">
          <mxGeometry x="1345" y="-176.43" width="100" height="40" as="geometry" />
        </mxCell>
        <mxCell id="5i9ivpqAXcweLOBhKeht-227" value="Main_Salary" style="ellipse;whiteSpace=wrap;html=1;align=center;fillColor=#fff2cc;strokeColor=#d6b656;" parent="1" vertex="1">
          <mxGeometry x="1345" y="-274" width="100" height="40" as="geometry" />
        </mxCell>
        <mxCell id="5i9ivpqAXcweLOBhKeht-228" value="Total Salary" style="ellipse;whiteSpace=wrap;html=1;align=center;dashed=1;fillColor=#fff2cc;strokeColor=#d6b656;" parent="1" vertex="1">
          <mxGeometry x="1345" y="-86.43" width="100" height="40" as="geometry" />
        </mxCell>
        <mxCell id="5i9ivpqAXcweLOBhKeht-229" value="Qualification" style="ellipse;shape=doubleEllipse;margin=3;whiteSpace=wrap;html=1;align=center;fillColor=#fff2cc;strokeColor=#d6b656;" parent="1" vertex="1">
          <mxGeometry x="1345" y="-369" width="100" height="40" as="geometry" />
        </mxCell>
        <mxCell id="5i9ivpqAXcweLOBhKeht-230" value="Hired_Date" style="ellipse;whiteSpace=wrap;html=1;align=center;fillColor=#fff2cc;strokeColor=#d6b656;" parent="1" vertex="1">
          <mxGeometry x="1345" y="-324" width="100" height="40" as="geometry" />
        </mxCell>
        <mxCell id="5i9ivpqAXcweLOBhKeht-296" style="edgeStyle=orthogonalEdgeStyle;rounded=0;orthogonalLoop=1;jettySize=auto;html=1;entryX=0;entryY=0.5;entryDx=0;entryDy=0;" parent="1" source="5i9ivpqAXcweLOBhKeht-246" target="5i9ivpqAXcweLOBhKeht-284" edge="1">
          <mxGeometry relative="1" as="geometry" />
        </mxCell>
        <mxCell id="5i9ivpqAXcweLOBhKeht-297" style="edgeStyle=orthogonalEdgeStyle;rounded=0;orthogonalLoop=1;jettySize=auto;html=1;entryX=0;entryY=0.5;entryDx=0;entryDy=0;" parent="1" source="5i9ivpqAXcweLOBhKeht-246" target="5i9ivpqAXcweLOBhKeht-283" edge="1">
          <mxGeometry relative="1" as="geometry" />
        </mxCell>
        <mxCell id="5i9ivpqAXcweLOBhKeht-298" style="edgeStyle=orthogonalEdgeStyle;rounded=0;orthogonalLoop=1;jettySize=auto;html=1;entryX=0;entryY=0.5;entryDx=0;entryDy=0;" parent="1" source="5i9ivpqAXcweLOBhKeht-246" target="5i9ivpqAXcweLOBhKeht-285" edge="1">
          <mxGeometry relative="1" as="geometry" />
        </mxCell>
        <mxCell id="5i9ivpqAXcweLOBhKeht-299" style="edgeStyle=orthogonalEdgeStyle;rounded=0;orthogonalLoop=1;jettySize=auto;html=1;entryX=0;entryY=0.5;entryDx=0;entryDy=0;" parent="1" source="5i9ivpqAXcweLOBhKeht-246" target="5i9ivpqAXcweLOBhKeht-282" edge="1">
          <mxGeometry relative="1" as="geometry" />
        </mxCell>
        <mxCell id="5i9ivpqAXcweLOBhKeht-300" style="edgeStyle=orthogonalEdgeStyle;rounded=0;orthogonalLoop=1;jettySize=auto;html=1;entryX=0;entryY=0.5;entryDx=0;entryDy=0;" parent="1" source="5i9ivpqAXcweLOBhKeht-246" target="5i9ivpqAXcweLOBhKeht-294" edge="1">
          <mxGeometry relative="1" as="geometry" />
        </mxCell>
        <mxCell id="ILLf86DSIE8QrTmpPEF9-61" style="edgeStyle=orthogonalEdgeStyle;rounded=0;orthogonalLoop=1;jettySize=auto;html=1;exitX=0;exitY=0.5;exitDx=0;exitDy=0;" parent="1" source="5i9ivpqAXcweLOBhKeht-246" target="ILLf86DSIE8QrTmpPEF9-62" edge="1">
          <mxGeometry relative="1" as="geometry">
            <mxPoint x="-474.99999999999955" y="-1840" as="targetPoint" />
          </mxGeometry>
        </mxCell>
        <mxCell id="ILLf86DSIE8QrTmpPEF9-103" style="edgeStyle=orthogonalEdgeStyle;rounded=0;orthogonalLoop=1;jettySize=auto;html=1;exitX=0.75;exitY=1;exitDx=0;exitDy=0;fontColor=#FEFAE0;shape=link;" parent="1" source="5i9ivpqAXcweLOBhKeht-246" target="ILLf86DSIE8QrTmpPEF9-104" edge="1">
          <mxGeometry relative="1" as="geometry">
            <mxPoint x="680" y="-1390" as="targetPoint" />
            <Array as="points">
              <mxPoint x="-127" y="-1630" />
              <mxPoint x="680" y="-1630" />
            </Array>
          </mxGeometry>
        </mxCell>
        <mxCell id="ILLf86DSIE8QrTmpPEF9-115" style="edgeStyle=orthogonalEdgeStyle;rounded=0;orthogonalLoop=1;jettySize=auto;html=1;exitX=0.25;exitY=1;exitDx=0;exitDy=0;entryX=0.5;entryY=0;entryDx=0;entryDy=0;fontColor=#FEFAE0;" parent="1" source="5i9ivpqAXcweLOBhKeht-246" target="5i9ivpqAXcweLOBhKeht-254" edge="1">
          <mxGeometry relative="1" as="geometry" />
        </mxCell>
        <mxCell id="ILLf86DSIE8QrTmpPEF9-116" style="edgeStyle=orthogonalEdgeStyle;rounded=0;orthogonalLoop=1;jettySize=auto;html=1;exitX=0.25;exitY=1;exitDx=0;exitDy=0;entryX=0.5;entryY=0;entryDx=0;entryDy=0;fontColor=#FEFAE0;" parent="1" source="5i9ivpqAXcweLOBhKeht-246" target="5i9ivpqAXcweLOBhKeht-255" edge="1">
          <mxGeometry relative="1" as="geometry" />
        </mxCell>
        <mxCell id="ILLf86DSIE8QrTmpPEF9-117" style="edgeStyle=orthogonalEdgeStyle;rounded=0;orthogonalLoop=1;jettySize=auto;html=1;exitX=0.25;exitY=1;exitDx=0;exitDy=0;entryX=0.5;entryY=0;entryDx=0;entryDy=0;fontColor=#FEFAE0;" parent="1" source="5i9ivpqAXcweLOBhKeht-246" target="5i9ivpqAXcweLOBhKeht-257" edge="1">
          <mxGeometry relative="1" as="geometry" />
        </mxCell>
        <mxCell id="ILLf86DSIE8QrTmpPEF9-118" style="edgeStyle=orthogonalEdgeStyle;rounded=0;orthogonalLoop=1;jettySize=auto;html=1;exitX=0.25;exitY=1;exitDx=0;exitDy=0;entryX=0.5;entryY=0;entryDx=0;entryDy=0;fontColor=#FEFAE0;" parent="1" source="5i9ivpqAXcweLOBhKeht-246" target="5i9ivpqAXcweLOBhKeht-256" edge="1">
          <mxGeometry relative="1" as="geometry" />
        </mxCell>
        <mxCell id="ILLf86DSIE8QrTmpPEF9-119" style="edgeStyle=orthogonalEdgeStyle;rounded=0;orthogonalLoop=1;jettySize=auto;html=1;exitX=0.25;exitY=1;exitDx=0;exitDy=0;entryX=0.5;entryY=0;entryDx=0;entryDy=0;fontColor=#FEFAE0;" parent="1" source="5i9ivpqAXcweLOBhKeht-246" target="5i9ivpqAXcweLOBhKeht-258" edge="1">
          <mxGeometry relative="1" as="geometry" />
        </mxCell>
        <mxCell id="ILLf86DSIE8QrTmpPEF9-120" style="edgeStyle=orthogonalEdgeStyle;rounded=0;orthogonalLoop=1;jettySize=auto;html=1;exitX=0.25;exitY=1;exitDx=0;exitDy=0;entryX=0.5;entryY=0;entryDx=0;entryDy=0;fontColor=#FEFAE0;" parent="1" source="5i9ivpqAXcweLOBhKeht-246" target="5i9ivpqAXcweLOBhKeht-265" edge="1">
          <mxGeometry relative="1" as="geometry" />
        </mxCell>
        <mxCell id="ILLf86DSIE8QrTmpPEF9-121" style="edgeStyle=orthogonalEdgeStyle;rounded=0;orthogonalLoop=1;jettySize=auto;html=1;exitX=0.25;exitY=1;exitDx=0;exitDy=0;entryX=0.5;entryY=0;entryDx=0;entryDy=0;fontColor=#FEFAE0;" parent="1" source="5i9ivpqAXcweLOBhKeht-246" target="5i9ivpqAXcweLOBhKeht-269" edge="1">
          <mxGeometry relative="1" as="geometry" />
        </mxCell>
        <mxCell id="ILLf86DSIE8QrTmpPEF9-122" style="edgeStyle=orthogonalEdgeStyle;rounded=0;orthogonalLoop=1;jettySize=auto;html=1;exitX=0.25;exitY=1;exitDx=0;exitDy=0;entryX=0.5;entryY=0;entryDx=0;entryDy=0;fontColor=#FEFAE0;" parent="1" source="5i9ivpqAXcweLOBhKeht-246" target="5i9ivpqAXcweLOBhKeht-271" edge="1">
          <mxGeometry relative="1" as="geometry" />
        </mxCell>
        <mxCell id="ILLf86DSIE8QrTmpPEF9-123" style="edgeStyle=orthogonalEdgeStyle;rounded=0;orthogonalLoop=1;jettySize=auto;html=1;exitX=0.25;exitY=1;exitDx=0;exitDy=0;entryX=0.5;entryY=0;entryDx=0;entryDy=0;fontColor=#FEFAE0;" parent="1" source="5i9ivpqAXcweLOBhKeht-246" target="5i9ivpqAXcweLOBhKeht-270" edge="1">
          <mxGeometry relative="1" as="geometry" />
        </mxCell>
        <mxCell id="ILLf86DSIE8QrTmpPEF9-124" style="edgeStyle=orthogonalEdgeStyle;rounded=0;orthogonalLoop=1;jettySize=auto;html=1;exitX=0.25;exitY=1;exitDx=0;exitDy=0;entryX=0.35;entryY=0.206;entryDx=0;entryDy=0;entryPerimeter=0;fontColor=#FEFAE0;" parent="1" source="5i9ivpqAXcweLOBhKeht-246" target="5i9ivpqAXcweLOBhKeht-259" edge="1">
          <mxGeometry relative="1" as="geometry">
            <Array as="points">
              <mxPoint x="-282" y="-1619" />
              <mxPoint x="-140" y="-1619" />
              <mxPoint x="-140" y="-1550" />
            </Array>
          </mxGeometry>
        </mxCell>
        <mxCell id="ILLf86DSIE8QrTmpPEF9-125" style="edgeStyle=orthogonalEdgeStyle;rounded=0;orthogonalLoop=1;jettySize=auto;html=1;exitX=0.25;exitY=1;exitDx=0;exitDy=0;entryX=0.5;entryY=0;entryDx=0;entryDy=0;fontColor=#FEFAE0;" parent="1" source="5i9ivpqAXcweLOBhKeht-246" target="5i9ivpqAXcweLOBhKeht-260" edge="1">
          <mxGeometry relative="1" as="geometry">
            <Array as="points">
              <mxPoint x="-282" y="-1620" />
              <mxPoint x="-5" y="-1620" />
            </Array>
          </mxGeometry>
        </mxCell>
        <mxCell id="5i9ivpqAXcweLOBhKeht-246" value="&lt;font style=&quot;font-size: 20px&quot;&gt;&lt;b&gt;Staff&lt;/b&gt;&lt;/font&gt;" style="rounded=1;arcSize=10;whiteSpace=wrap;html=1;align=center;fillColor=#e1d5e7;strokeColor=#9673a6;" parent="1" vertex="1">
          <mxGeometry x="-360" y="-1780" width="310" height="100" as="geometry" />
        </mxCell>
        <mxCell id="5i9ivpqAXcweLOBhKeht-249" value="Dept_Id" style="ellipse;whiteSpace=wrap;html=1;align=center;fontStyle=4;fillColor=#f8cecc;strokeColor=#b85450;" parent="1" vertex="1">
          <mxGeometry x="810" y="-590" width="100" height="40" as="geometry" />
        </mxCell>
        <mxCell id="5i9ivpqAXcweLOBhKeht-250" value="Description" style="ellipse;whiteSpace=wrap;html=1;align=center;fillColor=#fff2cc;strokeColor=#d6b656;" parent="1" vertex="1">
          <mxGeometry x="810" y="-430" width="100" height="40" as="geometry" />
        </mxCell>
        <mxCell id="5i9ivpqAXcweLOBhKeht-251" value="Name" style="ellipse;whiteSpace=wrap;html=1;align=center;fillColor=#fff2cc;strokeColor=#d6b656;" parent="1" vertex="1">
          <mxGeometry x="810" y="-540" width="100" height="40" as="geometry" />
        </mxCell>
        <mxCell id="5i9ivpqAXcweLOBhKeht-252" value="Group_Name" style="ellipse;whiteSpace=wrap;html=1;align=center;fillColor=#fff2cc;strokeColor=#d6b656;" parent="1" vertex="1">
          <mxGeometry x="810" y="-490" width="100" height="40" as="geometry" />
        </mxCell>
        <mxCell id="5i9ivpqAXcweLOBhKeht-254" value="Staff_Id" style="ellipse;whiteSpace=wrap;html=1;align=center;fontStyle=4;fillColor=#f8cecc;strokeColor=#b85450;" parent="1" vertex="1">
          <mxGeometry x="-1150" y="-1564.25" width="100" height="40" as="geometry" />
        </mxCell>
        <mxCell id="5i9ivpqAXcweLOBhKeht-291" style="edgeStyle=orthogonalEdgeStyle;rounded=0;orthogonalLoop=1;jettySize=auto;html=1;" parent="1" source="5i9ivpqAXcweLOBhKeht-255" edge="1">
          <mxGeometry relative="1" as="geometry">
            <Array as="points">
              <mxPoint x="-990" y="-1518.25" />
              <mxPoint x="-1110" y="-1518.25" />
            </Array>
            <mxPoint x="-1110" y="-1488.25" as="targetPoint" />
          </mxGeometry>
        </mxCell>
        <mxCell id="5i9ivpqAXcweLOBhKeht-292" style="edgeStyle=orthogonalEdgeStyle;rounded=0;orthogonalLoop=1;jettySize=auto;html=1;entryX=0.599;entryY=-0.002;entryDx=0;entryDy=0;entryPerimeter=0;" parent="1" source="5i9ivpqAXcweLOBhKeht-255" target="5i9ivpqAXcweLOBhKeht-262" edge="1">
          <mxGeometry relative="1" as="geometry" />
        </mxCell>
        <mxCell id="5i9ivpqAXcweLOBhKeht-293" style="edgeStyle=orthogonalEdgeStyle;rounded=0;orthogonalLoop=1;jettySize=auto;html=1;" parent="1" source="5i9ivpqAXcweLOBhKeht-255" target="5i9ivpqAXcweLOBhKeht-261" edge="1">
          <mxGeometry relative="1" as="geometry">
            <Array as="points">
              <mxPoint x="-990" y="-1518.25" />
              <mxPoint x="-890" y="-1518.25" />
            </Array>
          </mxGeometry>
        </mxCell>
        <mxCell id="5i9ivpqAXcweLOBhKeht-255" value="Name" style="ellipse;whiteSpace=wrap;html=1;align=center;fillColor=#fff2cc;strokeColor=#d6b656;" parent="1" vertex="1">
          <mxGeometry x="-1040" y="-1564.25" width="100" height="40" as="geometry" />
        </mxCell>
        <mxCell id="5i9ivpqAXcweLOBhKeht-256" value="Date_of_Birth" style="ellipse;whiteSpace=wrap;html=1;align=center;fillColor=#fff2cc;strokeColor=#d6b656;" parent="1" vertex="1">
          <mxGeometry x="-825" y="-1564.25" width="100" height="40" as="geometry" />
        </mxCell>
        <mxCell id="5i9ivpqAXcweLOBhKeht-257" value="Gender" style="ellipse;whiteSpace=wrap;html=1;align=center;fillColor=#fff2cc;strokeColor=#d6b656;" parent="1" vertex="1">
          <mxGeometry x="-930" y="-1564.25" width="100" height="40" as="geometry" />
        </mxCell>
        <mxCell id="5i9ivpqAXcweLOBhKeht-258" value="Age" style="ellipse;whiteSpace=wrap;html=1;align=center;dashed=1;fillColor=#fff2cc;strokeColor=#d6b656;" parent="1" vertex="1">
          <mxGeometry x="-720" y="-1564.25" width="100" height="40" as="geometry" />
        </mxCell>
        <mxCell id="5i9ivpqAXcweLOBhKeht-259" value="Phone" style="ellipse;shape=doubleEllipse;margin=3;whiteSpace=wrap;html=1;align=center;fillColor=#fff2cc;strokeColor=#d6b656;" parent="1" vertex="1">
          <mxGeometry x="-165" y="-1558.25" width="100" height="40" as="geometry" />
        </mxCell>
        <mxCell id="5i9ivpqAXcweLOBhKeht-260" value="Email" style="ellipse;whiteSpace=wrap;html=1;align=center;fillColor=#fff2cc;strokeColor=#d6b656;" parent="1" vertex="1">
          <mxGeometry x="-55" y="-1561.25" width="100" height="40" as="geometry" />
        </mxCell>
        <mxCell id="5i9ivpqAXcweLOBhKeht-261" value="Last_Name" style="ellipse;whiteSpace=wrap;html=1;align=center;fillColor=#fff2cc;strokeColor=#d6b656;" parent="1" vertex="1">
          <mxGeometry x="-940" y="-1488.25" width="100" height="40" as="geometry" />
        </mxCell>
        <mxCell id="5i9ivpqAXcweLOBhKeht-262" value="Middle_Name" style="ellipse;whiteSpace=wrap;html=1;align=center;fillColor=#fff2cc;strokeColor=#d6b656;" parent="1" vertex="1">
          <mxGeometry x="-1050" y="-1488.25" width="100" height="40" as="geometry" />
        </mxCell>
        <mxCell id="5i9ivpqAXcweLOBhKeht-263" value="First_Name" style="ellipse;whiteSpace=wrap;html=1;align=center;fillColor=#fff2cc;strokeColor=#d6b656;" parent="1" vertex="1">
          <mxGeometry x="-1160" y="-1488.25" width="100" height="40" as="geometry" />
        </mxCell>
        <mxCell id="5i9ivpqAXcweLOBhKeht-277" style="edgeStyle=orthogonalEdgeStyle;rounded=0;orthogonalLoop=1;jettySize=auto;html=1;entryX=0.728;entryY=0.065;entryDx=0;entryDy=0;entryPerimeter=0;" parent="1" source="5i9ivpqAXcweLOBhKeht-265" target="5i9ivpqAXcweLOBhKeht-275" edge="1">
          <mxGeometry relative="1" as="geometry" />
        </mxCell>
        <mxCell id="5i9ivpqAXcweLOBhKeht-278" style="edgeStyle=orthogonalEdgeStyle;rounded=0;orthogonalLoop=1;jettySize=auto;html=1;entryX=0.592;entryY=-0.07;entryDx=0;entryDy=0;entryPerimeter=0;" parent="1" source="5i9ivpqAXcweLOBhKeht-265" target="5i9ivpqAXcweLOBhKeht-274" edge="1">
          <mxGeometry relative="1" as="geometry" />
        </mxCell>
        <mxCell id="5i9ivpqAXcweLOBhKeht-279" style="edgeStyle=orthogonalEdgeStyle;rounded=0;orthogonalLoop=1;jettySize=auto;html=1;" parent="1" source="5i9ivpqAXcweLOBhKeht-265" target="5i9ivpqAXcweLOBhKeht-273" edge="1">
          <mxGeometry relative="1" as="geometry">
            <Array as="points">
              <mxPoint x="-566" y="-1501.25" />
              <mxPoint x="-436" y="-1501.25" />
            </Array>
          </mxGeometry>
        </mxCell>
        <mxCell id="5i9ivpqAXcweLOBhKeht-280" style="edgeStyle=orthogonalEdgeStyle;rounded=0;orthogonalLoop=1;jettySize=auto;html=1;" parent="1" source="5i9ivpqAXcweLOBhKeht-265" target="5i9ivpqAXcweLOBhKeht-272" edge="1">
          <mxGeometry relative="1" as="geometry">
            <Array as="points">
              <mxPoint x="-566" y="-1501.25" />
              <mxPoint x="-326" y="-1501.25" />
            </Array>
          </mxGeometry>
        </mxCell>
        <mxCell id="5i9ivpqAXcweLOBhKeht-265" value="Address" style="ellipse;whiteSpace=wrap;html=1;align=center;fillColor=#fff2cc;strokeColor=#d6b656;" parent="1" vertex="1">
          <mxGeometry x="-616" y="-1561.25" width="100" height="40" as="geometry" />
        </mxCell>
        <mxCell id="5i9ivpqAXcweLOBhKeht-269" value="Hire_date" style="ellipse;whiteSpace=wrap;html=1;align=center;fillColor=#fff2cc;strokeColor=#d6b656;" parent="1" vertex="1">
          <mxGeometry x="-506" y="-1561.25" width="100" height="40" as="geometry" />
        </mxCell>
        <mxCell id="5i9ivpqAXcweLOBhKeht-270" value="Description_of_job" style="ellipse;whiteSpace=wrap;html=1;align=center;fillColor=#fff2cc;strokeColor=#d6b656;" parent="1" vertex="1">
          <mxGeometry x="-282.5" y="-1558.25" width="100" height="40" as="geometry" />
        </mxCell>
        <mxCell id="5i9ivpqAXcweLOBhKeht-271" value="Title_of_Job" style="ellipse;whiteSpace=wrap;html=1;align=center;fillColor=#fff2cc;strokeColor=#d6b656;" parent="1" vertex="1">
          <mxGeometry x="-395" y="-1558.25" width="100" height="40" as="geometry" />
        </mxCell>
        <mxCell id="5i9ivpqAXcweLOBhKeht-272" value="Zip_code" style="ellipse;whiteSpace=wrap;html=1;align=center;fillColor=#fff2cc;strokeColor=#d6b656;" parent="1" vertex="1">
          <mxGeometry x="-376" y="-1476.25" width="100" height="40" as="geometry" />
        </mxCell>
        <mxCell id="5i9ivpqAXcweLOBhKeht-273" value="State" style="ellipse;whiteSpace=wrap;html=1;align=center;fillColor=#fff2cc;strokeColor=#d6b656;" parent="1" vertex="1">
          <mxGeometry x="-496" y="-1476.25" width="100" height="40" as="geometry" />
        </mxCell>
        <mxCell id="5i9ivpqAXcweLOBhKeht-274" value="Street" style="ellipse;whiteSpace=wrap;html=1;align=center;fillColor=#fff2cc;strokeColor=#d6b656;" parent="1" vertex="1">
          <mxGeometry x="-601" y="-1481.25" width="100" height="40" as="geometry" />
        </mxCell>
        <mxCell id="5i9ivpqAXcweLOBhKeht-275" value="City" style="ellipse;whiteSpace=wrap;html=1;align=center;fillColor=#fff2cc;strokeColor=#d6b656;" parent="1" vertex="1">
          <mxGeometry x="-716" y="-1481.25" width="100" height="40" as="geometry" />
        </mxCell>
        <mxCell id="5i9ivpqAXcweLOBhKeht-282" value="Discount" style="ellipse;whiteSpace=wrap;html=1;align=center;fillColor=#fff2cc;strokeColor=#d6b656;" parent="1" vertex="1">
          <mxGeometry x="-2" y="-1756.25" width="100" height="40" as="geometry" />
        </mxCell>
        <mxCell id="5i9ivpqAXcweLOBhKeht-283" value="Bouns" style="ellipse;whiteSpace=wrap;html=1;align=center;fillColor=#fff2cc;strokeColor=#d6b656;" parent="1" vertex="1">
          <mxGeometry x="-2" y="-1866.25" width="100" height="40" as="geometry" />
        </mxCell>
        <mxCell id="5i9ivpqAXcweLOBhKeht-284" value="Main_Salary" style="ellipse;whiteSpace=wrap;html=1;align=center;fillColor=#fff2cc;strokeColor=#d6b656;" parent="1" vertex="1">
          <mxGeometry x="-2" y="-1916.25" width="100" height="40" as="geometry" />
        </mxCell>
        <mxCell id="5i9ivpqAXcweLOBhKeht-285" value="Work_hour" style="ellipse;whiteSpace=wrap;html=1;align=center;fillColor=#fff2cc;strokeColor=#d6b656;" parent="1" vertex="1">
          <mxGeometry x="-2" y="-1806.25" width="100" height="40" as="geometry" />
        </mxCell>
        <mxCell id="5i9ivpqAXcweLOBhKeht-294" value="Total_Salary" style="ellipse;whiteSpace=wrap;html=1;align=center;dashed=1;fillColor=#fff2cc;strokeColor=#d6b656;" parent="1" vertex="1">
          <mxGeometry x="-2" y="-1696.25" width="100" height="40" as="geometry" />
        </mxCell>
        <mxCell id="5i9ivpqAXcweLOBhKeht-331" style="edgeStyle=orthogonalEdgeStyle;rounded=0;orthogonalLoop=1;jettySize=auto;html=1;entryX=1;entryY=0.5;entryDx=0;entryDy=0;" parent="1" source="5i9ivpqAXcweLOBhKeht-320" target="5i9ivpqAXcweLOBhKeht-322" edge="1">
          <mxGeometry relative="1" as="geometry" />
        </mxCell>
        <mxCell id="5i9ivpqAXcweLOBhKeht-332" style="edgeStyle=orthogonalEdgeStyle;rounded=0;orthogonalLoop=1;jettySize=auto;html=1;entryX=1;entryY=0.5;entryDx=0;entryDy=0;" parent="1" source="5i9ivpqAXcweLOBhKeht-320" target="5i9ivpqAXcweLOBhKeht-326" edge="1">
          <mxGeometry relative="1" as="geometry" />
        </mxCell>
        <mxCell id="5i9ivpqAXcweLOBhKeht-333" style="edgeStyle=orthogonalEdgeStyle;rounded=0;orthogonalLoop=1;jettySize=auto;html=1;entryX=1;entryY=0.5;entryDx=0;entryDy=0;" parent="1" source="5i9ivpqAXcweLOBhKeht-320" target="5i9ivpqAXcweLOBhKeht-327" edge="1">
          <mxGeometry relative="1" as="geometry" />
        </mxCell>
        <mxCell id="5i9ivpqAXcweLOBhKeht-334" style="edgeStyle=orthogonalEdgeStyle;rounded=0;orthogonalLoop=1;jettySize=auto;html=1;entryX=1;entryY=0.5;entryDx=0;entryDy=0;" parent="1" source="5i9ivpqAXcweLOBhKeht-320" target="KDzrLPc6gg60PK9FeB10-22" edge="1">
          <mxGeometry relative="1" as="geometry">
            <Array as="points">
              <mxPoint x="-451" y="486" />
              <mxPoint x="-451" y="546" />
              <mxPoint x="-486" y="546" />
            </Array>
            <mxPoint x="-486" y="546.5" as="targetPoint" />
          </mxGeometry>
        </mxCell>
        <mxCell id="5i9ivpqAXcweLOBhKeht-335" style="edgeStyle=orthogonalEdgeStyle;rounded=0;orthogonalLoop=1;jettySize=auto;html=1;entryX=1;entryY=0.5;entryDx=0;entryDy=0;" parent="1" source="5i9ivpqAXcweLOBhKeht-320" target="KDzrLPc6gg60PK9FeB10-23" edge="1">
          <mxGeometry relative="1" as="geometry">
            <Array as="points">
              <mxPoint x="-451" y="487" />
              <mxPoint x="-451" y="607" />
              <mxPoint x="-496" y="607" />
            </Array>
            <mxPoint x="-486" y="606.5" as="targetPoint" />
          </mxGeometry>
        </mxCell>
        <mxCell id="ILLf86DSIE8QrTmpPEF9-152" style="edgeStyle=orthogonalEdgeStyle;rounded=0;orthogonalLoop=1;jettySize=auto;html=1;exitX=1;exitY=0.5;exitDx=0;exitDy=0;entryX=0;entryY=0.5;entryDx=0;entryDy=0;fontColor=#FEFAE0;shape=link;" parent="1" source="5i9ivpqAXcweLOBhKeht-320" target="ILLf86DSIE8QrTmpPEF9-29" edge="1">
          <mxGeometry relative="1" as="geometry" />
        </mxCell>
        <mxCell id="5i9ivpqAXcweLOBhKeht-320" value="&lt;font style=&quot;font-size: 20px&quot;&gt;&lt;b&gt;Report&lt;/b&gt;&lt;/font&gt;" style="shape=ext;margin=3;double=1;whiteSpace=wrap;html=1;align=center;fillColor=#e1d5e7;strokeColor=#9673a6;" parent="1" vertex="1">
          <mxGeometry x="-401" y="456.5" width="160" height="60" as="geometry" />
        </mxCell>
        <mxCell id="5i9ivpqAXcweLOBhKeht-322" value="Report_Id" style="ellipse;whiteSpace=wrap;html=1;align=center;fontStyle=4;fillColor=#f8cecc;strokeColor=#b85450;" parent="1" vertex="1">
          <mxGeometry x="-601" y="347.5" width="100" height="40" as="geometry" />
        </mxCell>
        <mxCell id="5i9ivpqAXcweLOBhKeht-326" value="Date" style="ellipse;whiteSpace=wrap;html=1;align=center;fillColor=#fff2cc;strokeColor=#d6b656;" parent="1" vertex="1">
          <mxGeometry x="-601" y="406.5" width="100" height="40" as="geometry" />
        </mxCell>
        <mxCell id="5i9ivpqAXcweLOBhKeht-327" value="Purpose" style="ellipse;whiteSpace=wrap;html=1;align=center;fillColor=#fff2cc;strokeColor=#d6b656;" parent="1" vertex="1">
          <mxGeometry x="-596" y="466.5" width="100" height="40" as="geometry" />
        </mxCell>
        <mxCell id="5i9ivpqAXcweLOBhKeht-358" style="edgeStyle=orthogonalEdgeStyle;rounded=0;orthogonalLoop=1;jettySize=auto;html=1;" parent="1" source="5i9ivpqAXcweLOBhKeht-342" target="5i9ivpqAXcweLOBhKeht-346" edge="1">
          <mxGeometry relative="1" as="geometry">
            <Array as="points">
              <mxPoint x="2403" y="-500" />
              <mxPoint x="2150" y="-500" />
            </Array>
          </mxGeometry>
        </mxCell>
        <mxCell id="5i9ivpqAXcweLOBhKeht-361" style="edgeStyle=orthogonalEdgeStyle;rounded=0;orthogonalLoop=1;jettySize=auto;html=1;entryX=0.474;entryY=0.021;entryDx=0;entryDy=0;entryPerimeter=0;" parent="1" source="5i9ivpqAXcweLOBhKeht-342" target="5i9ivpqAXcweLOBhKeht-352" edge="1">
          <mxGeometry relative="1" as="geometry">
            <Array as="points">
              <mxPoint x="2403" y="-500" />
              <mxPoint x="2252" y="-500" />
            </Array>
          </mxGeometry>
        </mxCell>
        <mxCell id="5i9ivpqAXcweLOBhKeht-362" style="edgeStyle=orthogonalEdgeStyle;rounded=0;orthogonalLoop=1;jettySize=auto;html=1;entryX=0.5;entryY=0;entryDx=0;entryDy=0;" parent="1" source="5i9ivpqAXcweLOBhKeht-342" target="KDzrLPc6gg60PK9FeB10-25" edge="1">
          <mxGeometry relative="1" as="geometry">
            <Array as="points">
              <mxPoint x="2403" y="-500" />
              <mxPoint x="2365" y="-500" />
            </Array>
            <mxPoint x="2365" y="-470" as="targetPoint" />
          </mxGeometry>
        </mxCell>
        <mxCell id="5i9ivpqAXcweLOBhKeht-363" style="edgeStyle=orthogonalEdgeStyle;rounded=0;orthogonalLoop=1;jettySize=auto;html=1;entryX=0.5;entryY=0;entryDx=0;entryDy=0;" parent="1" source="5i9ivpqAXcweLOBhKeht-342" target="5i9ivpqAXcweLOBhKeht-354" edge="1">
          <mxGeometry relative="1" as="geometry">
            <Array as="points">
              <mxPoint x="2403" y="-500" />
              <mxPoint x="2475" y="-500" />
            </Array>
          </mxGeometry>
        </mxCell>
        <mxCell id="5i9ivpqAXcweLOBhKeht-364" style="edgeStyle=orthogonalEdgeStyle;rounded=0;orthogonalLoop=1;jettySize=auto;html=1;" parent="1" source="5i9ivpqAXcweLOBhKeht-342" target="5i9ivpqAXcweLOBhKeht-355" edge="1">
          <mxGeometry relative="1" as="geometry">
            <Array as="points">
              <mxPoint x="2403" y="-500" />
              <mxPoint x="2585" y="-500" />
            </Array>
          </mxGeometry>
        </mxCell>
        <mxCell id="ILLf86DSIE8QrTmpPEF9-167" style="edgeStyle=orthogonalEdgeStyle;rounded=0;orthogonalLoop=1;jettySize=auto;html=1;exitX=0.5;exitY=0;exitDx=0;exitDy=0;entryX=0.5;entryY=1;entryDx=0;entryDy=0;fontColor=#FEFAE0;shape=link;" parent="1" source="5i9ivpqAXcweLOBhKeht-342" target="ILLf86DSIE8QrTmpPEF9-68" edge="1">
          <mxGeometry relative="1" as="geometry">
            <Array as="points">
              <mxPoint x="2398" y="-579" />
              <mxPoint x="2398" y="-680" />
            </Array>
          </mxGeometry>
        </mxCell>
        <mxCell id="5i9ivpqAXcweLOBhKeht-342" value="&lt;font style=&quot;font-size: 20px&quot;&gt;&lt;b&gt;Events&lt;/b&gt;&lt;/font&gt;" style="rounded=1;arcSize=10;whiteSpace=wrap;html=1;align=center;fillColor=#e1d5e7;strokeColor=#9673a6;" parent="1" vertex="1">
          <mxGeometry x="2300" y="-579" width="205" height="70" as="geometry" />
        </mxCell>
        <mxCell id="5i9ivpqAXcweLOBhKeht-367" style="edgeStyle=orthogonalEdgeStyle;rounded=0;orthogonalLoop=1;jettySize=auto;html=1;entryX=0;entryY=0.5;entryDx=0;entryDy=0;" parent="1" source="5i9ivpqAXcweLOBhKeht-343" target="5i9ivpqAXcweLOBhKeht-344" edge="1">
          <mxGeometry relative="1" as="geometry" />
        </mxCell>
        <mxCell id="5i9ivpqAXcweLOBhKeht-368" style="edgeStyle=orthogonalEdgeStyle;rounded=0;orthogonalLoop=1;jettySize=auto;html=1;entryX=0;entryY=0.5;entryDx=0;entryDy=0;" parent="1" source="5i9ivpqAXcweLOBhKeht-343" target="5i9ivpqAXcweLOBhKeht-349" edge="1">
          <mxGeometry relative="1" as="geometry" />
        </mxCell>
        <mxCell id="5i9ivpqAXcweLOBhKeht-369" style="edgeStyle=orthogonalEdgeStyle;rounded=0;orthogonalLoop=1;jettySize=auto;html=1;entryX=0;entryY=0.5;entryDx=0;entryDy=0;" parent="1" source="5i9ivpqAXcweLOBhKeht-343" target="5i9ivpqAXcweLOBhKeht-345" edge="1">
          <mxGeometry relative="1" as="geometry" />
        </mxCell>
        <mxCell id="5i9ivpqAXcweLOBhKeht-370" style="edgeStyle=orthogonalEdgeStyle;rounded=0;orthogonalLoop=1;jettySize=auto;html=1;entryX=0;entryY=0.5;entryDx=0;entryDy=0;" parent="1" source="5i9ivpqAXcweLOBhKeht-343" target="5i9ivpqAXcweLOBhKeht-350" edge="1">
          <mxGeometry relative="1" as="geometry" />
        </mxCell>
        <mxCell id="5i9ivpqAXcweLOBhKeht-371" style="edgeStyle=orthogonalEdgeStyle;rounded=0;orthogonalLoop=1;jettySize=auto;html=1;entryX=0;entryY=0.5;entryDx=0;entryDy=0;" parent="1" source="5i9ivpqAXcweLOBhKeht-343" target="5i9ivpqAXcweLOBhKeht-348" edge="1">
          <mxGeometry relative="1" as="geometry" />
        </mxCell>
        <mxCell id="ILLf86DSIE8QrTmpPEF9-161" style="edgeStyle=orthogonalEdgeStyle;rounded=0;orthogonalLoop=1;jettySize=auto;html=1;entryX=0.5;entryY=0;entryDx=0;entryDy=0;fontColor=#FEFAE0;exitX=0.25;exitY=1;exitDx=0;exitDy=0;shape=link;" parent="1" source="5i9ivpqAXcweLOBhKeht-343" target="ILLf86DSIE8QrTmpPEF9-160" edge="1">
          <mxGeometry relative="1" as="geometry">
            <Array as="points">
              <mxPoint x="2300" y="-1141" />
              <mxPoint x="2300" y="-1100" />
              <mxPoint x="1570" y="-1100" />
            </Array>
          </mxGeometry>
        </mxCell>
        <mxCell id="5i9ivpqAXcweLOBhKeht-343" value="&lt;font style=&quot;font-size: 20px&quot;&gt;&lt;b&gt;Labs&lt;/b&gt;&lt;/font&gt;" style="rounded=1;arcSize=10;whiteSpace=wrap;html=1;align=center;fillColor=#e1d5e7;strokeColor=#9673a6;" parent="1" vertex="1">
          <mxGeometry x="2300" y="-1231" width="195" height="90" as="geometry" />
        </mxCell>
        <mxCell id="5i9ivpqAXcweLOBhKeht-344" value="Lab_Id" style="ellipse;whiteSpace=wrap;html=1;align=center;fontStyle=4;fillColor=#f8cecc;strokeColor=#b85450;" parent="1" vertex="1">
          <mxGeometry x="2530" y="-1231" width="100" height="40" as="geometry" />
        </mxCell>
        <mxCell id="5i9ivpqAXcweLOBhKeht-345" value="Name" style="ellipse;whiteSpace=wrap;html=1;align=center;fillColor=#fff2cc;strokeColor=#d6b656;" parent="1" vertex="1">
          <mxGeometry x="2530" y="-1111" width="100" height="40" as="geometry" />
        </mxCell>
        <mxCell id="5i9ivpqAXcweLOBhKeht-346" value="Event_Id" style="ellipse;whiteSpace=wrap;html=1;align=center;fillColor=#f8cecc;strokeColor=#b85450;" parent="1" vertex="1">
          <mxGeometry x="2100" y="-470" width="100" height="40" as="geometry" />
        </mxCell>
        <mxCell id="5i9ivpqAXcweLOBhKeht-348" value="Capacity" style="ellipse;whiteSpace=wrap;html=1;align=center;fillColor=#fff2cc;strokeColor=#d6b656;" parent="1" vertex="1">
          <mxGeometry x="2530" y="-1001" width="100" height="40" as="geometry" />
        </mxCell>
        <mxCell id="5i9ivpqAXcweLOBhKeht-349" value="Number" style="ellipse;whiteSpace=wrap;html=1;align=center;fillColor=#fff2cc;strokeColor=#d6b656;" parent="1" vertex="1">
          <mxGeometry x="2530" y="-1171" width="100" height="40" as="geometry" />
        </mxCell>
        <mxCell id="KDzrLPc6gg60PK9FeB10-7" style="edgeStyle=orthogonalEdgeStyle;rounded=0;orthogonalLoop=1;jettySize=auto;html=1;exitX=1;exitY=0.5;exitDx=0;exitDy=0;" parent="1" source="5i9ivpqAXcweLOBhKeht-350" target="KDzrLPc6gg60PK9FeB10-11" edge="1">
          <mxGeometry relative="1" as="geometry">
            <mxPoint x="2740" y="-1031" as="targetPoint" />
          </mxGeometry>
        </mxCell>
        <mxCell id="KDzrLPc6gg60PK9FeB10-8" style="edgeStyle=orthogonalEdgeStyle;rounded=0;orthogonalLoop=1;jettySize=auto;html=1;exitX=1;exitY=0.5;exitDx=0;exitDy=0;entryX=0;entryY=0.525;entryDx=0;entryDy=0;entryPerimeter=0;" parent="1" source="5i9ivpqAXcweLOBhKeht-350" target="KDzrLPc6gg60PK9FeB10-10" edge="1">
          <mxGeometry relative="1" as="geometry">
            <mxPoint x="2750" y="-1090" as="targetPoint" />
            <Array as="points">
              <mxPoint x="2660" y="-1031" />
              <mxPoint x="2660" y="-1090" />
            </Array>
          </mxGeometry>
        </mxCell>
        <mxCell id="KDzrLPc6gg60PK9FeB10-9" style="edgeStyle=orthogonalEdgeStyle;rounded=0;orthogonalLoop=1;jettySize=auto;html=1;exitX=1;exitY=0.5;exitDx=0;exitDy=0;entryX=0;entryY=0.5;entryDx=0;entryDy=0;" parent="1" source="5i9ivpqAXcweLOBhKeht-350" target="KDzrLPc6gg60PK9FeB10-12" edge="1">
          <mxGeometry relative="1" as="geometry">
            <mxPoint x="2750" y="-980" as="targetPoint" />
            <Array as="points">
              <mxPoint x="2660" y="-1031" />
              <mxPoint x="2660" y="-980" />
            </Array>
          </mxGeometry>
        </mxCell>
        <mxCell id="5i9ivpqAXcweLOBhKeht-350" value="Services" style="ellipse;shape=doubleEllipse;margin=3;whiteSpace=wrap;html=1;align=center;fillColor=#fff2cc;strokeColor=#d6b656;" parent="1" vertex="1">
          <mxGeometry x="2530" y="-1051" width="100" height="40" as="geometry" />
        </mxCell>
        <mxCell id="5i9ivpqAXcweLOBhKeht-352" value="Occasion_Name" style="ellipse;whiteSpace=wrap;html=1;align=center;fillColor=#fff2cc;strokeColor=#d6b656;" parent="1" vertex="1">
          <mxGeometry x="2205" y="-470" width="100" height="40" as="geometry" />
        </mxCell>
        <mxCell id="5i9ivpqAXcweLOBhKeht-354" value="Number_of_Days" style="ellipse;whiteSpace=wrap;html=1;align=center;fillColor=#fff2cc;strokeColor=#d6b656;" parent="1" vertex="1">
          <mxGeometry x="2425" y="-470" width="100" height="40" as="geometry" />
        </mxCell>
        <mxCell id="5i9ivpqAXcweLOBhKeht-355" value="Duration" style="ellipse;whiteSpace=wrap;html=1;align=center;fillColor=#fff2cc;strokeColor=#d6b656;" parent="1" vertex="1">
          <mxGeometry x="2535" y="-470" width="100" height="40" as="geometry" />
        </mxCell>
        <mxCell id="5i9ivpqAXcweLOBhKeht-372" value="&lt;font color=&quot;#000099&quot; size=&quot;1&quot;&gt;&lt;b style=&quot;font-size: 20px&quot;&gt;1&lt;/b&gt;&lt;/font&gt;" style="text;html=1;strokeColor=none;fillColor=none;align=center;verticalAlign=middle;whiteSpace=wrap;rounded=0;" parent="1" vertex="1">
          <mxGeometry x="1535" y="19" width="40" height="20" as="geometry" />
        </mxCell>
        <mxCell id="5i9ivpqAXcweLOBhKeht-375" value="&lt;font color=&quot;#000099&quot; size=&quot;1&quot;&gt;&lt;b style=&quot;font-size: 20px&quot;&gt;M&lt;/b&gt;&lt;/font&gt;" style="text;html=1;strokeColor=none;fillColor=none;align=center;verticalAlign=middle;whiteSpace=wrap;rounded=0;" parent="1" vertex="1">
          <mxGeometry x="1695" y="19" width="40" height="20" as="geometry" />
        </mxCell>
        <mxCell id="5i9ivpqAXcweLOBhKeht-376" value="&lt;font style=&quot;font-size: 20px&quot; color=&quot;#000099&quot;&gt;&lt;b&gt;M&lt;/b&gt;&lt;/font&gt;" style="text;html=1;strokeColor=none;fillColor=none;align=center;verticalAlign=middle;whiteSpace=wrap;rounded=0;" parent="1" vertex="1">
          <mxGeometry x="400" y="-51" width="40" height="20" as="geometry" />
        </mxCell>
        <mxCell id="5i9ivpqAXcweLOBhKeht-377" value="&lt;b&gt;&lt;font style=&quot;font-size: 20px&quot; color=&quot;#000099&quot;&gt;M&lt;/font&gt;&lt;/b&gt;" style="text;html=1;strokeColor=none;fillColor=none;align=center;verticalAlign=middle;whiteSpace=wrap;rounded=0;" parent="1" vertex="1">
          <mxGeometry x="560" y="-46" width="40" height="20" as="geometry" />
        </mxCell>
        <mxCell id="5i9ivpqAXcweLOBhKeht-378" value="Has" style="shape=rhombus;perimeter=rhombusPerimeter;whiteSpace=wrap;html=1;align=center;fillColor=#dae8fc;strokeColor=#6c8ebf;" parent="1" vertex="1">
          <mxGeometry x="645" y="-725" width="120" height="60" as="geometry" />
        </mxCell>
        <mxCell id="5i9ivpqAXcweLOBhKeht-386" value="&lt;font style=&quot;font-size: 20px&quot; color=&quot;#000099&quot;&gt;&lt;b&gt;1&lt;/b&gt;&lt;/font&gt;" style="text;html=1;strokeColor=none;fillColor=none;align=center;verticalAlign=middle;whiteSpace=wrap;rounded=0;" parent="1" vertex="1">
          <mxGeometry x="720" y="-755" width="40" height="20" as="geometry" />
        </mxCell>
        <mxCell id="5i9ivpqAXcweLOBhKeht-387" value="&lt;font style=&quot;font-size: 20px&quot; color=&quot;#000099&quot;&gt;&lt;b&gt;M&lt;/b&gt;&lt;/font&gt;" style="text;html=1;strokeColor=none;fillColor=none;align=center;verticalAlign=middle;whiteSpace=wrap;rounded=0;" parent="1" vertex="1">
          <mxGeometry x="720" y="-660" width="40" height="20" as="geometry" />
        </mxCell>
        <mxCell id="ILLf86DSIE8QrTmpPEF9-143" style="edgeStyle=orthogonalEdgeStyle;rounded=0;orthogonalLoop=1;jettySize=auto;html=1;exitX=0;exitY=0.5;exitDx=0;exitDy=0;entryX=1;entryY=0.5;entryDx=0;entryDy=0;fontColor=#FEFAE0;shape=link;" parent="1" source="5i9ivpqAXcweLOBhKeht-388" target="IJt0pZMBiccfIHnYekjX-4" edge="1">
          <mxGeometry relative="1" as="geometry" />
        </mxCell>
        <mxCell id="5i9ivpqAXcweLOBhKeht-388" value="Give" style="shape=rhombus;perimeter=rhombusPerimeter;whiteSpace=wrap;html=1;align=center;fillColor=#dae8fc;strokeColor=#6c8ebf;" parent="1" vertex="1">
          <mxGeometry x="470" y="-260" width="120" height="60" as="geometry" />
        </mxCell>
        <mxCell id="5i9ivpqAXcweLOBhKeht-391" value="&lt;font style=&quot;font-size: 20px&quot; color=&quot;#000099&quot;&gt;&lt;b&gt;1&lt;/b&gt;&lt;/font&gt;" style="text;html=1;strokeColor=none;fillColor=none;align=center;verticalAlign=middle;whiteSpace=wrap;rounded=0;" parent="1" vertex="1">
          <mxGeometry x="600" y="-270" width="40" height="20" as="geometry" />
        </mxCell>
        <mxCell id="5i9ivpqAXcweLOBhKeht-392" value="&lt;font style=&quot;font-size: 20px&quot; color=&quot;#000099&quot;&gt;&lt;b&gt;M&lt;/b&gt;&lt;/font&gt;" style="text;html=1;strokeColor=none;fillColor=none;align=center;verticalAlign=middle;whiteSpace=wrap;rounded=0;" parent="1" vertex="1">
          <mxGeometry x="430" y="-270" width="40" height="20" as="geometry" />
        </mxCell>
        <mxCell id="ILLf86DSIE8QrTmpPEF9-9" style="edgeStyle=orthogonalEdgeStyle;rounded=0;orthogonalLoop=1;jettySize=auto;html=1;exitX=0;exitY=0.5;exitDx=0;exitDy=0;" parent="1" source="5i9ivpqAXcweLOBhKeht-394" target="ILLf86DSIE8QrTmpPEF9-10" edge="1">
          <mxGeometry relative="1" as="geometry">
            <mxPoint x="410" y="390.3333333333335" as="targetPoint" />
            <Array as="points">
              <mxPoint x="440" y="381" />
              <mxPoint x="440" y="391" />
            </Array>
          </mxGeometry>
        </mxCell>
        <mxCell id="GqzwVlABIhVGU8P-SLo2-1" style="edgeStyle=orthogonalEdgeStyle;rounded=0;orthogonalLoop=1;jettySize=auto;html=1;exitX=0.5;exitY=1;exitDx=0;exitDy=0;entryX=0.75;entryY=0;entryDx=0;entryDy=0;shape=link;" parent="1" source="5i9ivpqAXcweLOBhKeht-394" target="5i9ivpqAXcweLOBhKeht-86" edge="1">
          <mxGeometry relative="1" as="geometry" />
        </mxCell>
        <mxCell id="GqzwVlABIhVGU8P-SLo2-2" style="edgeStyle=orthogonalEdgeStyle;rounded=0;orthogonalLoop=1;jettySize=auto;html=1;exitX=0.5;exitY=0;exitDx=0;exitDy=0;entryX=0.75;entryY=1;entryDx=0;entryDy=0;" parent="1" source="5i9ivpqAXcweLOBhKeht-394" target="IJt0pZMBiccfIHnYekjX-4" edge="1">
          <mxGeometry relative="1" as="geometry" />
        </mxCell>
        <mxCell id="14bf4rCieV7-VyyaQFDR-6" style="edgeStyle=orthogonalEdgeStyle;rounded=0;orthogonalLoop=1;jettySize=auto;html=1;exitX=1;exitY=0.5;exitDx=0;exitDy=0;entryX=0;entryY=0.5;entryDx=0;entryDy=0;" parent="1" source="5i9ivpqAXcweLOBhKeht-394" target="5i9ivpqAXcweLOBhKeht-128" edge="1">
          <mxGeometry relative="1" as="geometry" />
        </mxCell>
        <mxCell id="5i9ivpqAXcweLOBhKeht-394" value="Take" style="shape=rhombus;perimeter=rhombusPerimeter;whiteSpace=wrap;html=1;align=center;fillColor=#dae8fc;strokeColor=#6c8ebf;" parent="1" vertex="1">
          <mxGeometry x="458" y="351" width="120" height="60" as="geometry" />
        </mxCell>
        <mxCell id="5i9ivpqAXcweLOBhKeht-397" value="&lt;font style=&quot;font-size: 20px&quot; color=&quot;#000099&quot;&gt;&lt;b&gt;M&lt;/b&gt;&lt;/font&gt;" style="text;html=1;strokeColor=none;fillColor=none;align=center;verticalAlign=middle;whiteSpace=wrap;rounded=0;" parent="1" vertex="1">
          <mxGeometry x="523" y="326.5" width="40" height="20" as="geometry" />
        </mxCell>
        <mxCell id="5i9ivpqAXcweLOBhKeht-398" style="edgeStyle=orthogonalEdgeStyle;rounded=0;orthogonalLoop=1;jettySize=auto;html=1;exitX=0.5;exitY=1;exitDx=0;exitDy=0;" parent="1" source="5i9ivpqAXcweLOBhKeht-397" target="5i9ivpqAXcweLOBhKeht-397" edge="1">
          <mxGeometry relative="1" as="geometry" />
        </mxCell>
        <mxCell id="5i9ivpqAXcweLOBhKeht-399" value="&lt;font style=&quot;font-size: 20px&quot; color=&quot;#000099&quot;&gt;&lt;b&gt;M&lt;/b&gt;&lt;/font&gt;" style="text;html=1;strokeColor=none;fillColor=none;align=center;verticalAlign=middle;whiteSpace=wrap;rounded=0;" parent="1" vertex="1">
          <mxGeometry x="520" y="431" width="40" height="19" as="geometry" />
        </mxCell>
        <mxCell id="ILLf86DSIE8QrTmpPEF9-145" style="edgeStyle=orthogonalEdgeStyle;rounded=0;orthogonalLoop=1;jettySize=auto;html=1;exitX=0.5;exitY=1;exitDx=0;exitDy=0;fontColor=#FEFAE0;entryX=0.386;entryY=0.008;entryDx=0;entryDy=0;entryPerimeter=0;shape=link;" parent="1" source="ILLf86DSIE8QrTmpPEF9-5" target="IJt0pZMBiccfIHnYekjX-4" edge="1">
          <mxGeometry relative="1" as="geometry">
            <mxPoint x="-185" y="-300" as="targetPoint" />
          </mxGeometry>
        </mxCell>
        <mxCell id="ILLf86DSIE8QrTmpPEF9-5" value="provide" style="shape=rhombus;perimeter=rhombusPerimeter;whiteSpace=wrap;html=1;align=center;fillColor=#dae8fc;strokeColor=#6c8ebf;" parent="1" vertex="1">
          <mxGeometry x="-245" y="-730" width="120" height="60" as="geometry" />
        </mxCell>
        <mxCell id="ILLf86DSIE8QrTmpPEF9-7" value="&lt;font style=&quot;font-size: 20px&quot; color=&quot;#000099&quot;&gt;&lt;b&gt;1&lt;/b&gt;&lt;/font&gt;" style="text;html=1;strokeColor=none;fillColor=none;align=center;verticalAlign=middle;whiteSpace=wrap;rounded=0;" parent="1" vertex="1">
          <mxGeometry x="-240" y="-755" width="40" height="20" as="geometry" />
        </mxCell>
        <mxCell id="ILLf86DSIE8QrTmpPEF9-8" value="&lt;font style=&quot;font-size: 20px&quot; color=&quot;#000099&quot;&gt;&lt;b&gt;M&lt;/b&gt;&lt;/font&gt;" style="text;html=1;strokeColor=none;fillColor=none;align=center;verticalAlign=middle;whiteSpace=wrap;rounded=0;" parent="1" vertex="1">
          <mxGeometry x="-240" y="-665" width="40" height="20" as="geometry" />
        </mxCell>
        <mxCell id="ILLf86DSIE8QrTmpPEF9-20" style="edgeStyle=orthogonalEdgeStyle;rounded=0;orthogonalLoop=1;jettySize=auto;html=1;exitX=0;exitY=0.5;exitDx=0;exitDy=0;" parent="1" source="ILLf86DSIE8QrTmpPEF9-10" target="ILLf86DSIE8QrTmpPEF9-24" edge="1">
          <mxGeometry relative="1" as="geometry">
            <mxPoint x="260" y="391" as="targetPoint" />
            <Array as="points">
              <mxPoint x="260" y="390" />
              <mxPoint x="260" y="390" />
            </Array>
          </mxGeometry>
        </mxCell>
        <mxCell id="ILLf86DSIE8QrTmpPEF9-21" style="edgeStyle=orthogonalEdgeStyle;rounded=0;orthogonalLoop=1;jettySize=auto;html=1;exitX=0;exitY=0.5;exitDx=0;exitDy=0;" parent="1" source="ILLf86DSIE8QrTmpPEF9-10" target="ILLf86DSIE8QrTmpPEF9-23" edge="1">
          <mxGeometry relative="1" as="geometry">
            <mxPoint x="260" y="350" as="targetPoint" />
            <Array as="points">
              <mxPoint x="290" y="391" />
              <mxPoint x="290" y="340" />
            </Array>
          </mxGeometry>
        </mxCell>
        <mxCell id="ILLf86DSIE8QrTmpPEF9-22" style="edgeStyle=orthogonalEdgeStyle;rounded=0;orthogonalLoop=1;jettySize=auto;html=1;exitX=0;exitY=0.5;exitDx=0;exitDy=0;" parent="1" source="ILLf86DSIE8QrTmpPEF9-10" target="ILLf86DSIE8QrTmpPEF9-25" edge="1">
          <mxGeometry relative="1" as="geometry">
            <mxPoint x="240" y="450" as="targetPoint" />
            <Array as="points">
              <mxPoint x="290" y="391" />
              <mxPoint x="290" y="450" />
              <mxPoint x="260" y="450" />
            </Array>
          </mxGeometry>
        </mxCell>
        <mxCell id="ILLf86DSIE8QrTmpPEF9-10" value="Exam" style="ellipse;whiteSpace=wrap;html=1;align=center;fillColor=#fff2cc;strokeColor=#d6b656;" parent="1" vertex="1">
          <mxGeometry x="310" y="371.0033333333335" width="100" height="40" as="geometry" />
        </mxCell>
        <mxCell id="ILLf86DSIE8QrTmpPEF9-23" value="date" style="ellipse;whiteSpace=wrap;html=1;align=center;fillColor=#fff2cc;strokeColor=#d6b656;" parent="1" vertex="1">
          <mxGeometry x="130" y="320" width="100" height="40" as="geometry" />
        </mxCell>
        <mxCell id="ILLf86DSIE8QrTmpPEF9-24" value="score&amp;nbsp;" style="ellipse;whiteSpace=wrap;html=1;align=center;fillColor=#fff2cc;strokeColor=#d6b656;" parent="1" vertex="1">
          <mxGeometry x="140" y="380" width="100" height="40" as="geometry" />
        </mxCell>
        <mxCell id="ILLf86DSIE8QrTmpPEF9-25" value="duration" style="ellipse;whiteSpace=wrap;html=1;align=center;fillColor=#fff2cc;strokeColor=#d6b656;" parent="1" vertex="1">
          <mxGeometry x="120" y="431" width="100" height="40" as="geometry" />
        </mxCell>
        <mxCell id="KDzrLPc6gg60PK9FeB10-18" style="edgeStyle=orthogonalEdgeStyle;rounded=0;orthogonalLoop=1;jettySize=auto;html=1;exitX=0.5;exitY=1;exitDx=0;exitDy=0;" parent="1" source="ILLf86DSIE8QrTmpPEF9-29" target="KDzrLPc6gg60PK9FeB10-19" edge="1">
          <mxGeometry relative="1" as="geometry">
            <mxPoint x="-20" y="700" as="targetPoint" />
            <Array as="points">
              <mxPoint x="20" y="700" />
            </Array>
          </mxGeometry>
        </mxCell>
        <mxCell id="KDzrLPc6gg60PK9FeB10-20" style="edgeStyle=orthogonalEdgeStyle;rounded=0;orthogonalLoop=1;jettySize=auto;html=1;exitX=0.5;exitY=0;exitDx=0;exitDy=0;entryX=0.5;entryY=1;entryDx=0;entryDy=0;" parent="1" source="ILLf86DSIE8QrTmpPEF9-29" target="KDzrLPc6gg60PK9FeB10-21" edge="1">
          <mxGeometry relative="1" as="geometry">
            <mxPoint x="20.66666666666697" y="490" as="targetPoint" />
          </mxGeometry>
        </mxCell>
        <mxCell id="ILLf86DSIE8QrTmpPEF9-29" value="Has" style="shape=rhombus;double=1;perimeter=rhombusPerimeter;whiteSpace=wrap;html=1;align=center;fillColor=#dae8fc;strokeColor=#6c8ebf;" parent="1" vertex="1">
          <mxGeometry x="-40" y="560" width="120" height="60" as="geometry" />
        </mxCell>
        <mxCell id="ILLf86DSIE8QrTmpPEF9-34" value="&lt;font style=&quot;font-size: 20px&quot; color=&quot;#000099&quot;&gt;&lt;b&gt;M&lt;/b&gt;&lt;/font&gt;" style="text;html=1;strokeColor=none;fillColor=none;align=center;verticalAlign=middle;whiteSpace=wrap;rounded=0;" parent="1" vertex="1">
          <mxGeometry x="80" y="560" width="40" height="20" as="geometry" />
        </mxCell>
        <mxCell id="ILLf86DSIE8QrTmpPEF9-35" value="&lt;font style=&quot;font-size: 20px&quot; color=&quot;#000099&quot;&gt;&lt;b&gt;M&lt;/b&gt;&lt;/font&gt;" style="text;html=1;strokeColor=none;fillColor=none;align=center;verticalAlign=middle;whiteSpace=wrap;rounded=0;" parent="1" vertex="1">
          <mxGeometry x="-80" y="559.5" width="40" height="20" as="geometry" />
        </mxCell>
        <mxCell id="ILLf86DSIE8QrTmpPEF9-158" style="edgeStyle=orthogonalEdgeStyle;rounded=0;orthogonalLoop=1;jettySize=auto;html=1;exitX=0.5;exitY=1;exitDx=0;exitDy=0;entryX=0.5;entryY=0;entryDx=0;entryDy=0;fontColor=#FEFAE0;shape=link;" parent="1" source="ILLf86DSIE8QrTmpPEF9-54" target="IJt0pZMBiccfIHnYekjX-63" edge="1">
          <mxGeometry relative="1" as="geometry">
            <Array as="points">
              <mxPoint x="1185" y="-26" />
            </Array>
          </mxGeometry>
        </mxCell>
        <mxCell id="ILLf86DSIE8QrTmpPEF9-54" value="contains" style="shape=rhombus;perimeter=rhombusPerimeter;whiteSpace=wrap;html=1;align=center;fillColor=#dae8fc;strokeColor=#6c8ebf;" parent="1" vertex="1">
          <mxGeometry x="1125" y="-230" width="120" height="60" as="geometry" />
        </mxCell>
        <mxCell id="ILLf86DSIE8QrTmpPEF9-57" value="&lt;font style=&quot;font-size: 20px&quot; color=&quot;#000099&quot;&gt;&lt;b&gt;1&lt;/b&gt;&lt;/font&gt;" style="text;html=1;strokeColor=none;fillColor=none;align=center;verticalAlign=middle;whiteSpace=wrap;rounded=0;" parent="1" vertex="1">
          <mxGeometry x="1125" y="-250" width="40" height="20" as="geometry" />
        </mxCell>
        <mxCell id="ILLf86DSIE8QrTmpPEF9-58" value="&lt;b&gt;&lt;font style=&quot;font-size: 20px&quot; color=&quot;#000099&quot;&gt;M&lt;/font&gt;&lt;/b&gt;" style="text;html=1;strokeColor=none;fillColor=none;align=center;verticalAlign=middle;whiteSpace=wrap;rounded=0;" parent="1" vertex="1">
          <mxGeometry x="1135" y="-152.43" width="40" height="20" as="geometry" />
        </mxCell>
        <mxCell id="ILLf86DSIE8QrTmpPEF9-63" style="edgeStyle=orthogonalEdgeStyle;rounded=0;orthogonalLoop=1;jettySize=auto;html=1;exitX=0.5;exitY=0;exitDx=0;exitDy=0;entryX=0.299;entryY=-0.004;entryDx=0;entryDy=0;entryPerimeter=0;shape=link;" parent="1" source="ILLf86DSIE8QrTmpPEF9-62" target="5i9ivpqAXcweLOBhKeht-246" edge="1">
          <mxGeometry relative="1" as="geometry">
            <Array as="points">
              <mxPoint x="-475" y="-1920" />
              <mxPoint x="-267" y="-1920" />
            </Array>
          </mxGeometry>
        </mxCell>
        <mxCell id="ILLf86DSIE8QrTmpPEF9-62" value="Manage" style="shape=rhombus;perimeter=rhombusPerimeter;whiteSpace=wrap;html=1;align=center;fillColor=#dae8fc;strokeColor=#6c8ebf;" parent="1" vertex="1">
          <mxGeometry x="-534.9999999999995" y="-1870" width="120" height="60" as="geometry" />
        </mxCell>
        <mxCell id="ILLf86DSIE8QrTmpPEF9-64" value="&lt;b style=&quot;border-color: var(--border-color); color: rgb(0, 0, 153); font-size: 20px;&quot;&gt;1&lt;/b&gt;" style="text;html=1;align=center;verticalAlign=middle;resizable=0;points=[];autosize=1;strokeColor=none;fillColor=none;" parent="1" vertex="1">
          <mxGeometry x="-470" y="-1820" width="30" height="40" as="geometry" />
        </mxCell>
        <mxCell id="ILLf86DSIE8QrTmpPEF9-65" value="&lt;font style=&quot;font-size: 20px&quot; color=&quot;#000099&quot;&gt;&lt;b&gt;M&lt;/b&gt;&lt;/font&gt;" style="text;html=1;strokeColor=none;fillColor=none;align=center;verticalAlign=middle;whiteSpace=wrap;rounded=0;" parent="1" vertex="1">
          <mxGeometry x="-480" y="-1890" width="40" height="20" as="geometry" />
        </mxCell>
        <mxCell id="ILLf86DSIE8QrTmpPEF9-168" style="edgeStyle=orthogonalEdgeStyle;rounded=0;orthogonalLoop=1;jettySize=auto;html=1;exitX=0.5;exitY=0;exitDx=0;exitDy=0;entryX=0.5;entryY=1;entryDx=0;entryDy=0;fontColor=#FEFAE0;" parent="1" source="ILLf86DSIE8QrTmpPEF9-68" target="5i9ivpqAXcweLOBhKeht-343" edge="1">
          <mxGeometry relative="1" as="geometry" />
        </mxCell>
        <mxCell id="ILLf86DSIE8QrTmpPEF9-68" value="held_in" style="shape=rhombus;perimeter=rhombusPerimeter;whiteSpace=wrap;html=1;align=center;fillColor=#dae8fc;strokeColor=#6c8ebf;" parent="1" vertex="1">
          <mxGeometry x="2337.5" y="-840" width="120" height="60" as="geometry" />
        </mxCell>
        <mxCell id="ILLf86DSIE8QrTmpPEF9-70" value="&lt;font style=&quot;font-size: 20px&quot; color=&quot;#000099&quot;&gt;&lt;b&gt;M&lt;/b&gt;&lt;/font&gt;" style="text;html=1;strokeColor=none;fillColor=none;align=center;verticalAlign=middle;whiteSpace=wrap;rounded=0;" parent="1" vertex="1">
          <mxGeometry x="2345" y="-775" width="40" height="20" as="geometry" />
        </mxCell>
        <mxCell id="ILLf86DSIE8QrTmpPEF9-71" value="&lt;font style=&quot;font-size: 20px&quot; color=&quot;#000099&quot;&gt;&lt;b&gt;1&lt;/b&gt;&lt;/font&gt;" style="text;html=1;strokeColor=none;fillColor=none;align=center;verticalAlign=middle;whiteSpace=wrap;rounded=0;" parent="1" vertex="1">
          <mxGeometry x="2345" y="-870" width="40" height="20" as="geometry" />
        </mxCell>
        <mxCell id="ILLf86DSIE8QrTmpPEF9-78" style="edgeStyle=orthogonalEdgeStyle;rounded=0;orthogonalLoop=1;jettySize=auto;html=1;entryX=1;entryY=0.5;entryDx=0;entryDy=0;" parent="1" target="ILLf86DSIE8QrTmpPEF9-80" edge="1">
          <mxGeometry relative="1" as="geometry">
            <Array as="points">
              <mxPoint x="1212.5" y="-1222.25" />
              <mxPoint x="1212.5" y="-1526.25" />
            </Array>
            <mxPoint x="1212.5" y="-1226.25" as="sourcePoint" />
            <mxPoint x="1212.5" y="-1526.25" as="targetPoint" />
          </mxGeometry>
        </mxCell>
        <mxCell id="ILLf86DSIE8QrTmpPEF9-79" value="Session_Code" style="ellipse;whiteSpace=wrap;html=1;align=center;fontStyle=4;fillColor=#f8cecc;strokeColor=#b85450;" parent="1" vertex="1">
          <mxGeometry x="1032.5" y="-1656.25" width="100" height="40" as="geometry" />
        </mxCell>
        <mxCell id="ILLf86DSIE8QrTmpPEF9-80" value="Start_date" style="ellipse;whiteSpace=wrap;html=1;align=center;fillColor=#fff2cc;strokeColor=#d6b656;" parent="1" vertex="1">
          <mxGeometry x="1032.5" y="-1546.25" width="100" height="40" as="geometry" />
        </mxCell>
        <mxCell id="ILLf86DSIE8QrTmpPEF9-82" value="Materials" style="ellipse;whiteSpace=wrap;html=1;align=center;fillColor=#fff2cc;strokeColor=#d6b656;" parent="1" vertex="1">
          <mxGeometry x="1022.5" y="-1381.25" width="100" height="41.25" as="geometry" />
        </mxCell>
        <mxCell id="ILLf86DSIE8QrTmpPEF9-83" value="Status(given/not)" style="ellipse;whiteSpace=wrap;html=1;align=center;fillColor=#fff2cc;strokeColor=#d6b656;" parent="1" vertex="1">
          <mxGeometry x="1032.5" y="-1326.25" width="100" height="40" as="geometry" />
        </mxCell>
        <mxCell id="ILLf86DSIE8QrTmpPEF9-84" value="End_Date" style="ellipse;whiteSpace=wrap;html=1;align=center;dashed=1;fillColor=#fff2cc;strokeColor=#d6b656;" parent="1" vertex="1">
          <mxGeometry x="1032.5" y="-1436.25" width="100" height="40" as="geometry" />
        </mxCell>
        <mxCell id="KDzrLPc6gg60PK9FeB10-6" style="edgeStyle=orthogonalEdgeStyle;rounded=0;orthogonalLoop=1;jettySize=auto;html=1;exitX=0;exitY=0.5;exitDx=0;exitDy=0;" parent="1" source="ILLf86DSIE8QrTmpPEF9-85" target="KDzrLPc6gg60PK9FeB10-3" edge="1">
          <mxGeometry relative="1" as="geometry">
            <Array as="points">
              <mxPoint x="1032" y="-1584" />
            </Array>
          </mxGeometry>
        </mxCell>
        <mxCell id="ILLf86DSIE8QrTmpPEF9-85" value="Topics" style="ellipse;shape=doubleEllipse;margin=3;whiteSpace=wrap;html=1;align=center;fillColor=#fff2cc;strokeColor=#d6b656;" parent="1" vertex="1">
          <mxGeometry x="1032.5" y="-1601.25" width="100" height="40" as="geometry" />
        </mxCell>
        <mxCell id="GqzwVlABIhVGU8P-SLo2-7" style="edgeStyle=orthogonalEdgeStyle;rounded=0;orthogonalLoop=1;jettySize=auto;html=1;exitX=1;exitY=0.5;exitDx=0;exitDy=0;entryX=0;entryY=0.5;entryDx=0;entryDy=0;" parent="1" source="ILLf86DSIE8QrTmpPEF9-87" target="5i9ivpqAXcweLOBhKeht-343" edge="1">
          <mxGeometry relative="1" as="geometry" />
        </mxCell>
        <mxCell id="ILLf86DSIE8QrTmpPEF9-87" value="taken_in" style="shape=rhombus;perimeter=rhombusPerimeter;whiteSpace=wrap;html=1;align=center;strokeColor=#6c8ebf;fillColor=#dae8fc;" parent="1" vertex="1">
          <mxGeometry x="1775" y="-1201" width="120" height="60" as="geometry" />
        </mxCell>
        <mxCell id="ILLf86DSIE8QrTmpPEF9-89" value="&lt;font style=&quot;font-size: 20px&quot; color=&quot;#000099&quot;&gt;&lt;b&gt;M&lt;/b&gt;&lt;/font&gt;" style="text;html=1;strokeColor=none;fillColor=none;align=center;verticalAlign=middle;whiteSpace=wrap;rounded=0;" parent="1" vertex="1">
          <mxGeometry x="1735" y="-1201" width="40" height="20" as="geometry" />
        </mxCell>
        <mxCell id="ILLf86DSIE8QrTmpPEF9-90" value="&lt;font style=&quot;font-size: 20px&quot; color=&quot;#000099&quot;&gt;&lt;b&gt;1&lt;/b&gt;&lt;/font&gt;" style="text;html=1;strokeColor=none;fillColor=none;align=center;verticalAlign=middle;whiteSpace=wrap;rounded=0;" parent="1" vertex="1">
          <mxGeometry x="1887.5" y="-1201" width="40" height="20" as="geometry" />
        </mxCell>
        <mxCell id="ILLf86DSIE8QrTmpPEF9-100" style="edgeStyle=orthogonalEdgeStyle;rounded=0;orthogonalLoop=1;jettySize=auto;html=1;exitX=1;exitY=0.5;exitDx=0;exitDy=0;entryX=0;entryY=0.25;entryDx=0;entryDy=0;fontColor=#FEFAE0;shape=link;" parent="1" source="ILLf86DSIE8QrTmpPEF9-99" target="5i9ivpqAXcweLOBhKeht-245" edge="1">
          <mxGeometry relative="1" as="geometry" />
        </mxCell>
        <mxCell id="ILLf86DSIE8QrTmpPEF9-99" value="Has" style="shape=rhombus;perimeter=rhombusPerimeter;whiteSpace=wrap;html=1;align=center;strokeColor=#6c8ebf;fillColor=#dae8fc;" parent="1" vertex="1">
          <mxGeometry x="-100" y="-1231" width="120" height="60" as="geometry" />
        </mxCell>
        <mxCell id="ILLf86DSIE8QrTmpPEF9-101" value="&lt;font style=&quot;font-size: 20px&quot; color=&quot;#000099&quot;&gt;&lt;b&gt;1&lt;/b&gt;&lt;/font&gt;" style="text;html=1;strokeColor=none;fillColor=none;align=center;verticalAlign=middle;whiteSpace=wrap;rounded=0;" parent="1" vertex="1">
          <mxGeometry x="-165" y="-1231" width="40" height="20" as="geometry" />
        </mxCell>
        <mxCell id="ILLf86DSIE8QrTmpPEF9-102" value="&lt;font style=&quot;font-size: 20px&quot; color=&quot;#000099&quot;&gt;&lt;b&gt;M&lt;/b&gt;&lt;/font&gt;" style="text;html=1;strokeColor=none;fillColor=none;align=center;verticalAlign=middle;whiteSpace=wrap;rounded=0;" parent="1" vertex="1">
          <mxGeometry x="18" y="-1231" width="40" height="20" as="geometry" />
        </mxCell>
        <mxCell id="ILLf86DSIE8QrTmpPEF9-105" style="edgeStyle=orthogonalEdgeStyle;rounded=0;orthogonalLoop=1;jettySize=auto;html=1;exitX=0.5;exitY=1;exitDx=0;exitDy=0;fontColor=#FEFAE0;shape=link;" parent="1" source="ILLf86DSIE8QrTmpPEF9-104" target="IJt0pZMBiccfIHnYekjX-112" edge="1">
          <mxGeometry relative="1" as="geometry">
            <mxPoint x="680" y="-750" as="targetPoint" />
            <Array as="points">
              <mxPoint x="680" y="-1090" />
              <mxPoint x="680" y="-1090" />
            </Array>
          </mxGeometry>
        </mxCell>
        <mxCell id="ILLf86DSIE8QrTmpPEF9-104" value="work in" style="shape=rhombus;perimeter=rhombusPerimeter;whiteSpace=wrap;html=1;align=center;strokeColor=#6c8ebf;fillColor=#dae8fc;" parent="1" vertex="1">
          <mxGeometry x="620" y="-1420" width="120" height="60" as="geometry" />
        </mxCell>
        <mxCell id="ILLf86DSIE8QrTmpPEF9-126" value="&lt;font style=&quot;font-size: 20px&quot; color=&quot;#000099&quot;&gt;&lt;b&gt;M&lt;/b&gt;&lt;/font&gt;" style="text;html=1;strokeColor=none;fillColor=none;align=center;verticalAlign=middle;whiteSpace=wrap;rounded=0;" parent="1" vertex="1">
          <mxGeometry x="630" y="-1461.25" width="40" height="20" as="geometry" />
        </mxCell>
        <mxCell id="ILLf86DSIE8QrTmpPEF9-127" value="&lt;font style=&quot;font-size: 20px&quot; color=&quot;#000099&quot;&gt;&lt;b&gt;1&lt;/b&gt;&lt;/font&gt;" style="text;html=1;strokeColor=none;fillColor=none;align=center;verticalAlign=middle;whiteSpace=wrap;rounded=0;" parent="1" vertex="1">
          <mxGeometry x="630" y="-1346.25" width="40" height="20" as="geometry" />
        </mxCell>
        <mxCell id="ILLf86DSIE8QrTmpPEF9-130" style="edgeStyle=orthogonalEdgeStyle;rounded=0;orthogonalLoop=1;jettySize=auto;html=1;exitX=0;exitY=0.5;exitDx=0;exitDy=0;entryX=1;entryY=0.5;entryDx=0;entryDy=0;fontColor=#FEFAE0;shape=link;" parent="1" source="ILLf86DSIE8QrTmpPEF9-129" target="5i9ivpqAXcweLOBhKeht-75" edge="1">
          <mxGeometry relative="1" as="geometry" />
        </mxCell>
        <mxCell id="ILLf86DSIE8QrTmpPEF9-129" value="include" style="shape=rhombus;perimeter=rhombusPerimeter;whiteSpace=wrap;html=1;align=center;strokeColor=#6c8ebf;fillColor=#dae8fc;" parent="1" vertex="1">
          <mxGeometry x="-220" y="250" width="120" height="60" as="geometry" />
        </mxCell>
        <mxCell id="ILLf86DSIE8QrTmpPEF9-131" value="&lt;font style=&quot;font-size: 20px&quot; color=&quot;#000099&quot;&gt;&lt;b&gt;1&lt;/b&gt;&lt;/font&gt;" style="text;html=1;strokeColor=none;fillColor=none;align=center;verticalAlign=middle;whiteSpace=wrap;rounded=0;" parent="1" vertex="1">
          <mxGeometry x="-160" y="220" width="40" height="20" as="geometry" />
        </mxCell>
        <mxCell id="ILLf86DSIE8QrTmpPEF9-132" value="&lt;font style=&quot;font-size: 20px&quot; color=&quot;#000099&quot;&gt;&lt;b&gt;1&lt;/b&gt;&lt;/font&gt;" style="text;html=1;strokeColor=none;fillColor=none;align=center;verticalAlign=middle;whiteSpace=wrap;rounded=0;" parent="1" vertex="1">
          <mxGeometry x="-250" y="299.5" width="40" height="20" as="geometry" />
        </mxCell>
        <mxCell id="KDzrLPc6gg60PK9FeB10-14" style="edgeStyle=orthogonalEdgeStyle;rounded=0;orthogonalLoop=1;jettySize=auto;html=1;exitX=0;exitY=0.5;exitDx=0;exitDy=0;" parent="1" source="ILLf86DSIE8QrTmpPEF9-136" target="KDzrLPc6gg60PK9FeB10-15" edge="1">
          <mxGeometry relative="1" as="geometry">
            <mxPoint x="-1240" y="740.3333333333335" as="targetPoint" />
          </mxGeometry>
        </mxCell>
        <mxCell id="ILLf86DSIE8QrTmpPEF9-136" value="Make" style="shape=rhombus;perimeter=rhombusPerimeter;whiteSpace=wrap;html=1;align=center;strokeColor=#6c8ebf;fillColor=#dae8fc;" parent="1" vertex="1">
          <mxGeometry x="-1100.4999999999998" y="709.9999999999995" width="120" height="60" as="geometry" />
        </mxCell>
        <mxCell id="ILLf86DSIE8QrTmpPEF9-138" value="&lt;font style=&quot;font-size: 20px&quot; color=&quot;#000099&quot;&gt;&lt;b&gt;M&lt;/b&gt;&lt;/font&gt;" style="text;html=1;strokeColor=none;fillColor=none;align=center;verticalAlign=middle;whiteSpace=wrap;rounded=0;" parent="1" vertex="1">
          <mxGeometry x="-1000" y="764" width="40" height="20" as="geometry" />
        </mxCell>
        <mxCell id="ILLf86DSIE8QrTmpPEF9-139" value="&lt;font style=&quot;font-size: 20px&quot; color=&quot;#000099&quot;&gt;&lt;b&gt;1&lt;/b&gt;&lt;/font&gt;" style="text;html=1;strokeColor=none;fillColor=none;align=center;verticalAlign=middle;whiteSpace=wrap;rounded=0;" parent="1" vertex="1">
          <mxGeometry x="-1090" y="680.5" width="40" height="20" as="geometry" />
        </mxCell>
        <mxCell id="ILLf86DSIE8QrTmpPEF9-160" value="Has" style="shape=rhombus;perimeter=rhombusPerimeter;whiteSpace=wrap;html=1;align=center;strokeColor=#6c8ebf;fillColor=#dae8fc;" parent="1" vertex="1">
          <mxGeometry x="1510" y="-910" width="120" height="60" as="geometry" />
        </mxCell>
        <mxCell id="ILLf86DSIE8QrTmpPEF9-170" value="&lt;font style=&quot;font-size: 20px&quot; color=&quot;#000099&quot;&gt;&lt;b&gt;1&lt;/b&gt;&lt;/font&gt;" style="text;html=1;strokeColor=none;fillColor=none;align=center;verticalAlign=middle;whiteSpace=wrap;rounded=0;" parent="1" vertex="1">
          <mxGeometry x="1520" y="-840" width="40" height="20" as="geometry" />
        </mxCell>
        <mxCell id="ILLf86DSIE8QrTmpPEF9-171" value="&lt;font style=&quot;font-size: 20px&quot; color=&quot;#000099&quot;&gt;&lt;b&gt;M&lt;/b&gt;&lt;/font&gt;" style="text;html=1;strokeColor=none;fillColor=none;align=center;verticalAlign=middle;whiteSpace=wrap;rounded=0;" parent="1" vertex="1">
          <mxGeometry x="1529" y="-940" width="40" height="20" as="geometry" />
        </mxCell>
        <mxCell id="14bf4rCieV7-VyyaQFDR-7" value="phones" style="ellipse;shape=doubleEllipse;margin=3;whiteSpace=wrap;html=1;align=center;fillColor=#FFF2CC;" parent="1" vertex="1">
          <mxGeometry x="1035" y="-705" width="100" height="40" as="geometry" />
        </mxCell>
        <mxCell id="14bf4rCieV7-VyyaQFDR-9" value="phone" style="ellipse;whiteSpace=wrap;html=1;align=center;fillColor=#FFF2CC;" parent="1" vertex="1">
          <mxGeometry x="1900" y="189" width="100" height="40" as="geometry" />
        </mxCell>
        <mxCell id="14bf4rCieV7-VyyaQFDR-10" value="phone" style="ellipse;whiteSpace=wrap;html=1;align=center;fillColor=#FFF2CC;" parent="1" vertex="1">
          <mxGeometry x="1130" y="129" width="100" height="40" as="geometry" />
        </mxCell>
        <mxCell id="14bf4rCieV7-VyyaQFDR-11" value="phone" style="ellipse;whiteSpace=wrap;html=1;align=center;fillColor=#FFF2CC;" parent="1" vertex="1">
          <mxGeometry x="630" y="640.5" width="100" height="40" as="geometry" />
        </mxCell>
        <mxCell id="KDzrLPc6gg60PK9FeB10-3" value="Name" style="ellipse;whiteSpace=wrap;html=1;align=center;fillColor=#FFF2CC;" parent="1" vertex="1">
          <mxGeometry x="860" y="-1604.25" width="100" height="40" as="geometry" />
        </mxCell>
        <mxCell id="KDzrLPc6gg60PK9FeB10-10" value="Number of chairs" style="ellipse;whiteSpace=wrap;html=1;align=center;fillColor=#FFF2CC;" parent="1" vertex="1">
          <mxGeometry x="2750" y="-1120" width="120" height="49" as="geometry" />
        </mxCell>
        <mxCell id="KDzrLPc6gg60PK9FeB10-11" value="Number Display screen" style="ellipse;whiteSpace=wrap;html=1;align=center;fillColor=#FFF2CC;" parent="1" vertex="1">
          <mxGeometry x="2750" y="-1060" width="140" height="49" as="geometry" />
        </mxCell>
        <mxCell id="KDzrLPc6gg60PK9FeB10-12" value="Number of devices" style="ellipse;whiteSpace=wrap;html=1;align=center;fillColor=#FFF2CC;" parent="1" vertex="1">
          <mxGeometry x="2765" y="-1000" width="125" height="40" as="geometry" />
        </mxCell>
        <mxCell id="KDzrLPc6gg60PK9FeB10-15" value="trainee_score" style="ellipse;whiteSpace=wrap;html=1;align=center;fillColor=#FFF2CC;" parent="1" vertex="1">
          <mxGeometry x="-1290" y="720.3333333333335" width="100" height="40" as="geometry" />
        </mxCell>
        <mxCell id="KDzrLPc6gg60PK9FeB10-19" value="Trainee_Attendence" style="ellipse;whiteSpace=wrap;html=1;align=center;fillColor=#FFF2CC;" parent="1" vertex="1">
          <mxGeometry x="-150" y="660.5" width="130" height="40" as="geometry" />
        </mxCell>
        <mxCell id="KDzrLPc6gg60PK9FeB10-21" value="Trainee_Evaluation" style="ellipse;whiteSpace=wrap;html=1;align=center;fillColor=#fff2cc;strokeColor=#d6b656;" parent="1" vertex="1">
          <mxGeometry x="-35" y="446.5" width="110" height="40" as="geometry" />
        </mxCell>
        <mxCell id="KDzrLPc6gg60PK9FeB10-22" value="Student_Points" style="ellipse;whiteSpace=wrap;html=1;align=center;fillColor=#fff2cc;strokeColor=#d6b656;" parent="1" vertex="1">
          <mxGeometry x="-586" y="530" width="100" height="40" as="geometry" />
        </mxCell>
        <mxCell id="KDzrLPc6gg60PK9FeB10-23" value="project_full_score" style="ellipse;whiteSpace=wrap;html=1;align=center;fillColor=#FFF2CC;" parent="1" vertex="1">
          <mxGeometry x="-620" y="580" width="124" height="40" as="geometry" />
        </mxCell>
        <mxCell id="KDzrLPc6gg60PK9FeB10-25" value="Event_Decription" style="ellipse;whiteSpace=wrap;html=1;align=center;fillColor=#fff2cc;strokeColor=#d6b656;" parent="1" vertex="1">
          <mxGeometry x="2315" y="-470" width="100" height="40" as="geometry" />
        </mxCell>
        <mxCell id="KDzrLPc6gg60PK9FeB10-27" value="Duration" style="ellipse;whiteSpace=wrap;html=1;align=center;fillColor=#FFF2CC;" parent="1" vertex="1">
          <mxGeometry x="-290" y="-220" width="100" height="40" as="geometry" />
        </mxCell>
        <mxCell id="KDzrLPc6gg60PK9FeB10-30" style="edgeStyle=orthogonalEdgeStyle;rounded=0;orthogonalLoop=1;jettySize=auto;html=1;exitX=0;exitY=0;exitDx=0;exitDy=0;entryX=1;entryY=0.5;entryDx=0;entryDy=0;" parent="1" source="KDzrLPc6gg60PK9FeB10-28" target="KDzrLPc6gg60PK9FeB10-32" edge="1">
          <mxGeometry relative="1" as="geometry">
            <mxPoint x="-550" y="-190" as="targetPoint" />
            <Array as="points">
              <mxPoint x="-545" y="-142" />
              <mxPoint x="-545" y="-190" />
            </Array>
          </mxGeometry>
        </mxCell>
        <mxCell id="KDzrLPc6gg60PK9FeB10-33" style="edgeStyle=orthogonalEdgeStyle;rounded=0;orthogonalLoop=1;jettySize=auto;html=1;exitX=0;exitY=0.5;exitDx=0;exitDy=0;" parent="1" source="KDzrLPc6gg60PK9FeB10-28" target="KDzrLPc6gg60PK9FeB10-34" edge="1">
          <mxGeometry relative="1" as="geometry">
            <mxPoint x="-620" y="-80" as="targetPoint" />
          </mxGeometry>
        </mxCell>
        <mxCell id="KDzrLPc6gg60PK9FeB10-36" style="edgeStyle=orthogonalEdgeStyle;rounded=0;orthogonalLoop=1;jettySize=auto;html=1;exitX=0;exitY=1;exitDx=0;exitDy=0;" parent="1" source="KDzrLPc6gg60PK9FeB10-28" target="KDzrLPc6gg60PK9FeB10-37" edge="1">
          <mxGeometry relative="1" as="geometry">
            <mxPoint x="-610" as="targetPoint" />
            <Array as="points">
              <mxPoint x="-545" y="-33" />
              <mxPoint x="-545" />
            </Array>
          </mxGeometry>
        </mxCell>
        <mxCell id="KDzrLPc6gg60PK9FeB10-38" style="edgeStyle=orthogonalEdgeStyle;rounded=0;orthogonalLoop=1;jettySize=auto;html=1;exitX=0;exitY=0;exitDx=0;exitDy=0;" parent="1" source="KDzrLPc6gg60PK9FeB10-28" target="KDzrLPc6gg60PK9FeB10-39" edge="1">
          <mxGeometry relative="1" as="geometry">
            <mxPoint x="-630" y="-140" as="targetPoint" />
            <Array as="points">
              <mxPoint x="-545" y="-140" />
              <mxPoint x="-600" y="-140" />
            </Array>
          </mxGeometry>
        </mxCell>
        <mxCell id="KDzrLPc6gg60PK9FeB10-28" value="Course_Levels" style="ellipse;shape=doubleEllipse;margin=3;whiteSpace=wrap;html=1;align=center;fillColor=#FFF2CC;" parent="1" vertex="1">
          <mxGeometry x="-560" y="-100.25" width="100" height="40" as="geometry" />
        </mxCell>
        <mxCell id="KDzrLPc6gg60PK9FeB10-32" value="Level_Prerequest" style="ellipse;shape=doubleEllipse;margin=3;whiteSpace=wrap;html=1;align=center;fillColor=#fff2cc;strokeColor=#d6b656;" parent="1" vertex="1">
          <mxGeometry x="-675" y="-210" width="115" height="40" as="geometry" />
        </mxCell>
        <mxCell id="KDzrLPc6gg60PK9FeB10-34" value="Curent_level" style="ellipse;whiteSpace=wrap;html=1;align=center;fillColor=#FFF2CC;" parent="1" vertex="1">
          <mxGeometry x="-696" y="-101" width="100" height="40" as="geometry" />
        </mxCell>
        <mxCell id="KDzrLPc6gg60PK9FeB10-37" value="Level_id" style="ellipse;whiteSpace=wrap;html=1;align=center;fillColor=#FFF2CC;" parent="1" vertex="1">
          <mxGeometry x="-667.5" y="-28.5" width="100" height="40" as="geometry" />
        </mxCell>
        <mxCell id="KDzrLPc6gg60PK9FeB10-39" value="Level_price" style="ellipse;whiteSpace=wrap;html=1;align=center;fillColor=#FFF2CC;" parent="1" vertex="1">
          <mxGeometry x="-696" y="-162.43" width="100" height="40" as="geometry" />
        </mxCell>
      </root>
    </mxGraphModel>
  </diagram>
</mxfile>
